<?xml version="1.0" encoding="utf-8" standalone="no"?>
<!DOCTYPE svg PUBLIC "-//W3C//DTD SVG 1.1//EN"
  "http://www.w3.org/Graphics/SVG/1.1/DTD/svg11.dtd">
<!-- Created with matplotlib (https://matplotlib.org/) -->
<svg height="288pt" version="1.1" viewBox="0 0 648 288" width="648pt" xmlns="http://www.w3.org/2000/svg" xmlns:xlink="http://www.w3.org/1999/xlink">
 <metadata>
  <rdf:RDF xmlns:cc="http://creativecommons.org/ns#" xmlns:dc="http://purl.org/dc/elements/1.1/" xmlns:rdf="http://www.w3.org/1999/02/22-rdf-syntax-ns#">
   <cc:Work>
    <dc:type rdf:resource="http://purl.org/dc/dcmitype/StillImage"/>
    <dc:date>2021-05-14T17:03:26.380046</dc:date>
    <dc:format>image/svg+xml</dc:format>
    <dc:creator>
     <cc:Agent>
      <dc:title>Matplotlib v3.3.3, https://matplotlib.org/</dc:title>
     </cc:Agent>
    </dc:creator>
   </cc:Work>
  </rdf:RDF>
 </metadata>
 <defs>
  <style type="text/css">*{stroke-linecap:butt;stroke-linejoin:round;}</style>
 </defs>
 <g id="figure_1">
  <g id="patch_1">
   <path d="M 0 288 
L 648 288 
L 648 0 
L 0 0 
z
" style="fill:#ffffff;"/>
  </g>
  <g id="axes_1">
   <g id="patch_2">
    <path d="M 81 256.32 
L 583.2 256.32 
L 583.2 34.56 
L 81 34.56 
z
" style="fill:#ffffff;"/>
   </g>
   <g id="matplotlib.axis_1">
    <g id="xtick_1">
     <g id="line2d_1">
      <defs>
       <path d="M 0 0 
L 0 3.5 
" id="mf51d86f32e" style="stroke:#000000;stroke-width:0.8;"/>
      </defs>
      <g>
       <use style="stroke:#000000;stroke-width:0.8;" x="120.472734" xlink:href="#mf51d86f32e" y="256.32"/>
      </g>
     </g>
     <g id="text_1">
      <!-- $\mathdefault{10^{1}}$ -->
      <g transform="translate(111.672734 270.918437)scale(0.1 -0.1)">
       <defs>
        <path d="M 12.40625 8.296875 
L 28.515625 8.296875 
L 28.515625 63.921875 
L 10.984375 60.40625 
L 10.984375 69.390625 
L 28.421875 72.90625 
L 38.28125 72.90625 
L 38.28125 8.296875 
L 54.390625 8.296875 
L 54.390625 0 
L 12.40625 0 
z
" id="DejaVuSans-49"/>
        <path d="M 31.78125 66.40625 
Q 24.171875 66.40625 20.328125 58.90625 
Q 16.5 51.421875 16.5 36.375 
Q 16.5 21.390625 20.328125 13.890625 
Q 24.171875 6.390625 31.78125 6.390625 
Q 39.453125 6.390625 43.28125 13.890625 
Q 47.125 21.390625 47.125 36.375 
Q 47.125 51.421875 43.28125 58.90625 
Q 39.453125 66.40625 31.78125 66.40625 
z
M 31.78125 74.21875 
Q 44.046875 74.21875 50.515625 64.515625 
Q 56.984375 54.828125 56.984375 36.375 
Q 56.984375 17.96875 50.515625 8.265625 
Q 44.046875 -1.421875 31.78125 -1.421875 
Q 19.53125 -1.421875 13.0625 8.265625 
Q 6.59375 17.96875 6.59375 36.375 
Q 6.59375 54.828125 13.0625 64.515625 
Q 19.53125 74.21875 31.78125 74.21875 
z
" id="DejaVuSans-48"/>
       </defs>
       <use transform="translate(0 0.684375)" xlink:href="#DejaVuSans-49"/>
       <use transform="translate(63.623047 0.684375)" xlink:href="#DejaVuSans-48"/>
       <use transform="translate(128.203125 38.965625)scale(0.7)" xlink:href="#DejaVuSans-49"/>
      </g>
     </g>
    </g>
    <g id="xtick_2">
     <g id="line2d_2">
      <g>
       <use style="stroke:#000000;stroke-width:0.8;" x="292.234772" xlink:href="#mf51d86f32e" y="256.32"/>
      </g>
     </g>
     <g id="text_2">
      <!-- $\mathdefault{10^{2}}$ -->
      <g transform="translate(283.434772 270.918437)scale(0.1 -0.1)">
       <defs>
        <path d="M 19.1875 8.296875 
L 53.609375 8.296875 
L 53.609375 0 
L 7.328125 0 
L 7.328125 8.296875 
Q 12.9375 14.109375 22.625 23.890625 
Q 32.328125 33.6875 34.8125 36.53125 
Q 39.546875 41.84375 41.421875 45.53125 
Q 43.3125 49.21875 43.3125 52.78125 
Q 43.3125 58.59375 39.234375 62.25 
Q 35.15625 65.921875 28.609375 65.921875 
Q 23.96875 65.921875 18.8125 64.3125 
Q 13.671875 62.703125 7.8125 59.421875 
L 7.8125 69.390625 
Q 13.765625 71.78125 18.9375 73 
Q 24.125 74.21875 28.421875 74.21875 
Q 39.75 74.21875 46.484375 68.546875 
Q 53.21875 62.890625 53.21875 53.421875 
Q 53.21875 48.921875 51.53125 44.890625 
Q 49.859375 40.875 45.40625 35.40625 
Q 44.1875 33.984375 37.640625 27.21875 
Q 31.109375 20.453125 19.1875 8.296875 
z
" id="DejaVuSans-50"/>
       </defs>
       <use transform="translate(0 0.765625)" xlink:href="#DejaVuSans-49"/>
       <use transform="translate(63.623047 0.765625)" xlink:href="#DejaVuSans-48"/>
       <use transform="translate(128.203125 39.046875)scale(0.7)" xlink:href="#DejaVuSans-50"/>
      </g>
     </g>
    </g>
    <g id="xtick_3">
     <g id="line2d_3">
      <g>
       <use style="stroke:#000000;stroke-width:0.8;" x="463.99681" xlink:href="#mf51d86f32e" y="256.32"/>
      </g>
     </g>
     <g id="text_3">
      <!-- $\mathdefault{10^{3}}$ -->
      <g transform="translate(455.19681 270.918437)scale(0.1 -0.1)">
       <defs>
        <path d="M 40.578125 39.3125 
Q 47.65625 37.796875 51.625 33 
Q 55.609375 28.21875 55.609375 21.1875 
Q 55.609375 10.40625 48.1875 4.484375 
Q 40.765625 -1.421875 27.09375 -1.421875 
Q 22.515625 -1.421875 17.65625 -0.515625 
Q 12.796875 0.390625 7.625 2.203125 
L 7.625 11.71875 
Q 11.71875 9.328125 16.59375 8.109375 
Q 21.484375 6.890625 26.8125 6.890625 
Q 36.078125 6.890625 40.9375 10.546875 
Q 45.796875 14.203125 45.796875 21.1875 
Q 45.796875 27.640625 41.28125 31.265625 
Q 36.765625 34.90625 28.71875 34.90625 
L 20.21875 34.90625 
L 20.21875 43.015625 
L 29.109375 43.015625 
Q 36.375 43.015625 40.234375 45.921875 
Q 44.09375 48.828125 44.09375 54.296875 
Q 44.09375 59.90625 40.109375 62.90625 
Q 36.140625 65.921875 28.71875 65.921875 
Q 24.65625 65.921875 20.015625 65.03125 
Q 15.375 64.15625 9.8125 62.3125 
L 9.8125 71.09375 
Q 15.4375 72.65625 20.34375 73.4375 
Q 25.25 74.21875 29.59375 74.21875 
Q 40.828125 74.21875 47.359375 69.109375 
Q 53.90625 64.015625 53.90625 55.328125 
Q 53.90625 49.265625 50.4375 45.09375 
Q 46.96875 40.921875 40.578125 39.3125 
z
" id="DejaVuSans-51"/>
       </defs>
       <use transform="translate(0 0.765625)" xlink:href="#DejaVuSans-49"/>
       <use transform="translate(63.623047 0.765625)" xlink:href="#DejaVuSans-48"/>
       <use transform="translate(128.203125 39.046875)scale(0.7)" xlink:href="#DejaVuSans-51"/>
      </g>
     </g>
    </g>
    <g id="xtick_4">
     <g id="line2d_4">
      <defs>
       <path d="M 0 0 
L 0 2 
" id="m86a78cbf58" style="stroke:#000000;stroke-width:0.6;"/>
      </defs>
      <g>
       <use style="stroke:#000000;stroke-width:0.6;" x="82.367541" xlink:href="#m86a78cbf58" y="256.32"/>
      </g>
     </g>
    </g>
    <g id="xtick_5">
     <g id="line2d_5">
      <g>
       <use style="stroke:#000000;stroke-width:0.6;" x="93.866458" xlink:href="#m86a78cbf58" y="256.32"/>
      </g>
     </g>
    </g>
    <g id="xtick_6">
     <g id="line2d_6">
      <g>
       <use style="stroke:#000000;stroke-width:0.6;" x="103.827273" xlink:href="#m86a78cbf58" y="256.32"/>
      </g>
     </g>
    </g>
    <g id="xtick_7">
     <g id="line2d_7">
      <g>
       <use style="stroke:#000000;stroke-width:0.6;" x="112.613334" xlink:href="#m86a78cbf58" y="256.32"/>
      </g>
     </g>
    </g>
    <g id="xtick_8">
     <g id="line2d_8">
      <g>
       <use style="stroke:#000000;stroke-width:0.6;" x="172.17826" xlink:href="#m86a78cbf58" y="256.32"/>
      </g>
     </g>
    </g>
    <g id="xtick_9">
     <g id="line2d_9">
      <g>
       <use style="stroke:#000000;stroke-width:0.6;" x="202.424053" xlink:href="#m86a78cbf58" y="256.32"/>
      </g>
     </g>
    </g>
    <g id="xtick_10">
     <g id="line2d_10">
      <g>
       <use style="stroke:#000000;stroke-width:0.6;" x="223.883785" xlink:href="#m86a78cbf58" y="256.32"/>
      </g>
     </g>
    </g>
    <g id="xtick_11">
     <g id="line2d_11">
      <g>
       <use style="stroke:#000000;stroke-width:0.6;" x="240.529247" xlink:href="#m86a78cbf58" y="256.32"/>
      </g>
     </g>
    </g>
    <g id="xtick_12">
     <g id="line2d_12">
      <g>
       <use style="stroke:#000000;stroke-width:0.6;" x="254.129579" xlink:href="#m86a78cbf58" y="256.32"/>
      </g>
     </g>
    </g>
    <g id="xtick_13">
     <g id="line2d_13">
      <g>
       <use style="stroke:#000000;stroke-width:0.6;" x="265.628496" xlink:href="#m86a78cbf58" y="256.32"/>
      </g>
     </g>
    </g>
    <g id="xtick_14">
     <g id="line2d_14">
      <g>
       <use style="stroke:#000000;stroke-width:0.6;" x="275.589311" xlink:href="#m86a78cbf58" y="256.32"/>
      </g>
     </g>
    </g>
    <g id="xtick_15">
     <g id="line2d_15">
      <g>
       <use style="stroke:#000000;stroke-width:0.6;" x="284.375372" xlink:href="#m86a78cbf58" y="256.32"/>
      </g>
     </g>
    </g>
    <g id="xtick_16">
     <g id="line2d_16">
      <g>
       <use style="stroke:#000000;stroke-width:0.6;" x="343.940298" xlink:href="#m86a78cbf58" y="256.32"/>
      </g>
     </g>
    </g>
    <g id="xtick_17">
     <g id="line2d_17">
      <g>
       <use style="stroke:#000000;stroke-width:0.6;" x="374.186091" xlink:href="#m86a78cbf58" y="256.32"/>
      </g>
     </g>
    </g>
    <g id="xtick_18">
     <g id="line2d_18">
      <g>
       <use style="stroke:#000000;stroke-width:0.6;" x="395.645823" xlink:href="#m86a78cbf58" y="256.32"/>
      </g>
     </g>
    </g>
    <g id="xtick_19">
     <g id="line2d_19">
      <g>
       <use style="stroke:#000000;stroke-width:0.6;" x="412.291285" xlink:href="#m86a78cbf58" y="256.32"/>
      </g>
     </g>
    </g>
    <g id="xtick_20">
     <g id="line2d_20">
      <g>
       <use style="stroke:#000000;stroke-width:0.6;" x="425.891617" xlink:href="#m86a78cbf58" y="256.32"/>
      </g>
     </g>
    </g>
    <g id="xtick_21">
     <g id="line2d_21">
      <g>
       <use style="stroke:#000000;stroke-width:0.6;" x="437.390534" xlink:href="#m86a78cbf58" y="256.32"/>
      </g>
     </g>
    </g>
    <g id="xtick_22">
     <g id="line2d_22">
      <g>
       <use style="stroke:#000000;stroke-width:0.6;" x="447.351349" xlink:href="#m86a78cbf58" y="256.32"/>
      </g>
     </g>
    </g>
    <g id="xtick_23">
     <g id="line2d_23">
      <g>
       <use style="stroke:#000000;stroke-width:0.6;" x="456.13741" xlink:href="#m86a78cbf58" y="256.32"/>
      </g>
     </g>
    </g>
    <g id="xtick_24">
     <g id="line2d_24">
      <g>
       <use style="stroke:#000000;stroke-width:0.6;" x="515.702336" xlink:href="#m86a78cbf58" y="256.32"/>
      </g>
     </g>
    </g>
    <g id="xtick_25">
     <g id="line2d_25">
      <g>
       <use style="stroke:#000000;stroke-width:0.6;" x="545.948129" xlink:href="#m86a78cbf58" y="256.32"/>
      </g>
     </g>
    </g>
    <g id="xtick_26">
     <g id="line2d_26">
      <g>
       <use style="stroke:#000000;stroke-width:0.6;" x="567.407861" xlink:href="#m86a78cbf58" y="256.32"/>
      </g>
     </g>
    </g>
    <g id="text_4">
     <!-- dataset per thread block, kB -->
     <g transform="translate(260.964844 284.596563)scale(0.1 -0.1)">
      <defs>
       <path d="M 45.40625 46.390625 
L 45.40625 75.984375 
L 54.390625 75.984375 
L 54.390625 0 
L 45.40625 0 
L 45.40625 8.203125 
Q 42.578125 3.328125 38.25 0.953125 
Q 33.9375 -1.421875 27.875 -1.421875 
Q 17.96875 -1.421875 11.734375 6.484375 
Q 5.515625 14.40625 5.515625 27.296875 
Q 5.515625 40.1875 11.734375 48.09375 
Q 17.96875 56 27.875 56 
Q 33.9375 56 38.25 53.625 
Q 42.578125 51.265625 45.40625 46.390625 
z
M 14.796875 27.296875 
Q 14.796875 17.390625 18.875 11.75 
Q 22.953125 6.109375 30.078125 6.109375 
Q 37.203125 6.109375 41.296875 11.75 
Q 45.40625 17.390625 45.40625 27.296875 
Q 45.40625 37.203125 41.296875 42.84375 
Q 37.203125 48.484375 30.078125 48.484375 
Q 22.953125 48.484375 18.875 42.84375 
Q 14.796875 37.203125 14.796875 27.296875 
z
" id="DejaVuSans-100"/>
       <path d="M 34.28125 27.484375 
Q 23.390625 27.484375 19.1875 25 
Q 14.984375 22.515625 14.984375 16.5 
Q 14.984375 11.71875 18.140625 8.90625 
Q 21.296875 6.109375 26.703125 6.109375 
Q 34.1875 6.109375 38.703125 11.40625 
Q 43.21875 16.703125 43.21875 25.484375 
L 43.21875 27.484375 
z
M 52.203125 31.203125 
L 52.203125 0 
L 43.21875 0 
L 43.21875 8.296875 
Q 40.140625 3.328125 35.546875 0.953125 
Q 30.953125 -1.421875 24.3125 -1.421875 
Q 15.921875 -1.421875 10.953125 3.296875 
Q 6 8.015625 6 15.921875 
Q 6 25.140625 12.171875 29.828125 
Q 18.359375 34.515625 30.609375 34.515625 
L 43.21875 34.515625 
L 43.21875 35.40625 
Q 43.21875 41.609375 39.140625 45 
Q 35.0625 48.390625 27.6875 48.390625 
Q 23 48.390625 18.546875 47.265625 
Q 14.109375 46.140625 10.015625 43.890625 
L 10.015625 52.203125 
Q 14.9375 54.109375 19.578125 55.046875 
Q 24.21875 56 28.609375 56 
Q 40.484375 56 46.34375 49.84375 
Q 52.203125 43.703125 52.203125 31.203125 
z
" id="DejaVuSans-97"/>
       <path d="M 18.3125 70.21875 
L 18.3125 54.6875 
L 36.8125 54.6875 
L 36.8125 47.703125 
L 18.3125 47.703125 
L 18.3125 18.015625 
Q 18.3125 11.328125 20.140625 9.421875 
Q 21.96875 7.515625 27.59375 7.515625 
L 36.8125 7.515625 
L 36.8125 0 
L 27.59375 0 
Q 17.1875 0 13.234375 3.875 
Q 9.28125 7.765625 9.28125 18.015625 
L 9.28125 47.703125 
L 2.6875 47.703125 
L 2.6875 54.6875 
L 9.28125 54.6875 
L 9.28125 70.21875 
z
" id="DejaVuSans-116"/>
       <path d="M 44.28125 53.078125 
L 44.28125 44.578125 
Q 40.484375 46.53125 36.375 47.5 
Q 32.28125 48.484375 27.875 48.484375 
Q 21.1875 48.484375 17.84375 46.4375 
Q 14.5 44.390625 14.5 40.28125 
Q 14.5 37.15625 16.890625 35.375 
Q 19.28125 33.59375 26.515625 31.984375 
L 29.59375 31.296875 
Q 39.15625 29.25 43.1875 25.515625 
Q 47.21875 21.78125 47.21875 15.09375 
Q 47.21875 7.46875 41.1875 3.015625 
Q 35.15625 -1.421875 24.609375 -1.421875 
Q 20.21875 -1.421875 15.453125 -0.5625 
Q 10.6875 0.296875 5.421875 2 
L 5.421875 11.28125 
Q 10.40625 8.6875 15.234375 7.390625 
Q 20.0625 6.109375 24.8125 6.109375 
Q 31.15625 6.109375 34.5625 8.28125 
Q 37.984375 10.453125 37.984375 14.40625 
Q 37.984375 18.0625 35.515625 20.015625 
Q 33.0625 21.96875 24.703125 23.78125 
L 21.578125 24.515625 
Q 13.234375 26.265625 9.515625 29.90625 
Q 5.8125 33.546875 5.8125 39.890625 
Q 5.8125 47.609375 11.28125 51.796875 
Q 16.75 56 26.8125 56 
Q 31.78125 56 36.171875 55.265625 
Q 40.578125 54.546875 44.28125 53.078125 
z
" id="DejaVuSans-115"/>
       <path d="M 56.203125 29.59375 
L 56.203125 25.203125 
L 14.890625 25.203125 
Q 15.484375 15.921875 20.484375 11.0625 
Q 25.484375 6.203125 34.421875 6.203125 
Q 39.59375 6.203125 44.453125 7.46875 
Q 49.3125 8.734375 54.109375 11.28125 
L 54.109375 2.78125 
Q 49.265625 0.734375 44.1875 -0.34375 
Q 39.109375 -1.421875 33.890625 -1.421875 
Q 20.796875 -1.421875 13.15625 6.1875 
Q 5.515625 13.8125 5.515625 26.8125 
Q 5.515625 40.234375 12.765625 48.109375 
Q 20.015625 56 32.328125 56 
Q 43.359375 56 49.78125 48.890625 
Q 56.203125 41.796875 56.203125 29.59375 
z
M 47.21875 32.234375 
Q 47.125 39.59375 43.09375 43.984375 
Q 39.0625 48.390625 32.421875 48.390625 
Q 24.90625 48.390625 20.390625 44.140625 
Q 15.875 39.890625 15.1875 32.171875 
z
" id="DejaVuSans-101"/>
       <path id="DejaVuSans-32"/>
       <path d="M 18.109375 8.203125 
L 18.109375 -20.796875 
L 9.078125 -20.796875 
L 9.078125 54.6875 
L 18.109375 54.6875 
L 18.109375 46.390625 
Q 20.953125 51.265625 25.265625 53.625 
Q 29.59375 56 35.59375 56 
Q 45.5625 56 51.78125 48.09375 
Q 58.015625 40.1875 58.015625 27.296875 
Q 58.015625 14.40625 51.78125 6.484375 
Q 45.5625 -1.421875 35.59375 -1.421875 
Q 29.59375 -1.421875 25.265625 0.953125 
Q 20.953125 3.328125 18.109375 8.203125 
z
M 48.6875 27.296875 
Q 48.6875 37.203125 44.609375 42.84375 
Q 40.53125 48.484375 33.40625 48.484375 
Q 26.265625 48.484375 22.1875 42.84375 
Q 18.109375 37.203125 18.109375 27.296875 
Q 18.109375 17.390625 22.1875 11.75 
Q 26.265625 6.109375 33.40625 6.109375 
Q 40.53125 6.109375 44.609375 11.75 
Q 48.6875 17.390625 48.6875 27.296875 
z
" id="DejaVuSans-112"/>
       <path d="M 41.109375 46.296875 
Q 39.59375 47.171875 37.8125 47.578125 
Q 36.03125 48 33.890625 48 
Q 26.265625 48 22.1875 43.046875 
Q 18.109375 38.09375 18.109375 28.8125 
L 18.109375 0 
L 9.078125 0 
L 9.078125 54.6875 
L 18.109375 54.6875 
L 18.109375 46.1875 
Q 20.953125 51.171875 25.484375 53.578125 
Q 30.03125 56 36.53125 56 
Q 37.453125 56 38.578125 55.875 
Q 39.703125 55.765625 41.0625 55.515625 
z
" id="DejaVuSans-114"/>
       <path d="M 54.890625 33.015625 
L 54.890625 0 
L 45.90625 0 
L 45.90625 32.71875 
Q 45.90625 40.484375 42.875 44.328125 
Q 39.84375 48.1875 33.796875 48.1875 
Q 26.515625 48.1875 22.3125 43.546875 
Q 18.109375 38.921875 18.109375 30.90625 
L 18.109375 0 
L 9.078125 0 
L 9.078125 75.984375 
L 18.109375 75.984375 
L 18.109375 46.1875 
Q 21.34375 51.125 25.703125 53.5625 
Q 30.078125 56 35.796875 56 
Q 45.21875 56 50.046875 50.171875 
Q 54.890625 44.34375 54.890625 33.015625 
z
" id="DejaVuSans-104"/>
       <path d="M 48.6875 27.296875 
Q 48.6875 37.203125 44.609375 42.84375 
Q 40.53125 48.484375 33.40625 48.484375 
Q 26.265625 48.484375 22.1875 42.84375 
Q 18.109375 37.203125 18.109375 27.296875 
Q 18.109375 17.390625 22.1875 11.75 
Q 26.265625 6.109375 33.40625 6.109375 
Q 40.53125 6.109375 44.609375 11.75 
Q 48.6875 17.390625 48.6875 27.296875 
z
M 18.109375 46.390625 
Q 20.953125 51.265625 25.265625 53.625 
Q 29.59375 56 35.59375 56 
Q 45.5625 56 51.78125 48.09375 
Q 58.015625 40.1875 58.015625 27.296875 
Q 58.015625 14.40625 51.78125 6.484375 
Q 45.5625 -1.421875 35.59375 -1.421875 
Q 29.59375 -1.421875 25.265625 0.953125 
Q 20.953125 3.328125 18.109375 8.203125 
L 18.109375 0 
L 9.078125 0 
L 9.078125 75.984375 
L 18.109375 75.984375 
z
" id="DejaVuSans-98"/>
       <path d="M 9.421875 75.984375 
L 18.40625 75.984375 
L 18.40625 0 
L 9.421875 0 
z
" id="DejaVuSans-108"/>
       <path d="M 30.609375 48.390625 
Q 23.390625 48.390625 19.1875 42.75 
Q 14.984375 37.109375 14.984375 27.296875 
Q 14.984375 17.484375 19.15625 11.84375 
Q 23.34375 6.203125 30.609375 6.203125 
Q 37.796875 6.203125 41.984375 11.859375 
Q 46.1875 17.53125 46.1875 27.296875 
Q 46.1875 37.015625 41.984375 42.703125 
Q 37.796875 48.390625 30.609375 48.390625 
z
M 30.609375 56 
Q 42.328125 56 49.015625 48.375 
Q 55.71875 40.765625 55.71875 27.296875 
Q 55.71875 13.875 49.015625 6.21875 
Q 42.328125 -1.421875 30.609375 -1.421875 
Q 18.84375 -1.421875 12.171875 6.21875 
Q 5.515625 13.875 5.515625 27.296875 
Q 5.515625 40.765625 12.171875 48.375 
Q 18.84375 56 30.609375 56 
z
" id="DejaVuSans-111"/>
       <path d="M 48.78125 52.59375 
L 48.78125 44.1875 
Q 44.96875 46.296875 41.140625 47.34375 
Q 37.3125 48.390625 33.40625 48.390625 
Q 24.65625 48.390625 19.8125 42.84375 
Q 14.984375 37.3125 14.984375 27.296875 
Q 14.984375 17.28125 19.8125 11.734375 
Q 24.65625 6.203125 33.40625 6.203125 
Q 37.3125 6.203125 41.140625 7.25 
Q 44.96875 8.296875 48.78125 10.40625 
L 48.78125 2.09375 
Q 45.015625 0.34375 40.984375 -0.53125 
Q 36.96875 -1.421875 32.421875 -1.421875 
Q 20.0625 -1.421875 12.78125 6.34375 
Q 5.515625 14.109375 5.515625 27.296875 
Q 5.515625 40.671875 12.859375 48.328125 
Q 20.21875 56 33.015625 56 
Q 37.15625 56 41.109375 55.140625 
Q 45.0625 54.296875 48.78125 52.59375 
z
" id="DejaVuSans-99"/>
       <path d="M 9.078125 75.984375 
L 18.109375 75.984375 
L 18.109375 31.109375 
L 44.921875 54.6875 
L 56.390625 54.6875 
L 27.390625 29.109375 
L 57.625 0 
L 45.90625 0 
L 18.109375 26.703125 
L 18.109375 0 
L 9.078125 0 
z
" id="DejaVuSans-107"/>
       <path d="M 11.71875 12.40625 
L 22.015625 12.40625 
L 22.015625 4 
L 14.015625 -11.625 
L 7.71875 -11.625 
L 11.71875 4 
z
" id="DejaVuSans-44"/>
       <path d="M 19.671875 34.8125 
L 19.671875 8.109375 
L 35.5 8.109375 
Q 43.453125 8.109375 47.28125 11.40625 
Q 51.125 14.703125 51.125 21.484375 
Q 51.125 28.328125 47.28125 31.5625 
Q 43.453125 34.8125 35.5 34.8125 
z
M 19.671875 64.796875 
L 19.671875 42.828125 
L 34.28125 42.828125 
Q 41.5 42.828125 45.03125 45.53125 
Q 48.578125 48.25 48.578125 53.8125 
Q 48.578125 59.328125 45.03125 62.0625 
Q 41.5 64.796875 34.28125 64.796875 
z
M 9.8125 72.90625 
L 35.015625 72.90625 
Q 46.296875 72.90625 52.390625 68.21875 
Q 58.5 63.53125 58.5 54.890625 
Q 58.5 48.1875 55.375 44.234375 
Q 52.25 40.28125 46.1875 39.3125 
Q 53.46875 37.75 57.5 32.78125 
Q 61.53125 27.828125 61.53125 20.40625 
Q 61.53125 10.640625 54.890625 5.3125 
Q 48.25 0 35.984375 0 
L 9.8125 0 
z
" id="DejaVuSans-66"/>
      </defs>
      <use xlink:href="#DejaVuSans-100"/>
      <use x="63.476562" xlink:href="#DejaVuSans-97"/>
      <use x="124.755859" xlink:href="#DejaVuSans-116"/>
      <use x="163.964844" xlink:href="#DejaVuSans-97"/>
      <use x="225.244141" xlink:href="#DejaVuSans-115"/>
      <use x="277.34375" xlink:href="#DejaVuSans-101"/>
      <use x="338.867188" xlink:href="#DejaVuSans-116"/>
      <use x="378.076172" xlink:href="#DejaVuSans-32"/>
      <use x="409.863281" xlink:href="#DejaVuSans-112"/>
      <use x="473.339844" xlink:href="#DejaVuSans-101"/>
      <use x="534.863281" xlink:href="#DejaVuSans-114"/>
      <use x="575.976562" xlink:href="#DejaVuSans-32"/>
      <use x="607.763672" xlink:href="#DejaVuSans-116"/>
      <use x="646.972656" xlink:href="#DejaVuSans-104"/>
      <use x="710.351562" xlink:href="#DejaVuSans-114"/>
      <use x="749.214844" xlink:href="#DejaVuSans-101"/>
      <use x="810.738281" xlink:href="#DejaVuSans-97"/>
      <use x="872.017578" xlink:href="#DejaVuSans-100"/>
      <use x="935.494141" xlink:href="#DejaVuSans-32"/>
      <use x="967.28125" xlink:href="#DejaVuSans-98"/>
      <use x="1030.757812" xlink:href="#DejaVuSans-108"/>
      <use x="1058.541016" xlink:href="#DejaVuSans-111"/>
      <use x="1119.722656" xlink:href="#DejaVuSans-99"/>
      <use x="1174.703125" xlink:href="#DejaVuSans-107"/>
      <use x="1232.613281" xlink:href="#DejaVuSans-44"/>
      <use x="1264.400391" xlink:href="#DejaVuSans-32"/>
      <use x="1296.1875" xlink:href="#DejaVuSans-107"/>
      <use x="1354.097656" xlink:href="#DejaVuSans-66"/>
     </g>
    </g>
   </g>
   <g id="matplotlib.axis_2">
    <g id="ytick_1">
     <g id="line2d_27">
      <defs>
       <path d="M 0 0 
L -3.5 0 
" id="med2eecca42" style="stroke:#000000;stroke-width:0.8;"/>
      </defs>
      <g>
       <use style="stroke:#000000;stroke-width:0.8;" x="81" xlink:href="#med2eecca42" y="256.32"/>
      </g>
     </g>
     <g id="text_5">
      <!-- 0 -->
      <g transform="translate(67.6375 260.119219)scale(0.1 -0.1)">
       <use xlink:href="#DejaVuSans-48"/>
      </g>
     </g>
    </g>
    <g id="ytick_2">
     <g id="line2d_28">
      <g>
       <use style="stroke:#000000;stroke-width:0.8;" x="81" xlink:href="#med2eecca42" y="228.813041"/>
      </g>
     </g>
     <g id="text_6">
      <!-- 2500 -->
      <g transform="translate(48.55 232.61226)scale(0.1 -0.1)">
       <defs>
        <path d="M 10.796875 72.90625 
L 49.515625 72.90625 
L 49.515625 64.59375 
L 19.828125 64.59375 
L 19.828125 46.734375 
Q 21.96875 47.46875 24.109375 47.828125 
Q 26.265625 48.1875 28.421875 48.1875 
Q 40.625 48.1875 47.75 41.5 
Q 54.890625 34.8125 54.890625 23.390625 
Q 54.890625 11.625 47.5625 5.09375 
Q 40.234375 -1.421875 26.90625 -1.421875 
Q 22.3125 -1.421875 17.546875 -0.640625 
Q 12.796875 0.140625 7.71875 1.703125 
L 7.71875 11.625 
Q 12.109375 9.234375 16.796875 8.0625 
Q 21.484375 6.890625 26.703125 6.890625 
Q 35.15625 6.890625 40.078125 11.328125 
Q 45.015625 15.765625 45.015625 23.390625 
Q 45.015625 31 40.078125 35.4375 
Q 35.15625 39.890625 26.703125 39.890625 
Q 22.75 39.890625 18.8125 39.015625 
Q 14.890625 38.140625 10.796875 36.28125 
z
" id="DejaVuSans-53"/>
       </defs>
       <use xlink:href="#DejaVuSans-50"/>
       <use x="63.623047" xlink:href="#DejaVuSans-53"/>
       <use x="127.246094" xlink:href="#DejaVuSans-48"/>
       <use x="190.869141" xlink:href="#DejaVuSans-48"/>
      </g>
     </g>
    </g>
    <g id="ytick_3">
     <g id="line2d_29">
      <g>
       <use style="stroke:#000000;stroke-width:0.8;" x="81" xlink:href="#med2eecca42" y="201.306083"/>
      </g>
     </g>
     <g id="text_7">
      <!-- 5000 -->
      <g transform="translate(48.55 205.105302)scale(0.1 -0.1)">
       <use xlink:href="#DejaVuSans-53"/>
       <use x="63.623047" xlink:href="#DejaVuSans-48"/>
       <use x="127.246094" xlink:href="#DejaVuSans-48"/>
       <use x="190.869141" xlink:href="#DejaVuSans-48"/>
      </g>
     </g>
    </g>
    <g id="ytick_4">
     <g id="line2d_30">
      <g>
       <use style="stroke:#000000;stroke-width:0.8;" x="81" xlink:href="#med2eecca42" y="173.799124"/>
      </g>
     </g>
     <g id="text_8">
      <!-- 7500 -->
      <g transform="translate(48.55 177.598343)scale(0.1 -0.1)">
       <defs>
        <path d="M 8.203125 72.90625 
L 55.078125 72.90625 
L 55.078125 68.703125 
L 28.609375 0 
L 18.3125 0 
L 43.21875 64.59375 
L 8.203125 64.59375 
z
" id="DejaVuSans-55"/>
       </defs>
       <use xlink:href="#DejaVuSans-55"/>
       <use x="63.623047" xlink:href="#DejaVuSans-53"/>
       <use x="127.246094" xlink:href="#DejaVuSans-48"/>
       <use x="190.869141" xlink:href="#DejaVuSans-48"/>
      </g>
     </g>
    </g>
    <g id="ytick_5">
     <g id="line2d_31">
      <g>
       <use style="stroke:#000000;stroke-width:0.8;" x="81" xlink:href="#med2eecca42" y="146.292166"/>
      </g>
     </g>
     <g id="text_9">
      <!-- 10000 -->
      <g transform="translate(42.1875 150.091384)scale(0.1 -0.1)">
       <use xlink:href="#DejaVuSans-49"/>
       <use x="63.623047" xlink:href="#DejaVuSans-48"/>
       <use x="127.246094" xlink:href="#DejaVuSans-48"/>
       <use x="190.869141" xlink:href="#DejaVuSans-48"/>
       <use x="254.492188" xlink:href="#DejaVuSans-48"/>
      </g>
     </g>
    </g>
    <g id="ytick_6">
     <g id="line2d_32">
      <g>
       <use style="stroke:#000000;stroke-width:0.8;" x="81" xlink:href="#med2eecca42" y="118.785207"/>
      </g>
     </g>
     <g id="text_10">
      <!-- 12500 -->
      <g transform="translate(42.1875 122.584426)scale(0.1 -0.1)">
       <use xlink:href="#DejaVuSans-49"/>
       <use x="63.623047" xlink:href="#DejaVuSans-50"/>
       <use x="127.246094" xlink:href="#DejaVuSans-53"/>
       <use x="190.869141" xlink:href="#DejaVuSans-48"/>
       <use x="254.492188" xlink:href="#DejaVuSans-48"/>
      </g>
     </g>
    </g>
    <g id="ytick_7">
     <g id="line2d_33">
      <g>
       <use style="stroke:#000000;stroke-width:0.8;" x="81" xlink:href="#med2eecca42" y="91.278248"/>
      </g>
     </g>
     <g id="text_11">
      <!-- 15000 -->
      <g transform="translate(42.1875 95.077467)scale(0.1 -0.1)">
       <use xlink:href="#DejaVuSans-49"/>
       <use x="63.623047" xlink:href="#DejaVuSans-53"/>
       <use x="127.246094" xlink:href="#DejaVuSans-48"/>
       <use x="190.869141" xlink:href="#DejaVuSans-48"/>
       <use x="254.492188" xlink:href="#DejaVuSans-48"/>
      </g>
     </g>
    </g>
    <g id="ytick_8">
     <g id="line2d_34">
      <g>
       <use style="stroke:#000000;stroke-width:0.8;" x="81" xlink:href="#med2eecca42" y="63.77129"/>
      </g>
     </g>
     <g id="text_12">
      <!-- 17500 -->
      <g transform="translate(42.1875 67.570509)scale(0.1 -0.1)">
       <use xlink:href="#DejaVuSans-49"/>
       <use x="63.623047" xlink:href="#DejaVuSans-55"/>
       <use x="127.246094" xlink:href="#DejaVuSans-53"/>
       <use x="190.869141" xlink:href="#DejaVuSans-48"/>
       <use x="254.492188" xlink:href="#DejaVuSans-48"/>
      </g>
     </g>
    </g>
    <g id="ytick_9">
     <g id="line2d_35">
      <g>
       <use style="stroke:#000000;stroke-width:0.8;" x="81" xlink:href="#med2eecca42" y="36.264331"/>
      </g>
     </g>
     <g id="text_13">
      <!-- 20000 -->
      <g transform="translate(42.1875 40.06355)scale(0.1 -0.1)">
       <use xlink:href="#DejaVuSans-50"/>
       <use x="63.623047" xlink:href="#DejaVuSans-48"/>
       <use x="127.246094" xlink:href="#DejaVuSans-48"/>
       <use x="190.869141" xlink:href="#DejaVuSans-48"/>
       <use x="254.492188" xlink:href="#DejaVuSans-48"/>
      </g>
     </g>
    </g>
    <g id="text_14">
     <!-- GB/s -->
     <g transform="translate(36.107813 157.03375)rotate(-90)scale(0.1 -0.1)">
      <defs>
       <path d="M 59.515625 10.40625 
L 59.515625 29.984375 
L 43.40625 29.984375 
L 43.40625 38.09375 
L 69.28125 38.09375 
L 69.28125 6.78125 
Q 63.578125 2.734375 56.6875 0.65625 
Q 49.8125 -1.421875 42 -1.421875 
Q 24.90625 -1.421875 15.25 8.5625 
Q 5.609375 18.5625 5.609375 36.375 
Q 5.609375 54.25 15.25 64.234375 
Q 24.90625 74.21875 42 74.21875 
Q 49.125 74.21875 55.546875 72.453125 
Q 61.96875 70.703125 67.390625 67.28125 
L 67.390625 56.78125 
Q 61.921875 61.421875 55.765625 63.765625 
Q 49.609375 66.109375 42.828125 66.109375 
Q 29.4375 66.109375 22.71875 58.640625 
Q 16.015625 51.171875 16.015625 36.375 
Q 16.015625 21.625 22.71875 14.15625 
Q 29.4375 6.6875 42.828125 6.6875 
Q 48.046875 6.6875 52.140625 7.59375 
Q 56.25 8.5 59.515625 10.40625 
z
" id="DejaVuSans-71"/>
       <path d="M 25.390625 72.90625 
L 33.6875 72.90625 
L 8.296875 -9.28125 
L 0 -9.28125 
z
" id="DejaVuSans-47"/>
      </defs>
      <use xlink:href="#DejaVuSans-71"/>
      <use x="77.490234" xlink:href="#DejaVuSans-66"/>
      <use x="146.09375" xlink:href="#DejaVuSans-47"/>
      <use x="179.785156" xlink:href="#DejaVuSans-115"/>
     </g>
    </g>
   </g>
   <g id="line2d_36">
    <path clip-path="url(#p1021137376)" d="M 103.827273 123.155513 
L 155.532798 109.855348 
L 185.778592 107.896852 
L 207.238324 105.829429 
L 223.883785 104.72585 
L 237.484117 104.004068 
L 248.983034 103.557355 
L 258.943849 103.93585 
L 267.729911 103.693789 
L 275.589311 103.572759 
L 282.699003 103.351603 
L 289.189643 103.283385 
L 295.160453 103.197564 
L 300.68856 103.091937 
L 305.835104 106.103399 
L 310.649375 110.690459 
L 315.171687 119.971307 
L 319.435436 128.881361 
L 323.468597 134.513686 
L 327.294836 150.344491 
L 330.934353 162.896466 
L 334.404528 196.854357 
L 337.720421 219.021664 
L 340.895168 230.324824 
L 343.940298 233.755492 
L 346.865979 232.612303 
L 349.68123 232.221704 
L 352.394086 232.546286 
L 355.011733 232.870868 
L 357.54063 231.17974 
L 359.986597 231.019099 
L 362.354901 231.159935 
L 371.140962 231.791495 
L 382.639879 230.472261 
L 392.600694 232.351537 
L 402.755515 229.771384 
L 414.060426 232.118278 
L 424.890322 229.582136 
L 435.2282 230.023348 
L 445.079235 229.59974 
L 455.805137 232.107275 
L 466.346463 232.162289 
L 476.595848 232.08857 
L 487.371236 232.101773 
L 497.549847 232.085269 
L 508.173736 232.067665 
L 529.053601 231.525228 
L 539.51172 231.537331 
L 549.824082 231.506523 
L 560.372727 231.526328 
" style="fill:none;stroke:#1f77b4;stroke-linecap:square;stroke-width:1.5;"/>
    <defs>
     <path d="M -3 3 
L 3 -3 
M -3 -3 
L 3 3 
" id="m205b9ec2c7" style="stroke:#1f77b4;"/>
    </defs>
    <g clip-path="url(#p1021137376)">
     <use style="fill:#1f77b4;stroke:#1f77b4;" x="103.827273" xlink:href="#m205b9ec2c7" y="123.155513"/>
     <use style="fill:#1f77b4;stroke:#1f77b4;" x="155.532798" xlink:href="#m205b9ec2c7" y="109.855348"/>
     <use style="fill:#1f77b4;stroke:#1f77b4;" x="185.778592" xlink:href="#m205b9ec2c7" y="107.896852"/>
     <use style="fill:#1f77b4;stroke:#1f77b4;" x="207.238324" xlink:href="#m205b9ec2c7" y="105.829429"/>
     <use style="fill:#1f77b4;stroke:#1f77b4;" x="223.883785" xlink:href="#m205b9ec2c7" y="104.72585"/>
     <use style="fill:#1f77b4;stroke:#1f77b4;" x="237.484117" xlink:href="#m205b9ec2c7" y="104.004068"/>
     <use style="fill:#1f77b4;stroke:#1f77b4;" x="248.983034" xlink:href="#m205b9ec2c7" y="103.557355"/>
     <use style="fill:#1f77b4;stroke:#1f77b4;" x="258.943849" xlink:href="#m205b9ec2c7" y="103.93585"/>
     <use style="fill:#1f77b4;stroke:#1f77b4;" x="267.729911" xlink:href="#m205b9ec2c7" y="103.693789"/>
     <use style="fill:#1f77b4;stroke:#1f77b4;" x="275.589311" xlink:href="#m205b9ec2c7" y="103.572759"/>
     <use style="fill:#1f77b4;stroke:#1f77b4;" x="282.699003" xlink:href="#m205b9ec2c7" y="103.351603"/>
     <use style="fill:#1f77b4;stroke:#1f77b4;" x="289.189643" xlink:href="#m205b9ec2c7" y="103.283385"/>
     <use style="fill:#1f77b4;stroke:#1f77b4;" x="295.160453" xlink:href="#m205b9ec2c7" y="103.197564"/>
     <use style="fill:#1f77b4;stroke:#1f77b4;" x="300.68856" xlink:href="#m205b9ec2c7" y="103.091937"/>
     <use style="fill:#1f77b4;stroke:#1f77b4;" x="305.835104" xlink:href="#m205b9ec2c7" y="106.103399"/>
     <use style="fill:#1f77b4;stroke:#1f77b4;" x="310.649375" xlink:href="#m205b9ec2c7" y="110.690459"/>
     <use style="fill:#1f77b4;stroke:#1f77b4;" x="315.171687" xlink:href="#m205b9ec2c7" y="119.971307"/>
     <use style="fill:#1f77b4;stroke:#1f77b4;" x="319.435436" xlink:href="#m205b9ec2c7" y="128.881361"/>
     <use style="fill:#1f77b4;stroke:#1f77b4;" x="323.468597" xlink:href="#m205b9ec2c7" y="134.513686"/>
     <use style="fill:#1f77b4;stroke:#1f77b4;" x="327.294836" xlink:href="#m205b9ec2c7" y="150.344491"/>
     <use style="fill:#1f77b4;stroke:#1f77b4;" x="330.934353" xlink:href="#m205b9ec2c7" y="162.896466"/>
     <use style="fill:#1f77b4;stroke:#1f77b4;" x="334.404528" xlink:href="#m205b9ec2c7" y="196.854357"/>
     <use style="fill:#1f77b4;stroke:#1f77b4;" x="337.720421" xlink:href="#m205b9ec2c7" y="219.021664"/>
     <use style="fill:#1f77b4;stroke:#1f77b4;" x="340.895168" xlink:href="#m205b9ec2c7" y="230.324824"/>
     <use style="fill:#1f77b4;stroke:#1f77b4;" x="343.940298" xlink:href="#m205b9ec2c7" y="233.755492"/>
     <use style="fill:#1f77b4;stroke:#1f77b4;" x="346.865979" xlink:href="#m205b9ec2c7" y="232.612303"/>
     <use style="fill:#1f77b4;stroke:#1f77b4;" x="349.68123" xlink:href="#m205b9ec2c7" y="232.221704"/>
     <use style="fill:#1f77b4;stroke:#1f77b4;" x="352.394086" xlink:href="#m205b9ec2c7" y="232.546286"/>
     <use style="fill:#1f77b4;stroke:#1f77b4;" x="355.011733" xlink:href="#m205b9ec2c7" y="232.870868"/>
     <use style="fill:#1f77b4;stroke:#1f77b4;" x="357.54063" xlink:href="#m205b9ec2c7" y="231.17974"/>
     <use style="fill:#1f77b4;stroke:#1f77b4;" x="359.986597" xlink:href="#m205b9ec2c7" y="231.019099"/>
     <use style="fill:#1f77b4;stroke:#1f77b4;" x="362.354901" xlink:href="#m205b9ec2c7" y="231.159935"/>
     <use style="fill:#1f77b4;stroke:#1f77b4;" x="371.140962" xlink:href="#m205b9ec2c7" y="231.791495"/>
     <use style="fill:#1f77b4;stroke:#1f77b4;" x="382.639879" xlink:href="#m205b9ec2c7" y="230.472261"/>
     <use style="fill:#1f77b4;stroke:#1f77b4;" x="392.600694" xlink:href="#m205b9ec2c7" y="232.351537"/>
     <use style="fill:#1f77b4;stroke:#1f77b4;" x="402.755515" xlink:href="#m205b9ec2c7" y="229.771384"/>
     <use style="fill:#1f77b4;stroke:#1f77b4;" x="414.060426" xlink:href="#m205b9ec2c7" y="232.118278"/>
     <use style="fill:#1f77b4;stroke:#1f77b4;" x="424.890322" xlink:href="#m205b9ec2c7" y="229.582136"/>
     <use style="fill:#1f77b4;stroke:#1f77b4;" x="435.2282" xlink:href="#m205b9ec2c7" y="230.023348"/>
     <use style="fill:#1f77b4;stroke:#1f77b4;" x="445.079235" xlink:href="#m205b9ec2c7" y="229.59974"/>
     <use style="fill:#1f77b4;stroke:#1f77b4;" x="455.805137" xlink:href="#m205b9ec2c7" y="232.107275"/>
     <use style="fill:#1f77b4;stroke:#1f77b4;" x="466.346463" xlink:href="#m205b9ec2c7" y="232.162289"/>
     <use style="fill:#1f77b4;stroke:#1f77b4;" x="476.595848" xlink:href="#m205b9ec2c7" y="232.08857"/>
     <use style="fill:#1f77b4;stroke:#1f77b4;" x="487.371236" xlink:href="#m205b9ec2c7" y="232.101773"/>
     <use style="fill:#1f77b4;stroke:#1f77b4;" x="497.549847" xlink:href="#m205b9ec2c7" y="232.085269"/>
     <use style="fill:#1f77b4;stroke:#1f77b4;" x="508.173736" xlink:href="#m205b9ec2c7" y="232.067665"/>
     <use style="fill:#1f77b4;stroke:#1f77b4;" x="529.053601" xlink:href="#m205b9ec2c7" y="231.525228"/>
     <use style="fill:#1f77b4;stroke:#1f77b4;" x="539.51172" xlink:href="#m205b9ec2c7" y="231.537331"/>
     <use style="fill:#1f77b4;stroke:#1f77b4;" x="549.824082" xlink:href="#m205b9ec2c7" y="231.506523"/>
     <use style="fill:#1f77b4;stroke:#1f77b4;" x="560.372727" xlink:href="#m205b9ec2c7" y="231.526328"/>
    </g>
   </g>
   <g id="line2d_37">
    <path clip-path="url(#p1021137376)" d="M 103.827273 119.50699 
L 155.532798 58.23909 
L 185.778592 60.814842 
L 207.238324 51.036668 
L 223.883785 50.298381 
L 237.484117 49.787852 
L 248.983034 47.465165 
L 258.943849 46.306572 
L 267.729911 46.360485 
L 275.589311 45.370235 
L 282.699003 45.934678 
L 289.189643 44.931224 
L 295.160453 45.078661 
L 300.68856 44.596739 
L 305.835104 44.911419 
L 310.649375 44.180834 
L 315.171687 44.216043 
L 319.435436 44.0455 
L 323.468597 44.163229 
L 327.294836 54.114147 
L 330.934353 55.174815 
L 334.404528 63.585343 
L 337.720421 67.965551 
L 340.895168 84.735993 
L 343.940298 86.02882 
L 346.865979 102.177606 
L 349.68123 146.966636 
L 352.394086 180.515223 
L 355.011733 202.352447 
L 357.54063 207.656889 
L 359.986597 208.834187 
L 362.354901 208.402878 
L 371.140962 205.633478 
L 382.639879 205.216472 
L 392.600694 215.674618 
L 402.755515 202.463576 
L 414.060426 214.172738 
L 424.890322 200.618409 
L 435.2282 200.876974 
L 445.079235 201.608659 
L 455.805137 213.891066 
L 466.346463 213.742529 
L 476.595848 213.749131 
L 487.371236 213.679813 
L 497.549847 213.830551 
L 508.173736 213.717223 
L 529.053601 213.492766 
L 539.51172 213.678713 
L 549.824082 213.445454 
L 560.372727 213.51147 
" style="fill:none;stroke:#ff7f0e;stroke-linecap:square;stroke-width:1.5;"/>
    <defs>
     <path d="M -3 3 
L 3 -3 
M -3 -3 
L 3 3 
" id="m97010f2ddd" style="stroke:#ff7f0e;"/>
    </defs>
    <g clip-path="url(#p1021137376)">
     <use style="fill:#ff7f0e;stroke:#ff7f0e;" x="103.827273" xlink:href="#m97010f2ddd" y="119.50699"/>
     <use style="fill:#ff7f0e;stroke:#ff7f0e;" x="155.532798" xlink:href="#m97010f2ddd" y="58.23909"/>
     <use style="fill:#ff7f0e;stroke:#ff7f0e;" x="185.778592" xlink:href="#m97010f2ddd" y="60.814842"/>
     <use style="fill:#ff7f0e;stroke:#ff7f0e;" x="207.238324" xlink:href="#m97010f2ddd" y="51.036668"/>
     <use style="fill:#ff7f0e;stroke:#ff7f0e;" x="223.883785" xlink:href="#m97010f2ddd" y="50.298381"/>
     <use style="fill:#ff7f0e;stroke:#ff7f0e;" x="237.484117" xlink:href="#m97010f2ddd" y="49.787852"/>
     <use style="fill:#ff7f0e;stroke:#ff7f0e;" x="248.983034" xlink:href="#m97010f2ddd" y="47.465165"/>
     <use style="fill:#ff7f0e;stroke:#ff7f0e;" x="258.943849" xlink:href="#m97010f2ddd" y="46.306572"/>
     <use style="fill:#ff7f0e;stroke:#ff7f0e;" x="267.729911" xlink:href="#m97010f2ddd" y="46.360485"/>
     <use style="fill:#ff7f0e;stroke:#ff7f0e;" x="275.589311" xlink:href="#m97010f2ddd" y="45.370235"/>
     <use style="fill:#ff7f0e;stroke:#ff7f0e;" x="282.699003" xlink:href="#m97010f2ddd" y="45.934678"/>
     <use style="fill:#ff7f0e;stroke:#ff7f0e;" x="289.189643" xlink:href="#m97010f2ddd" y="44.931224"/>
     <use style="fill:#ff7f0e;stroke:#ff7f0e;" x="295.160453" xlink:href="#m97010f2ddd" y="45.078661"/>
     <use style="fill:#ff7f0e;stroke:#ff7f0e;" x="300.68856" xlink:href="#m97010f2ddd" y="44.596739"/>
     <use style="fill:#ff7f0e;stroke:#ff7f0e;" x="305.835104" xlink:href="#m97010f2ddd" y="44.911419"/>
     <use style="fill:#ff7f0e;stroke:#ff7f0e;" x="310.649375" xlink:href="#m97010f2ddd" y="44.180834"/>
     <use style="fill:#ff7f0e;stroke:#ff7f0e;" x="315.171687" xlink:href="#m97010f2ddd" y="44.216043"/>
     <use style="fill:#ff7f0e;stroke:#ff7f0e;" x="319.435436" xlink:href="#m97010f2ddd" y="44.0455"/>
     <use style="fill:#ff7f0e;stroke:#ff7f0e;" x="323.468597" xlink:href="#m97010f2ddd" y="44.163229"/>
     <use style="fill:#ff7f0e;stroke:#ff7f0e;" x="327.294836" xlink:href="#m97010f2ddd" y="54.114147"/>
     <use style="fill:#ff7f0e;stroke:#ff7f0e;" x="330.934353" xlink:href="#m97010f2ddd" y="55.174815"/>
     <use style="fill:#ff7f0e;stroke:#ff7f0e;" x="334.404528" xlink:href="#m97010f2ddd" y="63.585343"/>
     <use style="fill:#ff7f0e;stroke:#ff7f0e;" x="337.720421" xlink:href="#m97010f2ddd" y="67.965551"/>
     <use style="fill:#ff7f0e;stroke:#ff7f0e;" x="340.895168" xlink:href="#m97010f2ddd" y="84.735993"/>
     <use style="fill:#ff7f0e;stroke:#ff7f0e;" x="343.940298" xlink:href="#m97010f2ddd" y="86.02882"/>
     <use style="fill:#ff7f0e;stroke:#ff7f0e;" x="346.865979" xlink:href="#m97010f2ddd" y="102.177606"/>
     <use style="fill:#ff7f0e;stroke:#ff7f0e;" x="349.68123" xlink:href="#m97010f2ddd" y="146.966636"/>
     <use style="fill:#ff7f0e;stroke:#ff7f0e;" x="352.394086" xlink:href="#m97010f2ddd" y="180.515223"/>
     <use style="fill:#ff7f0e;stroke:#ff7f0e;" x="355.011733" xlink:href="#m97010f2ddd" y="202.352447"/>
     <use style="fill:#ff7f0e;stroke:#ff7f0e;" x="357.54063" xlink:href="#m97010f2ddd" y="207.656889"/>
     <use style="fill:#ff7f0e;stroke:#ff7f0e;" x="359.986597" xlink:href="#m97010f2ddd" y="208.834187"/>
     <use style="fill:#ff7f0e;stroke:#ff7f0e;" x="362.354901" xlink:href="#m97010f2ddd" y="208.402878"/>
     <use style="fill:#ff7f0e;stroke:#ff7f0e;" x="371.140962" xlink:href="#m97010f2ddd" y="205.633478"/>
     <use style="fill:#ff7f0e;stroke:#ff7f0e;" x="382.639879" xlink:href="#m97010f2ddd" y="205.216472"/>
     <use style="fill:#ff7f0e;stroke:#ff7f0e;" x="392.600694" xlink:href="#m97010f2ddd" y="215.674618"/>
     <use style="fill:#ff7f0e;stroke:#ff7f0e;" x="402.755515" xlink:href="#m97010f2ddd" y="202.463576"/>
     <use style="fill:#ff7f0e;stroke:#ff7f0e;" x="414.060426" xlink:href="#m97010f2ddd" y="214.172738"/>
     <use style="fill:#ff7f0e;stroke:#ff7f0e;" x="424.890322" xlink:href="#m97010f2ddd" y="200.618409"/>
     <use style="fill:#ff7f0e;stroke:#ff7f0e;" x="435.2282" xlink:href="#m97010f2ddd" y="200.876974"/>
     <use style="fill:#ff7f0e;stroke:#ff7f0e;" x="445.079235" xlink:href="#m97010f2ddd" y="201.608659"/>
     <use style="fill:#ff7f0e;stroke:#ff7f0e;" x="455.805137" xlink:href="#m97010f2ddd" y="213.891066"/>
     <use style="fill:#ff7f0e;stroke:#ff7f0e;" x="466.346463" xlink:href="#m97010f2ddd" y="213.742529"/>
     <use style="fill:#ff7f0e;stroke:#ff7f0e;" x="476.595848" xlink:href="#m97010f2ddd" y="213.749131"/>
     <use style="fill:#ff7f0e;stroke:#ff7f0e;" x="487.371236" xlink:href="#m97010f2ddd" y="213.679813"/>
     <use style="fill:#ff7f0e;stroke:#ff7f0e;" x="497.549847" xlink:href="#m97010f2ddd" y="213.830551"/>
     <use style="fill:#ff7f0e;stroke:#ff7f0e;" x="508.173736" xlink:href="#m97010f2ddd" y="213.717223"/>
     <use style="fill:#ff7f0e;stroke:#ff7f0e;" x="529.053601" xlink:href="#m97010f2ddd" y="213.492766"/>
     <use style="fill:#ff7f0e;stroke:#ff7f0e;" x="539.51172" xlink:href="#m97010f2ddd" y="213.678713"/>
     <use style="fill:#ff7f0e;stroke:#ff7f0e;" x="549.824082" xlink:href="#m97010f2ddd" y="213.445454"/>
     <use style="fill:#ff7f0e;stroke:#ff7f0e;" x="560.372727" xlink:href="#m97010f2ddd" y="213.51147"/>
    </g>
   </g>
   <g id="patch_3">
    <path d="M 81 256.32 
L 81 34.56 
" style="fill:none;stroke:#000000;stroke-linecap:square;stroke-linejoin:miter;stroke-width:0.8;"/>
   </g>
   <g id="patch_4">
    <path d="M 583.2 256.32 
L 583.2 34.56 
" style="fill:none;stroke:#000000;stroke-linecap:square;stroke-linejoin:miter;stroke-width:0.8;"/>
   </g>
   <g id="patch_5">
    <path d="M 81 256.32 
L 583.2 256.32 
" style="fill:none;stroke:#000000;stroke-linecap:square;stroke-linejoin:miter;stroke-width:0.8;"/>
   </g>
   <g id="patch_6">
    <path d="M 81 34.56 
L 583.2 34.56 
" style="fill:none;stroke:#000000;stroke-linecap:square;stroke-linejoin:miter;stroke-width:0.8;"/>
   </g>
   <g id="legend_1">
    <g id="patch_7">
     <path d="M 501.334375 71.91625 
L 576.2 71.91625 
Q 578.2 71.91625 578.2 69.91625 
L 578.2 41.56 
Q 578.2 39.56 576.2 39.56 
L 501.334375 39.56 
Q 499.334375 39.56 499.334375 41.56 
L 499.334375 69.91625 
Q 499.334375 71.91625 501.334375 71.91625 
z
" style="fill:#ffffff;opacity:0.8;stroke:#cccccc;stroke-linejoin:miter;"/>
    </g>
    <g id="line2d_38">
     <path d="M 503.334375 47.658437 
L 523.334375 47.658437 
" style="fill:none;stroke:#1f77b4;stroke-linecap:square;stroke-width:1.5;"/>
    </g>
    <g id="line2d_39">
     <g>
      <use style="fill:#1f77b4;stroke:#1f77b4;" x="513.334375" xlink:href="#m205b9ec2c7" y="47.658437"/>
     </g>
    </g>
    <g id="text_15">
     <!-- V100.txt -->
     <g transform="translate(531.334375 51.158437)scale(0.1 -0.1)">
      <defs>
       <path d="M 28.609375 0 
L 0.78125 72.90625 
L 11.078125 72.90625 
L 34.1875 11.53125 
L 57.328125 72.90625 
L 67.578125 72.90625 
L 39.796875 0 
z
" id="DejaVuSans-86"/>
       <path d="M 10.6875 12.40625 
L 21 12.40625 
L 21 0 
L 10.6875 0 
z
" id="DejaVuSans-46"/>
       <path d="M 54.890625 54.6875 
L 35.109375 28.078125 
L 55.90625 0 
L 45.3125 0 
L 29.390625 21.484375 
L 13.484375 0 
L 2.875 0 
L 24.125 28.609375 
L 4.6875 54.6875 
L 15.28125 54.6875 
L 29.78125 35.203125 
L 44.28125 54.6875 
z
" id="DejaVuSans-120"/>
      </defs>
      <use xlink:href="#DejaVuSans-86"/>
      <use x="68.408203" xlink:href="#DejaVuSans-49"/>
      <use x="132.03125" xlink:href="#DejaVuSans-48"/>
      <use x="195.654297" xlink:href="#DejaVuSans-48"/>
      <use x="259.277344" xlink:href="#DejaVuSans-46"/>
      <use x="291.064453" xlink:href="#DejaVuSans-116"/>
      <use x="330.273438" xlink:href="#DejaVuSans-120"/>
      <use x="389.453125" xlink:href="#DejaVuSans-116"/>
     </g>
    </g>
    <g id="line2d_40">
     <path d="M 503.334375 62.336562 
L 523.334375 62.336562 
" style="fill:none;stroke:#ff7f0e;stroke-linecap:square;stroke-width:1.5;"/>
    </g>
    <g id="line2d_41">
     <g>
      <use style="fill:#ff7f0e;stroke:#ff7f0e;" x="513.334375" xlink:href="#m97010f2ddd" y="62.336562"/>
     </g>
    </g>
    <g id="text_16">
     <!-- A100.txt -->
     <g transform="translate(531.334375 65.836562)scale(0.1 -0.1)">
      <defs>
       <path d="M 34.1875 63.1875 
L 20.796875 26.90625 
L 47.609375 26.90625 
z
M 28.609375 72.90625 
L 39.796875 72.90625 
L 67.578125 0 
L 57.328125 0 
L 50.6875 18.703125 
L 17.828125 18.703125 
L 11.1875 0 
L 0.78125 0 
z
" id="DejaVuSans-65"/>
      </defs>
      <use xlink:href="#DejaVuSans-65"/>
      <use x="68.408203" xlink:href="#DejaVuSans-49"/>
      <use x="132.03125" xlink:href="#DejaVuSans-48"/>
      <use x="195.654297" xlink:href="#DejaVuSans-48"/>
      <use x="259.277344" xlink:href="#DejaVuSans-46"/>
      <use x="291.064453" xlink:href="#DejaVuSans-116"/>
      <use x="330.273438" xlink:href="#DejaVuSans-120"/>
      <use x="389.453125" xlink:href="#DejaVuSans-116"/>
     </g>
    </g>
   </g>
  </g>
 </g>
 <defs>
  <clipPath id="p1021137376">
   <rect height="221.76" width="502.2" x="81" y="34.56"/>
  </clipPath>
 </defs>
</svg>
