<?xml version="1.0" encoding="utf-8" standalone="no"?>
<!DOCTYPE svg PUBLIC "-//W3C//DTD SVG 1.1//EN"
  "http://www.w3.org/Graphics/SVG/1.1/DTD/svg11.dtd">
<svg xmlns:xlink="http://www.w3.org/1999/xlink" width="576pt" height="288pt" viewBox="0 0 576 288" xmlns="http://www.w3.org/2000/svg" version="1.1">
 <metadata>
  <rdf:RDF xmlns:dc="http://purl.org/dc/elements/1.1/" xmlns:cc="http://creativecommons.org/ns#" xmlns:rdf="http://www.w3.org/1999/02/22-rdf-syntax-ns#">
   <cc:Work>
    <dc:type rdf:resource="http://purl.org/dc/dcmitype/StillImage"/>
    <dc:date>2023-01-23T17:46:07.686861</dc:date>
    <dc:format>image/svg+xml</dc:format>
    <dc:creator>
     <cc:Agent>
      <dc:title>Matplotlib v3.6.2, https://matplotlib.org/</dc:title>
     </cc:Agent>
    </dc:creator>
   </cc:Work>
  </rdf:RDF>
 </metadata>
 <defs>
  <style type="text/css">*{stroke-linejoin: round; stroke-linecap: butt}</style>
 </defs>
 <g id="figure_1">
  <g id="patch_1">
   <path d="M 0 288 
L 576 288 
L 576 0 
L 0 0 
z
" style="fill: #ffffff"/>
  </g>
  <g id="axes_1">
   <g id="patch_2">
    <path d="M 51.77 260.12 
L 565.2 260.12 
L 565.2 10.8 
L 51.77 10.8 
z
" style="fill: #e5e5e5"/>
   </g>
   <g id="matplotlib.axis_1">
    <g id="xtick_1">
     <g id="line2d_1">
      <path d="M 104.483887 260.12 
L 104.483887 10.8 
" clip-path="url(#p9ecad6963b)" style="fill: none; stroke: #ffffff; stroke-width: 0.8; stroke-linecap: square"/>
     </g>
     <g id="line2d_2">
      <defs>
       <path id="m03b5c84243" d="M 0 0 
L 0 3.5 
" style="stroke: #555555; stroke-width: 0.8"/>
      </defs>
      <g>
       <use xlink:href="#m03b5c84243" x="104.483887" y="260.12" style="fill: #555555; stroke: #555555; stroke-width: 0.8"/>
      </g>
     </g>
     <g id="text_1">
      <!-- V100 -->
      <g style="fill: #555555" transform="translate(91.519825 274.718437) scale(0.1 -0.1)">
       <defs>
        <path id="DejaVuSans-56" d="M 1831 0 
L 50 4666 
L 709 4666 
L 2188 738 
L 3669 4666 
L 4325 4666 
L 2547 0 
L 1831 0 
z
" transform="scale(0.015625)"/>
        <path id="DejaVuSans-31" d="M 794 531 
L 1825 531 
L 1825 4091 
L 703 3866 
L 703 4441 
L 1819 4666 
L 2450 4666 
L 2450 531 
L 3481 531 
L 3481 0 
L 794 0 
L 794 531 
z
" transform="scale(0.015625)"/>
        <path id="DejaVuSans-30" d="M 2034 4250 
Q 1547 4250 1301 3770 
Q 1056 3291 1056 2328 
Q 1056 1369 1301 889 
Q 1547 409 2034 409 
Q 2525 409 2770 889 
Q 3016 1369 3016 2328 
Q 3016 3291 2770 3770 
Q 2525 4250 2034 4250 
z
M 2034 4750 
Q 2819 4750 3233 4129 
Q 3647 3509 3647 2328 
Q 3647 1150 3233 529 
Q 2819 -91 2034 -91 
Q 1250 -91 836 529 
Q 422 1150 422 2328 
Q 422 3509 836 4129 
Q 1250 4750 2034 4750 
z
" transform="scale(0.015625)"/>
       </defs>
       <use xlink:href="#DejaVuSans-56"/>
       <use xlink:href="#DejaVuSans-31" x="68.408203"/>
       <use xlink:href="#DejaVuSans-30" x="132.03125"/>
       <use xlink:href="#DejaVuSans-30" x="195.654297"/>
      </g>
     </g>
    </g>
    <g id="xtick_2">
     <g id="line2d_3">
      <path d="M 186.084332 260.12 
L 186.084332 10.8 
" clip-path="url(#p9ecad6963b)" style="fill: none; stroke: #ffffff; stroke-width: 0.8; stroke-linecap: square"/>
     </g>
     <g id="line2d_4">
      <g>
       <use xlink:href="#m03b5c84243" x="186.084332" y="260.12" style="fill: #555555; stroke: #555555; stroke-width: 0.8"/>
      </g>
     </g>
     <g id="text_2">
      <!-- A100_40 -->
      <g style="fill: #555555" transform="translate(164.25777 274.541875) scale(0.1 -0.1)">
       <defs>
        <path id="DejaVuSans-41" d="M 2188 4044 
L 1331 1722 
L 3047 1722 
L 2188 4044 
z
M 1831 4666 
L 2547 4666 
L 4325 0 
L 3669 0 
L 3244 1197 
L 1141 1197 
L 716 0 
L 50 0 
L 1831 4666 
z
" transform="scale(0.015625)"/>
        <path id="DejaVuSans-5f" d="M 3263 -1063 
L 3263 -1509 
L -63 -1509 
L -63 -1063 
L 3263 -1063 
z
" transform="scale(0.015625)"/>
        <path id="DejaVuSans-34" d="M 2419 4116 
L 825 1625 
L 2419 1625 
L 2419 4116 
z
M 2253 4666 
L 3047 4666 
L 3047 1625 
L 3713 1625 
L 3713 1100 
L 3047 1100 
L 3047 0 
L 2419 0 
L 2419 1100 
L 313 1100 
L 313 1709 
L 2253 4666 
z
" transform="scale(0.015625)"/>
       </defs>
       <use xlink:href="#DejaVuSans-41"/>
       <use xlink:href="#DejaVuSans-31" x="68.408203"/>
       <use xlink:href="#DejaVuSans-30" x="132.03125"/>
       <use xlink:href="#DejaVuSans-30" x="195.654297"/>
       <use xlink:href="#DejaVuSans-5f" x="259.277344"/>
       <use xlink:href="#DejaVuSans-34" x="309.277344"/>
       <use xlink:href="#DejaVuSans-30" x="372.900391"/>
      </g>
     </g>
    </g>
    <g id="xtick_3">
     <g id="line2d_5">
      <path d="M 267.684777 260.12 
L 267.684777 10.8 
" clip-path="url(#p9ecad6963b)" style="fill: none; stroke: #ffffff; stroke-width: 0.8; stroke-linecap: square"/>
     </g>
     <g id="line2d_6">
      <g>
       <use xlink:href="#m03b5c84243" x="267.684777" y="260.12" style="fill: #555555; stroke: #555555; stroke-width: 0.8"/>
      </g>
     </g>
     <g id="text_3">
      <!-- A100_80 -->
      <g style="fill: #555555" transform="translate(245.858215 274.541875) scale(0.1 -0.1)">
       <defs>
        <path id="DejaVuSans-38" d="M 2034 2216 
Q 1584 2216 1326 1975 
Q 1069 1734 1069 1313 
Q 1069 891 1326 650 
Q 1584 409 2034 409 
Q 2484 409 2743 651 
Q 3003 894 3003 1313 
Q 3003 1734 2745 1975 
Q 2488 2216 2034 2216 
z
M 1403 2484 
Q 997 2584 770 2862 
Q 544 3141 544 3541 
Q 544 4100 942 4425 
Q 1341 4750 2034 4750 
Q 2731 4750 3128 4425 
Q 3525 4100 3525 3541 
Q 3525 3141 3298 2862 
Q 3072 2584 2669 2484 
Q 3125 2378 3379 2068 
Q 3634 1759 3634 1313 
Q 3634 634 3220 271 
Q 2806 -91 2034 -91 
Q 1263 -91 848 271 
Q 434 634 434 1313 
Q 434 1759 690 2068 
Q 947 2378 1403 2484 
z
M 1172 3481 
Q 1172 3119 1398 2916 
Q 1625 2713 2034 2713 
Q 2441 2713 2670 2916 
Q 2900 3119 2900 3481 
Q 2900 3844 2670 4047 
Q 2441 4250 2034 4250 
Q 1625 4250 1398 4047 
Q 1172 3844 1172 3481 
z
" transform="scale(0.015625)"/>
       </defs>
       <use xlink:href="#DejaVuSans-41"/>
       <use xlink:href="#DejaVuSans-31" x="68.408203"/>
       <use xlink:href="#DejaVuSans-30" x="132.03125"/>
       <use xlink:href="#DejaVuSans-30" x="195.654297"/>
       <use xlink:href="#DejaVuSans-5f" x="259.277344"/>
       <use xlink:href="#DejaVuSans-38" x="309.277344"/>
       <use xlink:href="#DejaVuSans-30" x="372.900391"/>
      </g>
     </g>
    </g>
    <g id="xtick_4">
     <g id="line2d_7">
      <path d="M 349.285223 260.12 
L 349.285223 10.8 
" clip-path="url(#p9ecad6963b)" style="fill: none; stroke: #ffffff; stroke-width: 0.8; stroke-linecap: square"/>
     </g>
     <g id="line2d_8">
      <g>
       <use xlink:href="#m03b5c84243" x="349.285223" y="260.12" style="fill: #555555; stroke: #555555; stroke-width: 0.8"/>
      </g>
     </g>
     <g id="text_4">
      <!-- H100_PCIE -->
      <g style="fill: #555555" transform="translate(322.340691 274.541875) scale(0.1 -0.1)">
       <defs>
        <path id="DejaVuSans-48" d="M 628 4666 
L 1259 4666 
L 1259 2753 
L 3553 2753 
L 3553 4666 
L 4184 4666 
L 4184 0 
L 3553 0 
L 3553 2222 
L 1259 2222 
L 1259 0 
L 628 0 
L 628 4666 
z
" transform="scale(0.015625)"/>
        <path id="DejaVuSans-50" d="M 1259 4147 
L 1259 2394 
L 2053 2394 
Q 2494 2394 2734 2622 
Q 2975 2850 2975 3272 
Q 2975 3691 2734 3919 
Q 2494 4147 2053 4147 
L 1259 4147 
z
M 628 4666 
L 2053 4666 
Q 2838 4666 3239 4311 
Q 3641 3956 3641 3272 
Q 3641 2581 3239 2228 
Q 2838 1875 2053 1875 
L 1259 1875 
L 1259 0 
L 628 0 
L 628 4666 
z
" transform="scale(0.015625)"/>
        <path id="DejaVuSans-43" d="M 4122 4306 
L 4122 3641 
Q 3803 3938 3442 4084 
Q 3081 4231 2675 4231 
Q 1875 4231 1450 3742 
Q 1025 3253 1025 2328 
Q 1025 1406 1450 917 
Q 1875 428 2675 428 
Q 3081 428 3442 575 
Q 3803 722 4122 1019 
L 4122 359 
Q 3791 134 3420 21 
Q 3050 -91 2638 -91 
Q 1578 -91 968 557 
Q 359 1206 359 2328 
Q 359 3453 968 4101 
Q 1578 4750 2638 4750 
Q 3056 4750 3426 4639 
Q 3797 4528 4122 4306 
z
" transform="scale(0.015625)"/>
        <path id="DejaVuSans-49" d="M 628 4666 
L 1259 4666 
L 1259 0 
L 628 0 
L 628 4666 
z
" transform="scale(0.015625)"/>
        <path id="DejaVuSans-45" d="M 628 4666 
L 3578 4666 
L 3578 4134 
L 1259 4134 
L 1259 2753 
L 3481 2753 
L 3481 2222 
L 1259 2222 
L 1259 531 
L 3634 531 
L 3634 0 
L 628 0 
L 628 4666 
z
" transform="scale(0.015625)"/>
       </defs>
       <use xlink:href="#DejaVuSans-48"/>
       <use xlink:href="#DejaVuSans-31" x="75.195312"/>
       <use xlink:href="#DejaVuSans-30" x="138.818359"/>
       <use xlink:href="#DejaVuSans-30" x="202.441406"/>
       <use xlink:href="#DejaVuSans-5f" x="266.064453"/>
       <use xlink:href="#DejaVuSans-50" x="316.064453"/>
       <use xlink:href="#DejaVuSans-43" x="376.367188"/>
       <use xlink:href="#DejaVuSans-49" x="446.191406"/>
       <use xlink:href="#DejaVuSans-45" x="475.683594"/>
      </g>
     </g>
    </g>
    <g id="xtick_5">
     <g id="line2d_9">
      <path d="M 430.885668 260.12 
L 430.885668 10.8 
" clip-path="url(#p9ecad6963b)" style="fill: none; stroke: #ffffff; stroke-width: 0.8; stroke-linecap: square"/>
     </g>
     <g id="line2d_10">
      <g>
       <use xlink:href="#m03b5c84243" x="430.885668" y="260.12" style="fill: #555555; stroke: #555555; stroke-width: 0.8"/>
      </g>
     </g>
     <g id="text_5">
      <!-- MI100 -->
      <g style="fill: #555555" transform="translate(415.552855 274.718437) scale(0.1 -0.1)">
       <defs>
        <path id="DejaVuSans-4d" d="M 628 4666 
L 1569 4666 
L 2759 1491 
L 3956 4666 
L 4897 4666 
L 4897 0 
L 4281 0 
L 4281 4097 
L 3078 897 
L 2444 897 
L 1241 4097 
L 1241 0 
L 628 0 
L 628 4666 
z
" transform="scale(0.015625)"/>
       </defs>
       <use xlink:href="#DejaVuSans-4d"/>
       <use xlink:href="#DejaVuSans-49" x="86.279297"/>
       <use xlink:href="#DejaVuSans-31" x="115.771484"/>
       <use xlink:href="#DejaVuSans-30" x="179.394531"/>
       <use xlink:href="#DejaVuSans-30" x="243.017578"/>
      </g>
     </g>
    </g>
    <g id="xtick_6">
     <g id="line2d_11">
      <path d="M 512.486113 260.12 
L 512.486113 10.8 
" clip-path="url(#p9ecad6963b)" style="fill: none; stroke: #ffffff; stroke-width: 0.8; stroke-linecap: square"/>
     </g>
     <g id="line2d_12">
      <g>
       <use xlink:href="#m03b5c84243" x="512.486113" y="260.12" style="fill: #555555; stroke: #555555; stroke-width: 0.8"/>
      </g>
     </g>
     <g id="text_6">
      <!-- MI210 -->
      <g style="fill: #555555" transform="translate(497.1533 274.718437) scale(0.1 -0.1)">
       <defs>
        <path id="DejaVuSans-32" d="M 1228 531 
L 3431 531 
L 3431 0 
L 469 0 
L 469 531 
Q 828 903 1448 1529 
Q 2069 2156 2228 2338 
Q 2531 2678 2651 2914 
Q 2772 3150 2772 3378 
Q 2772 3750 2511 3984 
Q 2250 4219 1831 4219 
Q 1534 4219 1204 4116 
Q 875 4013 500 3803 
L 500 4441 
Q 881 4594 1212 4672 
Q 1544 4750 1819 4750 
Q 2544 4750 2975 4387 
Q 3406 4025 3406 3419 
Q 3406 3131 3298 2873 
Q 3191 2616 2906 2266 
Q 2828 2175 2409 1742 
Q 1991 1309 1228 531 
z
" transform="scale(0.015625)"/>
       </defs>
       <use xlink:href="#DejaVuSans-4d"/>
       <use xlink:href="#DejaVuSans-49" x="86.279297"/>
       <use xlink:href="#DejaVuSans-32" x="115.771484"/>
       <use xlink:href="#DejaVuSans-31" x="179.394531"/>
       <use xlink:href="#DejaVuSans-30" x="243.017578"/>
      </g>
     </g>
    </g>
   </g>
   <g id="matplotlib.axis_2">
    <g id="ytick_1">
     <g id="line2d_13">
      <path d="M 51.77 260.12 
L 565.2 260.12 
" clip-path="url(#p9ecad6963b)" style="fill: none; stroke: #ffffff; stroke-width: 0.8; stroke-linecap: square"/>
     </g>
     <g id="line2d_14">
      <defs>
       <path id="mf6660d624e" d="M 0 0 
L -3.5 0 
" style="stroke: #555555; stroke-width: 0.8"/>
      </defs>
      <g>
       <use xlink:href="#mf6660d624e" x="51.77" y="260.12" style="fill: #555555; stroke: #555555; stroke-width: 0.8"/>
      </g>
     </g>
     <g id="text_7">
      <!-- 0 -->
      <g style="fill: #555555" transform="translate(38.4075 263.919219) scale(0.1 -0.1)">
       <use xlink:href="#DejaVuSans-30"/>
      </g>
     </g>
    </g>
    <g id="ytick_2">
     <g id="line2d_15">
      <path d="M 51.77 213.378343 
L 565.2 213.378343 
" clip-path="url(#p9ecad6963b)" style="fill: none; stroke: #ffffff; stroke-width: 0.8; stroke-linecap: square"/>
     </g>
     <g id="line2d_16">
      <g>
       <use xlink:href="#mf6660d624e" x="51.77" y="213.378343" style="fill: #555555; stroke: #555555; stroke-width: 0.8"/>
      </g>
     </g>
     <g id="text_8">
      <!-- 50 -->
      <g style="fill: #555555" transform="translate(32.045 217.177561) scale(0.1 -0.1)">
       <defs>
        <path id="DejaVuSans-35" d="M 691 4666 
L 3169 4666 
L 3169 4134 
L 1269 4134 
L 1269 2991 
Q 1406 3038 1543 3061 
Q 1681 3084 1819 3084 
Q 2600 3084 3056 2656 
Q 3513 2228 3513 1497 
Q 3513 744 3044 326 
Q 2575 -91 1722 -91 
Q 1428 -91 1123 -41 
Q 819 9 494 109 
L 494 744 
Q 775 591 1075 516 
Q 1375 441 1709 441 
Q 2250 441 2565 725 
Q 2881 1009 2881 1497 
Q 2881 1984 2565 2268 
Q 2250 2553 1709 2553 
Q 1456 2553 1204 2497 
Q 953 2441 691 2322 
L 691 4666 
z
" transform="scale(0.015625)"/>
       </defs>
       <use xlink:href="#DejaVuSans-35"/>
       <use xlink:href="#DejaVuSans-30" x="63.623047"/>
      </g>
     </g>
    </g>
    <g id="ytick_3">
     <g id="line2d_17">
      <path d="M 51.77 166.636685 
L 565.2 166.636685 
" clip-path="url(#p9ecad6963b)" style="fill: none; stroke: #ffffff; stroke-width: 0.8; stroke-linecap: square"/>
     </g>
     <g id="line2d_18">
      <g>
       <use xlink:href="#mf6660d624e" x="51.77" y="166.636685" style="fill: #555555; stroke: #555555; stroke-width: 0.8"/>
      </g>
     </g>
     <g id="text_9">
      <!-- 100 -->
      <g style="fill: #555555" transform="translate(25.6825 170.435904) scale(0.1 -0.1)">
       <use xlink:href="#DejaVuSans-31"/>
       <use xlink:href="#DejaVuSans-30" x="63.623047"/>
       <use xlink:href="#DejaVuSans-30" x="127.246094"/>
      </g>
     </g>
    </g>
    <g id="ytick_4">
     <g id="line2d_19">
      <path d="M 51.77 119.895028 
L 565.2 119.895028 
" clip-path="url(#p9ecad6963b)" style="fill: none; stroke: #ffffff; stroke-width: 0.8; stroke-linecap: square"/>
     </g>
     <g id="line2d_20">
      <g>
       <use xlink:href="#mf6660d624e" x="51.77" y="119.895028" style="fill: #555555; stroke: #555555; stroke-width: 0.8"/>
      </g>
     </g>
     <g id="text_10">
      <!-- 150 -->
      <g style="fill: #555555" transform="translate(25.6825 123.694247) scale(0.1 -0.1)">
       <use xlink:href="#DejaVuSans-31"/>
       <use xlink:href="#DejaVuSans-35" x="63.623047"/>
       <use xlink:href="#DejaVuSans-30" x="127.246094"/>
      </g>
     </g>
    </g>
    <g id="ytick_5">
     <g id="line2d_21">
      <path d="M 51.77 73.153371 
L 565.2 73.153371 
" clip-path="url(#p9ecad6963b)" style="fill: none; stroke: #ffffff; stroke-width: 0.8; stroke-linecap: square"/>
     </g>
     <g id="line2d_22">
      <g>
       <use xlink:href="#mf6660d624e" x="51.77" y="73.153371" style="fill: #555555; stroke: #555555; stroke-width: 0.8"/>
      </g>
     </g>
     <g id="text_11">
      <!-- 200 -->
      <g style="fill: #555555" transform="translate(25.6825 76.95259) scale(0.1 -0.1)">
       <use xlink:href="#DejaVuSans-32"/>
       <use xlink:href="#DejaVuSans-30" x="63.623047"/>
       <use xlink:href="#DejaVuSans-30" x="127.246094"/>
      </g>
     </g>
    </g>
    <g id="ytick_6">
     <g id="line2d_23">
      <path d="M 51.77 26.411714 
L 565.2 26.411714 
" clip-path="url(#p9ecad6963b)" style="fill: none; stroke: #ffffff; stroke-width: 0.8; stroke-linecap: square"/>
     </g>
     <g id="line2d_24">
      <g>
       <use xlink:href="#mf6660d624e" x="51.77" y="26.411714" style="fill: #555555; stroke: #555555; stroke-width: 0.8"/>
      </g>
     </g>
     <g id="text_12">
      <!-- 250 -->
      <g style="fill: #555555" transform="translate(25.6825 30.210932) scale(0.1 -0.1)">
       <use xlink:href="#DejaVuSans-32"/>
       <use xlink:href="#DejaVuSans-35" x="63.623047"/>
       <use xlink:href="#DejaVuSans-30" x="127.246094"/>
      </g>
     </g>
    </g>
    <g id="text_13">
     <!-- GB/s -->
     <g style="fill: #555555" transform="translate(19.186875 149.3725) rotate(-90) scale(0.12 -0.12)">
      <defs>
       <path id="DejaVuSans-47" d="M 3809 666 
L 3809 1919 
L 2778 1919 
L 2778 2438 
L 4434 2438 
L 4434 434 
Q 4069 175 3628 42 
Q 3188 -91 2688 -91 
Q 1594 -91 976 548 
Q 359 1188 359 2328 
Q 359 3472 976 4111 
Q 1594 4750 2688 4750 
Q 3144 4750 3555 4637 
Q 3966 4525 4313 4306 
L 4313 3634 
Q 3963 3931 3569 4081 
Q 3175 4231 2741 4231 
Q 1884 4231 1454 3753 
Q 1025 3275 1025 2328 
Q 1025 1384 1454 906 
Q 1884 428 2741 428 
Q 3075 428 3337 486 
Q 3600 544 3809 666 
z
" transform="scale(0.015625)"/>
       <path id="DejaVuSans-42" d="M 1259 2228 
L 1259 519 
L 2272 519 
Q 2781 519 3026 730 
Q 3272 941 3272 1375 
Q 3272 1813 3026 2020 
Q 2781 2228 2272 2228 
L 1259 2228 
z
M 1259 4147 
L 1259 2741 
L 2194 2741 
Q 2656 2741 2882 2914 
Q 3109 3088 3109 3444 
Q 3109 3797 2882 3972 
Q 2656 4147 2194 4147 
L 1259 4147 
z
M 628 4666 
L 2241 4666 
Q 2963 4666 3353 4366 
Q 3744 4066 3744 3513 
Q 3744 3084 3544 2831 
Q 3344 2578 2956 2516 
Q 3422 2416 3680 2098 
Q 3938 1781 3938 1306 
Q 3938 681 3513 340 
Q 3088 0 2303 0 
L 628 0 
L 628 4666 
z
" transform="scale(0.015625)"/>
       <path id="DejaVuSans-2f" d="M 1625 4666 
L 2156 4666 
L 531 -594 
L 0 -594 
L 1625 4666 
z
" transform="scale(0.015625)"/>
       <path id="DejaVuSans-73" d="M 2834 3397 
L 2834 2853 
Q 2591 2978 2328 3040 
Q 2066 3103 1784 3103 
Q 1356 3103 1142 2972 
Q 928 2841 928 2578 
Q 928 2378 1081 2264 
Q 1234 2150 1697 2047 
L 1894 2003 
Q 2506 1872 2764 1633 
Q 3022 1394 3022 966 
Q 3022 478 2636 193 
Q 2250 -91 1575 -91 
Q 1294 -91 989 -36 
Q 684 19 347 128 
L 347 722 
Q 666 556 975 473 
Q 1284 391 1588 391 
Q 1994 391 2212 530 
Q 2431 669 2431 922 
Q 2431 1156 2273 1281 
Q 2116 1406 1581 1522 
L 1381 1569 
Q 847 1681 609 1914 
Q 372 2147 372 2553 
Q 372 3047 722 3315 
Q 1072 3584 1716 3584 
Q 2034 3584 2315 3537 
Q 2597 3491 2834 3397 
z
" transform="scale(0.015625)"/>
      </defs>
      <use xlink:href="#DejaVuSans-47"/>
      <use xlink:href="#DejaVuSans-42" x="77.490234"/>
      <use xlink:href="#DejaVuSans-2f" x="146.09375"/>
      <use xlink:href="#DejaVuSans-73" x="179.785156"/>
     </g>
    </g>
   </g>
   <g id="patch_3">
    <path d="M 75.107727 260.12 
L 84.899781 260.12 
L 84.899781 117.090529 
L 75.107727 117.090529 
z
" clip-path="url(#p9ecad6963b)" style="fill: #e24a33"/>
   </g>
   <g id="patch_4">
    <path d="M 156.708172 260.12 
L 166.500226 260.12 
L 166.500226 111.48153 
L 156.708172 111.48153 
z
" clip-path="url(#p9ecad6963b)" style="fill: #e24a33"/>
   </g>
   <g id="patch_5">
    <path d="M 238.308617 260.12 
L 248.100671 260.12 
L 248.100671 100.263532 
L 238.308617 100.263532 
z
" clip-path="url(#p9ecad6963b)" style="fill: #e24a33"/>
   </g>
   <g id="patch_6">
    <path d="M 319.909062 260.12 
L 329.701116 260.12 
L 329.701116 46.978043 
L 319.909062 46.978043 
z
" clip-path="url(#p9ecad6963b)" style="fill: #e24a33"/>
   </g>
   <g id="patch_7">
    <path d="M 401.509507 260.12 
L 411.301561 260.12 
L 411.301561 135.787192 
L 401.509507 135.787192 
z
" clip-path="url(#p9ecad6963b)" style="fill: #e24a33"/>
   </g>
   <g id="patch_8">
    <path d="M 483.109952 260.12 
L 492.902006 260.12 
L 492.902006 134.852358 
L 483.109952 134.852358 
z
" clip-path="url(#p9ecad6963b)" style="fill: #e24a33"/>
   </g>
   <g id="patch_9">
    <path d="M 84.899781 260.12 
L 94.691834 260.12 
L 94.691834 192.812013 
L 84.899781 192.812013 
z
" clip-path="url(#p9ecad6963b)" style="fill: #348abd"/>
   </g>
   <g id="patch_10">
    <path d="M 166.500226 260.12 
L 176.292279 260.12 
L 176.292279 184.398515 
L 166.500226 184.398515 
z
" clip-path="url(#p9ecad6963b)" style="fill: #348abd"/>
   </g>
   <g id="patch_11">
    <path d="M 248.100671 260.12 
L 257.892724 260.12 
L 257.892724 180.659183 
L 248.100671 180.659183 
z
" clip-path="url(#p9ecad6963b)" style="fill: #348abd"/>
   </g>
   <g id="patch_12">
    <path d="M 329.701116 260.12 
L 339.493169 260.12 
L 339.493169 170.376018 
L 329.701116 170.376018 
z
" clip-path="url(#p9ecad6963b)" style="fill: #348abd"/>
   </g>
   <g id="patch_13">
    <path d="M 411.301561 260.12 
L 421.093614 260.12 
L 421.093614 165.701852 
L 411.301561 165.701852 
z
" clip-path="url(#p9ecad6963b)" style="fill: #348abd"/>
   </g>
   <g id="patch_14">
    <path d="M 492.902006 260.12 
L 502.694059 260.12 
L 502.694059 170.376018 
L 492.902006 170.376018 
z
" clip-path="url(#p9ecad6963b)" style="fill: #348abd"/>
   </g>
   <g id="patch_15">
    <path d="M 94.691834 260.12 
L 104.483887 260.12 
L 104.483887 140.461357 
L 94.691834 140.461357 
z
" clip-path="url(#p9ecad6963b)" style="fill: #988ed5"/>
   </g>
   <g id="patch_16">
    <path d="M 176.292279 260.12 
L 186.084332 260.12 
L 186.084332 118.960195 
L 176.292279 118.960195 
z
" clip-path="url(#p9ecad6963b)" style="fill: #988ed5"/>
   </g>
   <g id="patch_17">
    <path d="M 257.892724 260.12 
L 267.684777 260.12 
L 267.684777 113.351196 
L 257.892724 113.351196 
z
" clip-path="url(#p9ecad6963b)" style="fill: #988ed5"/>
   </g>
   <g id="patch_18">
    <path d="M 339.493169 260.12 
L 349.285223 260.12 
L 349.285223 89.045534 
L 339.493169 89.045534 
z
" clip-path="url(#p9ecad6963b)" style="fill: #988ed5"/>
   </g>
   <g id="patch_19">
    <path d="M 421.093614 260.12 
L 430.885668 260.12 
L 430.885668 119.895028 
L 421.093614 119.895028 
z
" clip-path="url(#p9ecad6963b)" style="fill: #988ed5"/>
   </g>
   <g id="patch_20">
    <path d="M 502.694059 260.12 
L 512.486113 260.12 
L 512.486113 129.24336 
L 502.694059 129.24336 
z
" clip-path="url(#p9ecad6963b)" style="fill: #988ed5"/>
   </g>
   <g id="patch_21">
    <path d="M 104.483887 260.12 
L 114.275941 260.12 
L 114.275941 91.850034 
L 104.483887 91.850034 
z
" clip-path="url(#p9ecad6963b)" style="fill: #777777"/>
   </g>
   <g id="patch_22">
    <path d="M 186.084332 260.12 
L 195.876386 260.12 
L 195.876386 63.805039 
L 186.084332 63.805039 
z
" clip-path="url(#p9ecad6963b)" style="fill: #777777"/>
   </g>
   <g id="patch_23">
    <path d="M 267.684777 260.12 
L 277.476831 260.12 
L 277.476831 53.521875 
L 267.684777 53.521875 
z
" clip-path="url(#p9ecad6963b)" style="fill: #777777"/>
   </g>
   <g id="patch_24">
    <path d="M 349.285223 260.12 
L 359.077276 260.12 
L 359.077276 22.672381 
L 349.285223 22.672381 
z
" clip-path="url(#p9ecad6963b)" style="fill: #777777"/>
   </g>
   <g id="patch_25">
    <path d="M 430.885668 260.12 
L 440.677721 260.12 
L 440.677721 61.00054 
L 430.885668 61.00054 
z
" clip-path="url(#p9ecad6963b)" style="fill: #777777"/>
   </g>
   <g id="patch_26">
    <path d="M 512.486113 260.12 
L 522.278166 260.12 
L 522.278166 75.95787 
L 512.486113 75.95787 
z
" clip-path="url(#p9ecad6963b)" style="fill: #777777"/>
   </g>
   <g id="patch_27">
    <path d="M 114.275941 260.12 
L 124.067994 260.12 
L 124.067994 146.070356 
L 114.275941 146.070356 
z
" clip-path="url(#p9ecad6963b)" style="fill: #fbc15e"/>
   </g>
   <g id="patch_28">
    <path d="M 195.876386 260.12 
L 205.668439 260.12 
L 205.668439 127.373693 
L 195.876386 127.373693 
z
" clip-path="url(#p9ecad6963b)" style="fill: #fbc15e"/>
   </g>
   <g id="patch_29">
    <path d="M 277.476831 260.12 
L 287.268884 260.12 
L 287.268884 121.764694 
L 277.476831 121.764694 
z
" clip-path="url(#p9ecad6963b)" style="fill: #fbc15e"/>
   </g>
   <g id="patch_30">
    <path d="M 359.077276 260.12 
L 368.869329 260.12 
L 368.869329 103.068031 
L 359.077276 103.068031 
z
" clip-path="url(#p9ecad6963b)" style="fill: #fbc15e"/>
   </g>
   <g id="patch_31">
    <path d="M 440.677721 260.12 
L 450.469774 260.12 
L 450.469774 124.569194 
L 440.677721 124.569194 
z
" clip-path="url(#p9ecad6963b)" style="fill: #fbc15e"/>
   </g>
   <g id="patch_32">
    <path d="M 522.278166 260.12 
L 532.070219 260.12 
L 532.070219 133.917525 
L 522.278166 133.917525 
z
" clip-path="url(#p9ecad6963b)" style="fill: #fbc15e"/>
   </g>
   <g id="patch_33">
    <path d="M 124.067994 260.12 
L 133.860048 260.12 
L 133.860048 150.744522 
L 124.067994 150.744522 
z
" clip-path="url(#p9ecad6963b)" style="fill: #8eba42"/>
   </g>
   <g id="patch_34">
    <path d="M 205.668439 260.12 
L 215.460493 260.12 
L 215.460493 130.178193 
L 205.668439 130.178193 
z
" clip-path="url(#p9ecad6963b)" style="fill: #8eba42"/>
   </g>
   <g id="patch_35">
    <path d="M 287.268884 260.12 
L 297.060938 260.12 
L 297.060938 125.504027 
L 287.268884 125.504027 
z
" clip-path="url(#p9ecad6963b)" style="fill: #8eba42"/>
   </g>
   <g id="patch_36">
    <path d="M 368.869329 260.12 
L 378.661383 260.12 
L 378.661383 106.807364 
L 368.869329 106.807364 
z
" clip-path="url(#p9ecad6963b)" style="fill: #8eba42"/>
   </g>
   <g id="patch_37">
    <path d="M 450.469774 260.12 
L 460.261828 260.12 
L 460.261828 135.787192 
L 450.469774 135.787192 
z
" clip-path="url(#p9ecad6963b)" style="fill: #8eba42"/>
   </g>
   <g id="patch_38">
    <path d="M 532.070219 260.12 
L 541.862273 260.12 
L 541.862273 142.331024 
L 532.070219 142.331024 
z
" clip-path="url(#p9ecad6963b)" style="fill: #8eba42"/>
   </g>
   <g id="patch_39">
    <path d="M 51.77 260.12 
L 51.77 10.8 
" style="fill: none; stroke: #ffffff; stroke-linejoin: miter; stroke-linecap: square"/>
   </g>
   <g id="patch_40">
    <path d="M 565.2 260.12 
L 565.2 10.8 
" style="fill: none; stroke: #ffffff; stroke-linejoin: miter; stroke-linecap: square"/>
   </g>
   <g id="patch_41">
    <path d="M 51.77 260.12 
L 565.2 260.12 
" style="fill: none; stroke: #ffffff; stroke-linejoin: miter; stroke-linecap: square"/>
   </g>
   <g id="patch_42">
    <path d="M 51.77 10.8 
L 565.2 10.8 
" style="fill: none; stroke: #ffffff; stroke-linejoin: miter; stroke-linecap: square"/>
   </g>
   <g id="legend_1">
    <g id="patch_43">
     <path d="M 500.432812 106.86875 
L 558.2 106.86875 
Q 560.2 106.86875 560.2 104.86875 
L 560.2 17.8 
Q 560.2 15.8 558.2 15.8 
L 500.432812 15.8 
Q 498.432812 15.8 498.432812 17.8 
L 498.432812 104.86875 
Q 498.432812 106.86875 500.432812 106.86875 
z
" style="fill: #e5e5e5; opacity: 0.8; stroke: #cccccc; stroke-width: 0.5; stroke-linejoin: miter"/>
    </g>
    <g id="patch_44">
     <path d="M 502.432812 27.398438 
L 522.432812 27.398438 
L 522.432812 20.398438 
L 502.432812 20.398438 
z
" style="fill: #e24a33"/>
    </g>
    <g id="text_14">
     <!-- init -->
     <g transform="translate(530.432812 27.398438) scale(0.1 -0.1)">
      <defs>
       <path id="DejaVuSans-69" d="M 603 3500 
L 1178 3500 
L 1178 0 
L 603 0 
L 603 3500 
z
M 603 4863 
L 1178 4863 
L 1178 4134 
L 603 4134 
L 603 4863 
z
" transform="scale(0.015625)"/>
       <path id="DejaVuSans-6e" d="M 3513 2113 
L 3513 0 
L 2938 0 
L 2938 2094 
Q 2938 2591 2744 2837 
Q 2550 3084 2163 3084 
Q 1697 3084 1428 2787 
Q 1159 2491 1159 1978 
L 1159 0 
L 581 0 
L 581 3500 
L 1159 3500 
L 1159 2956 
Q 1366 3272 1645 3428 
Q 1925 3584 2291 3584 
Q 2894 3584 3203 3211 
Q 3513 2838 3513 2113 
z
" transform="scale(0.015625)"/>
       <path id="DejaVuSans-74" d="M 1172 4494 
L 1172 3500 
L 2356 3500 
L 2356 3053 
L 1172 3053 
L 1172 1153 
Q 1172 725 1289 603 
Q 1406 481 1766 481 
L 2356 481 
L 2356 0 
L 1766 0 
Q 1100 0 847 248 
Q 594 497 594 1153 
L 594 3053 
L 172 3053 
L 172 3500 
L 594 3500 
L 594 4494 
L 1172 4494 
z
" transform="scale(0.015625)"/>
      </defs>
      <use xlink:href="#DejaVuSans-69"/>
      <use xlink:href="#DejaVuSans-6e" x="27.783203"/>
      <use xlink:href="#DejaVuSans-69" x="91.162109"/>
      <use xlink:href="#DejaVuSans-74" x="118.945312"/>
     </g>
    </g>
    <g id="patch_45">
     <path d="M 502.432812 42.076562 
L 522.432812 42.076562 
L 522.432812 35.076562 
L 502.432812 35.076562 
z
" style="fill: #348abd"/>
    </g>
    <g id="text_15">
     <!-- read -->
     <g transform="translate(530.432812 42.076562) scale(0.1 -0.1)">
      <defs>
       <path id="DejaVuSans-72" d="M 2631 2963 
Q 2534 3019 2420 3045 
Q 2306 3072 2169 3072 
Q 1681 3072 1420 2755 
Q 1159 2438 1159 1844 
L 1159 0 
L 581 0 
L 581 3500 
L 1159 3500 
L 1159 2956 
Q 1341 3275 1631 3429 
Q 1922 3584 2338 3584 
Q 2397 3584 2469 3576 
Q 2541 3569 2628 3553 
L 2631 2963 
z
" transform="scale(0.015625)"/>
       <path id="DejaVuSans-65" d="M 3597 1894 
L 3597 1613 
L 953 1613 
Q 991 1019 1311 708 
Q 1631 397 2203 397 
Q 2534 397 2845 478 
Q 3156 559 3463 722 
L 3463 178 
Q 3153 47 2828 -22 
Q 2503 -91 2169 -91 
Q 1331 -91 842 396 
Q 353 884 353 1716 
Q 353 2575 817 3079 
Q 1281 3584 2069 3584 
Q 2775 3584 3186 3129 
Q 3597 2675 3597 1894 
z
M 3022 2063 
Q 3016 2534 2758 2815 
Q 2500 3097 2075 3097 
Q 1594 3097 1305 2825 
Q 1016 2553 972 2059 
L 3022 2063 
z
" transform="scale(0.015625)"/>
       <path id="DejaVuSans-61" d="M 2194 1759 
Q 1497 1759 1228 1600 
Q 959 1441 959 1056 
Q 959 750 1161 570 
Q 1363 391 1709 391 
Q 2188 391 2477 730 
Q 2766 1069 2766 1631 
L 2766 1759 
L 2194 1759 
z
M 3341 1997 
L 3341 0 
L 2766 0 
L 2766 531 
Q 2569 213 2275 61 
Q 1981 -91 1556 -91 
Q 1019 -91 701 211 
Q 384 513 384 1019 
Q 384 1609 779 1909 
Q 1175 2209 1959 2209 
L 2766 2209 
L 2766 2266 
Q 2766 2663 2505 2880 
Q 2244 3097 1772 3097 
Q 1472 3097 1187 3025 
Q 903 2953 641 2809 
L 641 3341 
Q 956 3463 1253 3523 
Q 1550 3584 1831 3584 
Q 2591 3584 2966 3190 
Q 3341 2797 3341 1997 
z
" transform="scale(0.015625)"/>
       <path id="DejaVuSans-64" d="M 2906 2969 
L 2906 4863 
L 3481 4863 
L 3481 0 
L 2906 0 
L 2906 525 
Q 2725 213 2448 61 
Q 2172 -91 1784 -91 
Q 1150 -91 751 415 
Q 353 922 353 1747 
Q 353 2572 751 3078 
Q 1150 3584 1784 3584 
Q 2172 3584 2448 3432 
Q 2725 3281 2906 2969 
z
M 947 1747 
Q 947 1113 1208 752 
Q 1469 391 1925 391 
Q 2381 391 2643 752 
Q 2906 1113 2906 1747 
Q 2906 2381 2643 2742 
Q 2381 3103 1925 3103 
Q 1469 3103 1208 2742 
Q 947 2381 947 1747 
z
" transform="scale(0.015625)"/>
      </defs>
      <use xlink:href="#DejaVuSans-72"/>
      <use xlink:href="#DejaVuSans-65" x="38.863281"/>
      <use xlink:href="#DejaVuSans-61" x="100.386719"/>
      <use xlink:href="#DejaVuSans-64" x="161.666016"/>
     </g>
    </g>
    <g id="patch_46">
     <path d="M 502.432812 56.754687 
L 522.432812 56.754687 
L 522.432812 49.754687 
L 502.432812 49.754687 
z
" style="fill: #988ed5"/>
    </g>
    <g id="text_16">
     <!-- scale -->
     <g transform="translate(530.432812 56.754687) scale(0.1 -0.1)">
      <defs>
       <path id="DejaVuSans-63" d="M 3122 3366 
L 3122 2828 
Q 2878 2963 2633 3030 
Q 2388 3097 2138 3097 
Q 1578 3097 1268 2742 
Q 959 2388 959 1747 
Q 959 1106 1268 751 
Q 1578 397 2138 397 
Q 2388 397 2633 464 
Q 2878 531 3122 666 
L 3122 134 
Q 2881 22 2623 -34 
Q 2366 -91 2075 -91 
Q 1284 -91 818 406 
Q 353 903 353 1747 
Q 353 2603 823 3093 
Q 1294 3584 2113 3584 
Q 2378 3584 2631 3529 
Q 2884 3475 3122 3366 
z
" transform="scale(0.015625)"/>
       <path id="DejaVuSans-6c" d="M 603 4863 
L 1178 4863 
L 1178 0 
L 603 0 
L 603 4863 
z
" transform="scale(0.015625)"/>
      </defs>
      <use xlink:href="#DejaVuSans-73"/>
      <use xlink:href="#DejaVuSans-63" x="52.099609"/>
      <use xlink:href="#DejaVuSans-61" x="107.080078"/>
      <use xlink:href="#DejaVuSans-6c" x="168.359375"/>
      <use xlink:href="#DejaVuSans-65" x="196.142578"/>
     </g>
    </g>
    <g id="patch_47">
     <path d="M 502.432812 71.432813 
L 522.432812 71.432813 
L 522.432812 64.432813 
L 502.432812 64.432813 
z
" style="fill: #777777"/>
    </g>
    <g id="text_17">
     <!-- triad -->
     <g transform="translate(530.432812 71.432813) scale(0.1 -0.1)">
      <use xlink:href="#DejaVuSans-74"/>
      <use xlink:href="#DejaVuSans-72" x="39.208984"/>
      <use xlink:href="#DejaVuSans-69" x="80.322266"/>
      <use xlink:href="#DejaVuSans-61" x="108.105469"/>
      <use xlink:href="#DejaVuSans-64" x="169.384766"/>
     </g>
    </g>
    <g id="patch_48">
     <path d="M 502.432812 86.110938 
L 522.432812 86.110938 
L 522.432812 79.110938 
L 502.432812 79.110938 
z
" style="fill: #fbc15e"/>
    </g>
    <g id="text_18">
     <!-- 3pt -->
     <g transform="translate(530.432812 86.110938) scale(0.1 -0.1)">
      <defs>
       <path id="DejaVuSans-33" d="M 2597 2516 
Q 3050 2419 3304 2112 
Q 3559 1806 3559 1356 
Q 3559 666 3084 287 
Q 2609 -91 1734 -91 
Q 1441 -91 1130 -33 
Q 819 25 488 141 
L 488 750 
Q 750 597 1062 519 
Q 1375 441 1716 441 
Q 2309 441 2620 675 
Q 2931 909 2931 1356 
Q 2931 1769 2642 2001 
Q 2353 2234 1838 2234 
L 1294 2234 
L 1294 2753 
L 1863 2753 
Q 2328 2753 2575 2939 
Q 2822 3125 2822 3475 
Q 2822 3834 2567 4026 
Q 2313 4219 1838 4219 
Q 1578 4219 1281 4162 
Q 984 4106 628 3988 
L 628 4550 
Q 988 4650 1302 4700 
Q 1616 4750 1894 4750 
Q 2613 4750 3031 4423 
Q 3450 4097 3450 3541 
Q 3450 3153 3228 2886 
Q 3006 2619 2597 2516 
z
" transform="scale(0.015625)"/>
       <path id="DejaVuSans-70" d="M 1159 525 
L 1159 -1331 
L 581 -1331 
L 581 3500 
L 1159 3500 
L 1159 2969 
Q 1341 3281 1617 3432 
Q 1894 3584 2278 3584 
Q 2916 3584 3314 3078 
Q 3713 2572 3713 1747 
Q 3713 922 3314 415 
Q 2916 -91 2278 -91 
Q 1894 -91 1617 61 
Q 1341 213 1159 525 
z
M 3116 1747 
Q 3116 2381 2855 2742 
Q 2594 3103 2138 3103 
Q 1681 3103 1420 2742 
Q 1159 2381 1159 1747 
Q 1159 1113 1420 752 
Q 1681 391 2138 391 
Q 2594 391 2855 752 
Q 3116 1113 3116 1747 
z
" transform="scale(0.015625)"/>
      </defs>
      <use xlink:href="#DejaVuSans-33"/>
      <use xlink:href="#DejaVuSans-70" x="63.623047"/>
      <use xlink:href="#DejaVuSans-74" x="127.099609"/>
     </g>
    </g>
    <g id="patch_49">
     <path d="M 502.432812 100.789062 
L 522.432812 100.789062 
L 522.432812 93.789062 
L 502.432812 93.789062 
z
" style="fill: #8eba42"/>
    </g>
    <g id="text_19">
     <!-- 5pt -->
     <g transform="translate(530.432812 100.789062) scale(0.1 -0.1)">
      <use xlink:href="#DejaVuSans-35"/>
      <use xlink:href="#DejaVuSans-70" x="63.623047"/>
      <use xlink:href="#DejaVuSans-74" x="127.099609"/>
     </g>
    </g>
   </g>
  </g>
 </g>
 <defs>
  <clipPath id="p9ecad6963b">
   <rect x="51.77" y="10.8" width="513.43" height="249.32"/>
  </clipPath>
 </defs>
</svg>
