<?xml version="1.0" encoding="utf-8" standalone="no"?>
<!DOCTYPE svg PUBLIC "-//W3C//DTD SVG 1.1//EN"
  "http://www.w3.org/Graphics/SVG/1.1/DTD/svg11.dtd">
<svg xmlns:xlink="http://www.w3.org/1999/xlink" width="720pt" height="432pt" viewBox="0 0 720 432" xmlns="http://www.w3.org/2000/svg" version="1.1">
 <metadata>
  <rdf:RDF xmlns:dc="http://purl.org/dc/elements/1.1/" xmlns:cc="http://creativecommons.org/ns#" xmlns:rdf="http://www.w3.org/1999/02/22-rdf-syntax-ns#">
   <cc:Work>
    <dc:type rdf:resource="http://purl.org/dc/dcmitype/StillImage"/>
    <dc:date>2024-06-21T09:06:27.457963</dc:date>
    <dc:format>image/svg+xml</dc:format>
    <dc:creator>
     <cc:Agent>
      <dc:title>Matplotlib v3.8.3, https://matplotlib.org/</dc:title>
     </cc:Agent>
    </dc:creator>
   </cc:Work>
  </rdf:RDF>
 </metadata>
 <defs>
  <style type="text/css">*{stroke-linejoin: round; stroke-linecap: butt}</style>
 </defs>
 <g id="figure_1">
  <g id="patch_1">
   <path d="M 0 432 
L 720 432 
L 720 0 
L 0 0 
z
" style="fill: #ffffff"/>
  </g>
  <g id="axes_1">
   <g id="patch_2">
    <path d="M 54.66 392.82 
L 709.2 392.82 
L 709.2 10.8 
L 54.66 10.8 
z
" style="fill: #eeeeee"/>
   </g>
   <g id="line2d_1">
    <path d="M 63.105164 388.97886 
L 67.336842 388.750625 
L 71.5607 388.509426 
L 75.791415 388.253658 
L 80.014731 387.983374 
L 84.242345 387.696985 
L 88.471576 387.393736 
L 92.699525 387.072879 
L 96.923177 386.733677 
L 101.148829 386.374586 
L 105.380694 385.994074 
L 109.612932 385.591447 
L 113.840164 385.166019 
L 118.072291 384.715498 
L 122.302346 384.239238 
L 126.530697 383.735803 
L 130.763144 383.202976 
L 134.991725 382.640183 
L 139.220531 382.045267 
L 143.452058 381.416115 
L 147.682559 380.75145 
L 151.912992 380.049242 
L 156.14337 379.307508 
L 160.372962 378.524322 
L 164.604362 377.69703 
L 168.835165 376.823834 
L 173.066207 375.902226 
L 177.297402 374.929783 
L 181.527932 373.904172 
L 185.759336 372.822393 
L 189.98932 371.682327 
L 194.220541 370.480453 
L 198.451887 369.214154 
L 202.684042 367.880212 
L 206.914608 366.476327 
L 211.147138 364.998149 
L 215.377846 363.44376 
L 219.610344 361.808528 
L 223.841533 360.090263 
L 228.073127 358.284872 
L 232.304191 356.389284 
L 236.536153 354.399343 
L 240.768013 352.311965 
L 244.999526 350.12375 
L 249.230977 347.831041 
L 253.462996 345.429977 
L 257.695329 342.917217 
L 261.927021 340.289953 
L 266.159476 337.544013 
L 270.391229 334.677169 
L 274.622958 331.685955 
L 278.85527 328.567054 
L 283.087123 325.318566 
L 287.319118 321.937612 
L 291.551662 318.42167 
L 295.783681 314.769764 
L 300.01601 310.979651 
L 304.248558 307.05022 
L 308.481043 302.980961 
L 312.713513 298.771506 
L 316.945739 294.422234 
L 321.178156 289.933343 
L 325.41036 285.306435 
L 329.642899 280.542633 
L 333.875455 275.644585 
L 338.107746 270.615538 
L 342.340162 265.458559 
L 346.57258 260.17794 
L 350.805061 254.778382 
L 355.037473 249.265462 
L 359.270039 243.644918 
L 363.502438 237.923815 
L 367.734866 232.109123 
L 371.967406 226.20851 
L 376.199799 220.230654 
L 380.432298 214.183997 
L 384.664733 208.078021 
L 388.897294 201.922075 
L 393.129717 195.726494 
L 397.362161 189.501266 
L 401.594604 183.256838 
L 405.827127 177.003634 
L 410.059581 170.75248 
L 414.292107 164.513758 
L 418.524661 158.298039 
L 422.757134 152.115836 
L 426.989642 145.977105 
L 431.222127 139.891769 
L 435.454644 133.86924 
L 439.687196 127.918599 
L 443.919707 122.048578 
L 448.152238 116.267219 
L 452.384762 110.582147 
L 456.61728 105.000374 
L 460.849842 99.528255 
L 465.082364 94.171701 
L 469.314919 88.9358 
L 473.547482 83.825131 
L 477.780023 78.84365 
L 482.012561 73.994628 
L 486.245113 69.280733 
L 490.47765 64.70409 
L 494.710191 60.266198 
L 498.942748 55.96802 
L 503.175287 51.810043 
L 507.407837 47.792205 
L 511.640398 43.914014 
L 515.872966 40.17456 
L 520.105526 36.572549 
L 524.338091 33.106312 
L 528.570655 29.773871 
" clip-path="url(#pb5ca255582)" style="fill: none; stroke: #000000; stroke-width: 2; stroke-linecap: square"/>
   </g>
   <g id="line2d_2">
    <path d="M 65.816741 390.320848 
L 71.405956 390.122635 
L 76.987951 389.909131 
L 82.571047 389.678847 
L 88.159152 389.430308 
L 93.742452 389.162568 
L 99.330876 388.873668 
L 104.920506 388.562184 
L 110.506244 388.226712 
L 116.089887 387.865363 
L 121.67769 387.475764 
L 127.265421 387.056094 
L 132.853828 386.60406 
L 138.441259 386.117415 
L 144.029528 385.593463 
L 149.617758 385.02957 
L 155.207566 384.422675 
L 160.797907 383.769799 
L 166.38581 383.068063 
L 171.974035 382.3137 
L 177.562417 381.503078 
L 183.15167 380.632222 
L 188.740107 379.697328 
L 194.329514 378.693816 
L 199.918991 377.617334 
L 205.50791 376.463303 
L 211.097757 375.226489 
L 216.687412 373.901998 
L 222.277401 372.484381 
L 227.867546 370.968162 
L 233.45704 369.347901 
L 239.047325 367.617353 
L 244.637251 365.770918 
L 250.2274 363.802373 
L 255.817118 361.70587 
L 261.406842 359.475163 
L 266.996611 357.104177 
L 272.586917 354.586723 
L 278.176735 351.917461 
L 283.766924 349.090419 
L 289.356621 346.100787 
L 294.94691 342.943123 
L 300.536987 339.613493 
L 306.126861 336.108127 
L 311.716934 332.423673 
L 317.307218 328.557794 
L 322.897294 324.509359 
L 328.487537 320.277674 
L 334.077545 315.863714 
L 339.667648 311.269079 
L 345.257846 306.496875 
L 350.848055 301.551625 
L 356.438252 296.43919 
L 362.028552 291.166726 
L 367.618759 285.743116 
L 373.208977 280.178392 
L 378.799138 274.484134 
L 384.389471 268.672946 
L 389.979707 262.759182 
L 395.569899 256.757983 
L 401.160156 250.685401 
L 406.750458 244.55844 
L 412.340794 238.394722 
L 417.931116 232.212342 
L 423.521413 226.029575 
L 429.111742 219.864624 
L 434.702042 213.735615 
L 440.292362 207.660127 
L 445.882664 201.655219 
L 451.47299 195.737058 
L 457.063273 189.920956 
L 462.653598 184.220953 
L 468.243932 178.649985 
L 473.834274 173.219629 
" clip-path="url(#pb5ca255582)" style="fill: none; stroke: #000000; stroke-width: 2; stroke-linecap: square"/>
   </g>
   <g id="line2d_3">
    <path d="M 63.105164 390.2845 
L 67.336842 390.133201 
L 71.5607 389.973228 
L 75.791415 389.803504 
L 80.014731 389.624048 
L 84.242345 389.433788 
L 88.471576 389.232202 
L 92.699525 389.018771 
L 96.923177 388.79298 
L 101.148829 388.553774 
L 105.380694 388.300102 
L 109.612932 388.031464 
L 113.840164 387.747366 
L 118.072291 387.446232 
L 122.302346 387.127583 
L 126.530697 386.790404 
L 130.763144 386.433148 
L 134.991725 386.055363 
L 139.220531 385.655526 
L 143.452058 385.232131 
L 147.682559 384.784224 
L 151.912992 384.310331 
L 156.14337 383.808997 
L 160.372962 383.278789 
L 164.604362 382.717763 
L 168.835165 382.124535 
L 173.066207 381.497221 
L 177.297402 380.833968 
L 181.527932 380.132961 
L 185.759336 379.391897 
L 189.98932 378.609048 
L 194.220541 377.781687 
L 198.451887 376.907669 
L 202.684042 375.984391 
L 206.914608 375.009841 
L 211.147138 373.980531 
L 215.377846 372.89461 
L 219.610344 371.748271 
L 223.841533 370.539348 
L 228.073127 369.264268 
L 232.304191 367.920096 
L 236.536153 366.503043 
L 240.768013 365.009982 
L 244.999526 363.437467 
L 249.230977 361.781755 
L 253.462996 360.038834 
L 257.695329 358.20494 
L 261.927021 356.276568 
L 266.159476 354.249065 
L 270.391229 352.119057 
L 274.622958 349.882094 
L 278.85527 347.533658 
L 283.087123 345.070114 
L 287.319118 342.486908 
L 291.551662 339.779547 
L 295.783681 336.944528 
L 300.01601 333.977166 
L 304.248558 330.873435 
L 308.481043 327.629574 
L 312.713513 324.241721 
L 316.945739 320.706403 
L 321.178156 317.019789 
L 325.41036 313.178996 
L 329.642899 309.180548 
L 333.875455 305.022064 
L 338.107746 300.70152 
L 342.340162 296.216599 
L 346.57258 291.565926 
L 350.805061 286.748402 
L 355.037473 281.763663 
L 359.270039 276.611474 
L 363.502438 271.29285 
L 367.734866 265.8088 
L 371.967406 260.161115 
L 376.199799 254.352731 
L 380.432298 248.386606 
L 384.664733 242.267009 
L 388.897294 235.998441 
L 393.129717 229.586817 
L 397.362161 223.038187 
L 401.594604 216.359609 
L 405.827127 209.558707 
L 410.059581 202.644186 
L 414.292107 195.624958 
L 418.524661 188.510872 
L 422.757134 181.312489 
L 426.989642 174.04052 
L 431.222127 166.706449 
L 435.454644 159.321977 
L 439.687196 151.899223 
L 443.919707 144.450703 
L 448.152238 136.988867 
L 452.384762 129.526415 
L 456.61728 122.075992 
L 460.849842 114.650083 
L 465.082364 107.261238 
L 469.314919 99.92149 
L 473.547482 92.64271 
L 477.780023 85.436381 
L 482.012561 78.313428 
L 486.245113 71.284253 
L 490.47765 64.358748 
L 494.710191 57.546089 
L 498.942748 50.854791 
L 503.175287 44.292736 
" clip-path="url(#pb5ca255582)" style="fill: none; stroke: #000000; stroke-width: 2; stroke-linecap: square"/>
   </g>
   <g id="line2d_4">
    <path d="M 65.816741 389.571105 
L 71.405956 389.314804 
L 76.987951 389.038956 
L 82.571047 388.74169 
L 88.159152 388.421162 
L 93.742452 388.076225 
L 99.330876 387.704435 
L 104.920506 387.304056 
L 110.506244 386.873395 
L 116.089887 386.410149 
L 121.67769 385.911428 
L 127.265421 385.375068 
L 132.853828 384.798334 
L 138.441259 384.178588 
L 144.029528 383.512653 
L 149.617758 382.797482 
L 155.207566 382.029537 
L 160.797907 381.205445 
L 166.38581 380.322021 
L 171.974035 379.37504 
L 177.562417 378.360535 
L 183.15167 377.274208 
L 188.740107 376.112084 
L 194.329514 374.869344 
L 199.918991 373.541596 
L 205.50791 372.124318 
L 211.097757 370.612357 
L 216.687412 369.00117 
L 222.277401 367.285744 
L 227.867546 365.46127 
L 233.45704 363.52323 
L 239.047325 361.466418 
L 244.637251 359.286697 
L 250.2274 356.979508 
L 255.817118 354.54107 
L 261.406842 351.967495 
L 266.996611 349.255471 
L 272.586917 346.401948 
L 278.176735 343.405235 
L 283.766924 340.263329 
L 289.356621 336.975919 
L 294.94691 333.542386 
L 300.536987 329.964138 
L 306.126861 326.243082 
L 311.716934 322.381885 
L 317.307218 318.384538 
L 322.897294 314.256478 
L 328.487537 310.003704 
L 334.077545 305.633943 
" clip-path="url(#pb5ca255582)" style="fill: none; stroke: #000000; stroke-width: 2; stroke-linecap: square"/>
   </g>
   <g id="line2d_5">
    <path d="M 63.105164 390.49224 
L 67.336842 390.355131 
L 71.5607 390.210379 
L 75.791415 390.057046 
L 80.014731 389.895193 
L 84.242345 389.723899 
L 88.471576 389.542748 
L 92.699525 389.351335 
L 96.923177 389.149262 
L 101.148829 388.935657 
L 105.380694 388.709666 
L 109.612932 388.470938 
L 113.840164 388.219133 
L 118.072291 387.952971 
L 122.302346 387.672155 
L 126.530697 387.375931 
L 130.763144 387.063098 
L 134.991725 386.733435 
L 139.220531 386.385807 
L 143.452058 386.019119 
L 147.682559 385.632786 
L 151.912992 385.225802 
L 156.14337 384.79721 
L 160.372962 384.346109 
L 164.604362 383.871206 
L 168.835165 383.371728 
L 173.066207 382.846525 
L 177.297402 382.294531 
L 181.527932 381.714767 
L 185.759336 381.105915 
L 189.98932 380.467196 
L 194.220541 379.797093 
L 198.451887 379.094644 
L 202.684042 378.358608 
L 206.914608 377.588305 
L 211.147138 376.781992 
L 215.377846 375.93932 
L 219.610344 375.058534 
L 223.841533 374.139274 
L 228.073127 373.18023 
L 232.304191 372.18072 
L 236.536153 371.139577 
L 240.768013 370.056281 
L 244.999526 368.930239 
L 249.230977 367.760812 
L 253.462996 366.547361 
L 257.695329 365.289605 
L 261.927021 363.987624 
L 266.159476 362.640914 
L 270.391229 361.250026 
L 274.622958 359.814989 
L 278.85527 358.336004 
L 283.087123 356.814027 
L 287.319118 355.249624 
L 291.551662 353.643603 
L 295.783681 351.99754 
L 300.01601 350.312476 
L 304.248558 348.590008 
L 308.481043 346.832012 
L 312.713513 345.040431 
L 316.945739 343.217518 
L 321.178156 341.365425 
L 325.41036 339.486841 
L 329.642899 337.584199 
L 333.875455 335.660468 
L 338.107746 333.718741 
L 342.340162 331.76192 
L 346.57258 329.793243 
L 350.805061 327.815941 
L 355.037473 325.833392 
L 359.270039 323.848845 
L 363.502438 321.865816 
L 367.734866 319.88757 
L 371.967406 317.917393 
L 376.199799 315.958674 
L 380.432298 314.01449 
L 384.664733 312.088014 
L 388.897294 310.182143 
L 393.129717 308.299844 
L 397.362161 306.443746 
L 401.594604 304.616396 
L 405.827127 302.820123 
L 410.059581 301.057172 
L 414.292107 299.329474 
L 418.524661 297.63884 
L 422.757134 295.98691 
L 426.989642 294.375031 
L 431.222127 292.80442 
L 435.454644 291.276056 
L 439.687196 289.790744 
L 443.919707 288.34913 
L 448.152238 286.951632 
L 452.384762 285.598527 
L 456.61728 284.28992 
L 460.849842 283.025749 
L 465.082364 281.805849 
L 469.314919 280.629877 
L 473.547482 279.497398 
" clip-path="url(#pb5ca255582)" style="fill: none; stroke: #000000; stroke-width: 2; stroke-linecap: square"/>
   </g>
   <g id="line2d_6">
    <path d="M 54.66 389.451254 
L 92.699525 387.093132 
L 105.380694 385.998289 
L 122.302346 384.229698 
L 134.991725 382.629544 
L 156.14337 379.176579 
L 168.835165 376.565801 
L 181.527932 373.449711 
L 189.98932 371.00737 
L 202.684042 367.133312 
L 206.914608 365.785814 
L 211.147138 364.269878 
L 215.377846 363.006598 
L 219.610344 362.585505 
L 223.841533 360.901132 
L 232.304191 356.942856 
L 236.536153 354.83739 
L 244.999526 350.205364 
L 253.462996 344.899589 
L 257.695329 342.036155 
L 261.927021 339.004284 
L 266.159476 336.225068 
L 270.391229 333.698509 
L 274.622958 333.445853 
L 278.85527 330.077107 
L 283.087123 326.371486 
L 287.319118 322.41321 
L 295.783681 313.907126 
L 300.01601 309.190882 
L 304.248558 304.221982 
L 308.481043 298.916207 
L 312.713513 294.3684 
L 316.945739 294.284181 
L 321.178156 288.725751 
L 325.41036 282.746227 
L 329.642899 276.345609 
L 333.875455 270.70296 
L 338.107746 262.449532 
L 342.340162 262.61797 
L 346.57258 264.302343 
L 350.805061 257.312195 
L 355.037473 252.259076 
L 359.270039 248.553455 
L 367.734866 232.299256 
L 371.967406 227.246137 
L 376.199799 221.519269 
L 380.432298 213.265842 
L 384.664733 209.897096 
L 388.897294 202.14898 
L 393.129717 198.022266 
L 397.362161 190.863681 
L 401.594604 184.547283 
L 405.827127 180.841662 
L 410.059581 170.819643 
L 414.292107 165.934961 
L 418.524661 159.955437 
L 422.757134 152.544196 
L 426.989642 145.722486 
L 435.454644 134.85828 
L 443.919707 123.067669 
L 448.152238 116.919708 
L 452.384762 111.445496 
L 456.61728 107.066126 
L 460.849842 101.170821 
L 465.082364 93.591142 
L 469.314919 89.885522 
L 473.547482 82.895374 
L 477.780023 79.105535 
L 482.012561 73.547104 
L 486.245113 67.56758 
L 490.47765 62.59868 
L 494.710191 58.21931 
L 498.942748 54.682127 
L 503.175287 51.313381 
L 507.407837 45.75495 
L 511.640398 42.63886 
L 515.872966 38.091053 
L 520.105526 34.132777 
L 524.338091 30.511375 
L 528.570655 28.91122 
L 532.803203 32.953715 
L 537.035768 36.743555 
L 541.268325 39.859645 
L 545.500896 40.78605 
L 553.966009 36.238243 
L 558.198568 34.638088 
L 562.43113 32.532622 
L 566.663691 30.679812 
L 570.896258 47.860416 
L 575.128818 68.83086 
L 579.361376 92.664737 
L 583.593937 136.626872 
L 587.826506 213.35006 
L 592.05907 261.523127 
L 596.291639 277.019358 
L 600.524203 283.083101 
L 604.756772 283.251538 
L 608.989341 288.557313 
L 613.221905 300.853236 
L 617.454474 316.517905 
L 621.687038 327.213673 
L 625.919609 328.476953 
L 630.152175 328.392734 
L 642.849883 328.561171 
L 721 328.64539 
L 721 328.64539 
" clip-path="url(#pb5ca255582)" style="fill: none; stroke: #a60628; stroke-width: 2; stroke-linecap: square"/>
   </g>
   <g id="line2d_7">
    <path d="M 54.66 390.714534 
L 60.239174 390.546096 
L 65.816741 390.377659 
L 71.405956 390.209222 
L 76.987951 390.040785 
L 82.571047 389.788129 
L 88.159152 389.535473 
L 93.742452 389.282817 
L 99.330876 388.945942 
L 104.920506 388.693286 
L 110.506244 388.356412 
L 116.089887 387.935318 
L 121.67769 387.598444 
L 127.265421 387.177351 
L 132.853828 386.756257 
L 138.441259 386.250945 
L 144.029528 385.829852 
L 149.617758 385.156103 
L 155.207566 384.566572 
L 160.797907 383.892823 
L 166.38581 383.134855 
L 171.974035 382.461106 
L 177.562417 381.534701 
L 183.15167 380.524077 
L 188.740107 379.681891 
L 194.329514 378.50283 
L 199.918991 377.492206 
L 205.50791 376.397364 
L 211.097757 375.723614 
L 216.687412 374.291897 
L 222.277401 373.365492 
L 227.867546 372.607524 
L 233.45704 370.923151 
L 239.047325 369.238778 
L 244.637251 367.30175 
L 250.2274 365.280502 
L 255.817118 363.343473 
L 261.406842 360.816914 
L 266.996611 358.121917 
L 272.586917 354.83739 
L 278.176735 351.637081 
L 283.766924 348.268335 
L 289.356621 344.731152 
L 294.94691 341.867718 
L 300.536987 342.288811 
L 306.126861 337.741004 
L 311.716934 333.530072 
L 317.307218 328.308515 
L 322.897294 323.00274 
L 328.487537 317.360091 
L 334.077545 311.296348 
L 339.667648 305.401043 
L 345.257846 305.906355 
L 350.848055 303.969326 
L 356.438252 298.579332 
L 362.028552 292.178715 
L 367.618759 290.494342 
L 373.208977 281.061854 
L 378.799138 273.229519 
L 384.389471 266.660465 
L 389.979707 262.196876 
L 395.569899 252.511732 
L 401.160156 255.12251 
L 406.750458 245.437365 
L 412.340794 241.563308 
L 417.931116 230.867539 
L 423.521413 225.22489 
L 429.111742 221.013957 
L 434.702042 215.539745 
L 440.292362 208.549597 
L 445.882664 200.969919 
L 451.47299 194.990395 
L 457.063273 188.926652 
L 462.653598 181.852286 
L 468.243932 177.557135 
L 473.834274 172.925109 
L 479.424584 169.051051 
L 485.014925 168.882614 
L 490.605261 169.977456 
L 496.195573 177.388697 
L 501.785881 188.926652 
L 507.376208 199.790858 
L 512.966546 212.002562 
L 518.55688 226.572388 
L 524.147199 265.228748 
L 529.737536 266.744683 
L 535.327862 266.744683 
L 540.918186 265.649841 
L 546.508525 264.723436 
L 552.098848 263.712812 
L 557.689178 262.281095 
L 563.279507 261.438909 
L 568.869839 260.259847 
L 574.460175 259.165005 
L 580.050508 258.407037 
L 585.640839 257.564851 
L 591.23117 256.722664 
L 596.82151 256.133134 
L 602.411844 254.954073 
L 608.002182 254.280323 
L 613.592523 253.353918 
L 619.182862 253.185481 
L 624.773202 252.59595 
L 630.363539 252.090639 
L 635.953876 251.669545 
L 641.544213 251.248452 
L 647.134553 250.74314 
L 652.724893 250.406266 
L 658.315233 249.985172 
L 663.905573 249.732516 
L 669.495912 249.395642 
L 675.086253 249.058767 
L 680.676593 248.721893 
L 686.266933 248.553455 
" clip-path="url(#pb5ca255582)" style="fill: none; stroke: #d55e00; stroke-width: 2; stroke-linecap: square"/>
   </g>
   <g id="line2d_8">
    <path d="M 54.66 390.546096 
L 101.148829 388.609068 
L 126.530697 387.008913 
L 139.220531 385.829852 
L 147.682559 385.071884 
L 164.604362 382.966418 
L 173.066207 381.703138 
L 181.527932 380.35564 
L 189.98932 378.755486 
L 194.220541 377.997518 
L 206.914608 375.134084 
L 219.610344 371.933775 
L 223.841533 370.502058 
L 232.304191 368.228155 
L 244.999526 363.596129 
L 249.230977 361.995975 
L 253.462996 360.143164 
L 257.695329 358.121917 
L 261.927021 356.269107 
L 266.159476 353.826766 
L 270.391229 351.637081 
L 274.622958 348.942084 
L 287.319118 341.278187 
L 291.551662 338.330534 
L 295.783681 334.793351 
L 304.248558 328.476953 
L 308.481043 323.67649 
L 312.713513 321.992117 
L 316.945739 318.370715 
L 321.178156 315.507281 
L 325.41036 310.875255 
L 329.642899 305.485262 
L 333.875455 300.432143 
L 338.107746 296.389648 
L 342.340162 291.168091 
L 346.57258 285.609661 
L 350.805061 279.545918 
L 355.037473 272.808426 
L 359.270039 278.282638 
L 363.502438 273.987487 
L 367.734866 268.513275 
L 371.967406 262.786407 
L 380.432298 250.658922 
L 384.664733 245.100491 
L 393.129717 233.225661 
L 397.362161 226.825044 
L 401.594604 219.329584 
L 405.827127 212.170999 
L 410.059581 205.517726 
L 414.292107 198.44336 
L 426.989642 175.95698 
L 435.454644 161.976685 
L 439.687196 154.228569 
L 443.919707 145.890923 
L 448.152238 138.563901 
L 452.384762 131.489534 
L 456.61728 124.078293 
L 465.082364 107.318782 
L 469.314919 99.907541 
L 473.547482 91.401457 
L 482.012561 75.147258 
L 490.47765 59.987902 
L 494.710191 53.081972 
L 498.942748 48.113072 
L 503.175287 40.870268 
L 507.407837 43.986358 
L 511.640398 49.207915 
L 515.872966 45.586513 
L 520.105526 48.365728 
L 524.338091 57.292905 
L 528.570655 63.440866 
L 532.803203 74.305072 
L 537.035768 87.190525 
L 541.268325 108.582062 
L 545.500896 124.330949 
L 549.733451 135.784685 
L 553.966009 141.006241 
L 558.198568 143.617019 
L 562.43113 143.785457 
L 566.663691 142.185302 
L 570.896258 140.837804 
L 575.128818 139.742962 
L 579.361376 138.142807 
L 583.593937 136.71109 
L 587.826506 135.616248 
L 592.05907 133.847656 
L 604.756772 129.636724 
L 608.989341 127.868132 
L 613.221905 127.110164 
L 617.454474 126.099541 
L 621.687038 122.39392 
L 625.919609 123.909856 
L 630.152175 122.815013 
L 634.384744 121.972827 
L 638.617312 120.962203 
L 642.849883 120.288454 
L 647.082454 119.27783 
L 659.78016 117.172364 
L 664.01273 116.414396 
L 664.01273 116.414396 
" clip-path="url(#pb5ca255582)" style="fill: none; stroke: #56b4e9; stroke-width: 2; stroke-linecap: square"/>
   </g>
   <g id="line2d_9">
    <path d="M 54.66 390.125003 
L 60.239174 389.956566 
L 65.816741 389.619691 
L 71.405956 389.367035 
L 76.987951 389.198598 
L 82.571047 388.777505 
L 88.159152 388.524849 
L 93.742452 388.187974 
L 99.330876 387.935318 
L 104.920506 387.514225 
L 110.506244 387.177351 
L 116.089887 386.756257 
L 121.67769 386.250945 
L 127.265421 385.745634 
L 132.853828 385.071884 
L 138.441259 384.566572 
L 144.029528 383.892823 
L 149.617758 383.134855 
L 155.207566 382.376888 
L 160.797907 381.61892 
L 166.38581 380.776733 
L 171.974035 379.76611 
L 177.562417 378.671267 
L 183.15167 377.660643 
L 188.740107 376.397364 
L 194.329514 375.302521 
L 199.918991 373.955023 
L 205.50791 372.607524 
L 211.097757 371.175807 
L 216.687412 369.575653 
L 222.277401 367.638624 
L 227.867546 365.701595 
L 233.45704 363.427692 
L 239.047325 361.322226 
L 244.637251 358.964103 
L 250.2274 356.6902 
L 255.817118 354.332078 
L 261.406842 351.7213 
L 266.996611 348.689428 
L 272.586917 346.07865 
L 278.176735 342.794123 
L 283.766924 339.762252 
L 289.356621 335.803975 
L 294.94691 335.130226 
L 300.536987 331.340387 
L 306.126861 326.876798 
L 311.716934 322.076335 
L 317.307218 318.286496 
L 322.897294 313.907126 
L 328.487537 309.359319 
L 334.077545 305.906355 
L 339.667648 301.442767 
L 345.257846 302.032297 
L 350.848055 301.695422 
L 356.438252 298.74777 
L 362.028552 296.979178 
L 367.618759 294.621056 
L 373.208977 294.873712 
L 378.799138 290.325905 
L 384.389471 289.904812 
L 389.979707 289.652156 
L 395.569899 292.010278 
L 401.160156 291.757622 
L 406.750458 288.725751 
L 412.340794 287.715127 
L 417.931116 288.557313 
L 423.521413 294.789493 
L 429.111742 297.821365 
L 434.702042 300.095268 
L 440.292362 301.695422 
L 445.882664 301.526985 
L 451.47299 301.442767 
L 457.063273 300.095268 
L 462.653598 299.168863 
L 468.243932 297.905583 
L 473.834274 294.284181 
L 479.424584 293.694651 
L 485.014925 293.947307 
L 490.605261 293.020902 
L 496.195573 291.926059 
L 501.785881 290.66278 
L 507.376208 289.904812 
L 512.966546 288.978407 
L 518.55688 288.388876 
L 524.147199 287.54669 
L 529.737536 284.935911 
L 535.327862 285.357005 
L 540.918186 285.188567 
L 546.508525 284.683255 
L 552.098848 284.093725 
L 557.689178 283.75685 
L 563.279507 283.251538 
L 568.869839 282.914664 
L 574.460175 282.662008 
L 580.050508 282.240915 
L 585.640839 281.482947 
L 591.23117 281.398728 
L 596.82151 281.230291 
L 602.411844 280.809198 
L 608.002182 280.64076 
L 613.592523 278.535294 
L 619.182862 280.05123 
L 624.773202 279.714355 
L 630.363539 279.714355 
L 635.953876 279.293262 
L 641.544213 279.882793 
L 647.134553 279.630137 
L 652.724893 279.293262 
L 658.315233 279.461699 
L 663.905573 278.19842 
L 669.495912 278.78795 
L 675.086253 278.19842 
L 680.676593 279.040606 
L 686.266933 279.040606 
L 691.857273 279.040606 
L 697.447613 279.377481 
L 703.037954 279.124825 
L 708.628293 279.209043 
L 714.218634 280.388104 
L 719.808973 281.31451 
L 721 281.386281 
" clip-path="url(#pb5ca255582)" style="fill: none; stroke: #f0e442; stroke-width: 2; stroke-linecap: square"/>
   </g>
   <g id="line2d_10">
    <path d="M 54.66 391.135627 
L 75.791415 390.630315 
L 118.072291 388.861724 
L 139.220531 387.514225 
L 160.372962 385.745634 
L 173.066207 384.398135 
L 189.98932 382.292669 
L 198.451887 381.029389 
L 206.914608 379.681891 
L 228.073127 375.38674 
L 240.768013 372.354868 
L 253.462996 368.733467 
L 257.695329 367.133312 
L 266.159476 364.438315 
L 270.391229 362.92238 
L 274.622958 361.995975 
L 278.85527 360.311602 
L 283.087123 358.795666 
L 291.551662 355.174264 
L 300.01601 351.805518 
L 304.248558 349.952708 
L 308.481043 347.173493 
L 312.713513 345.320682 
L 316.945739 340.857094 
L 321.178156 338.246316 
L 325.41036 336.477724 
L 329.642899 333.108978 
L 333.875455 329.992888 
L 338.107746 327.129454 
L 346.57258 321.655242 
L 350.805061 318.539152 
L 355.037473 316.433686 
L 359.270039 316.18103 
L 363.502438 315.254625 
L 367.734866 314.91775 
L 371.967406 319.88665 
L 376.199799 320.981493 
L 380.432298 319.212901 
L 384.664733 317.107435 
L 388.897294 314.496657 
L 397.362161 310.538381 
L 401.594604 308.180258 
L 405.827127 306.243229 
L 410.059581 303.800889 
L 414.292107 301.695422 
L 418.524661 299.421519 
L 422.757134 297.652927 
L 426.989642 295.715898 
L 431.222127 293.441995 
L 435.454644 291.926059 
L 448.152238 285.946535 
L 456.61728 282.914664 
L 460.849842 281.061854 
L 465.082364 279.377481 
L 469.314919 277.52467 
L 473.547482 276.092953 
L 477.780023 274.492799 
L 482.012561 311.885879 
L 486.245113 307.001197 
L 490.47765 301.86386 
L 494.710191 296.473866 
L 498.942748 290.66278 
L 503.175287 287.462471 
L 511.640398 283.841069 
L 515.872966 282.072477 
L 524.338091 278.956387 
L 532.803203 275.67186 
L 537.035768 274.324362 
L 541.268325 272.808426 
L 545.500896 271.545146 
L 549.733451 270.113429 
L 562.43113 266.407809 
L 566.663691 265.397185 
L 570.896258 264.133905 
L 575.128818 263.2075 
L 579.361376 262.112658 
L 587.826506 260.512503 
L 596.291639 258.659693 
L 604.756772 257.143757 
L 608.989341 262.112658 
L 613.221905 322.41321 
L 617.454474 348.268335 
L 621.687038 353.405673 
L 625.919609 354.332078 
L 630.152175 355.090046 
L 634.384744 354.921608 
L 642.849883 355.005827 
L 655.547591 354.83739 
L 672.477871 354.753171 
L 680.943011 354.668952 
L 702.10586 354.584734 
L 710.570998 354.500515 
L 719.036139 354.500515 
L 719.036139 354.500515 
" clip-path="url(#pb5ca255582)" style="fill: none; stroke: #0072b2; stroke-width: 2; stroke-linecap: square"/>
   </g>
   <g id="matplotlib.axis_1">
    <g id="xtick_1">
     <g id="line2d_11">
      <path d="M 105.009231 392.82 
L 105.009231 10.8 
" clip-path="url(#pb5ca255582)" style="fill: none; stroke-dasharray: 1.85,0.8; stroke-dashoffset: 0; stroke: #b2b2b2; stroke-width: 0.5"/>
     </g>
     <g id="line2d_12">
      <defs>
       <path id="m0c6d13b341" d="M 0 0 
L 0 -3.5 
" style="stroke: #000000; stroke-width: 0.8"/>
      </defs>
      <g>
       <use xlink:href="#m0c6d13b341" x="105.009231" y="392.82" style="stroke: #000000; stroke-width: 0.8"/>
      </g>
     </g>
     <g id="text_1">
      <!-- 128 -->
      <g transform="translate(95.465481 403.918437) scale(0.1 -0.1)">
       <defs>
        <path id="DejaVuSans-31" d="M 794 531 
L 1825 531 
L 1825 4091 
L 703 3866 
L 703 4441 
L 1819 4666 
L 2450 4666 
L 2450 531 
L 3481 531 
L 3481 0 
L 794 0 
L 794 531 
z
" transform="scale(0.015625)"/>
        <path id="DejaVuSans-32" d="M 1228 531 
L 3431 531 
L 3431 0 
L 469 0 
L 469 531 
Q 828 903 1448 1529 
Q 2069 2156 2228 2338 
Q 2531 2678 2651 2914 
Q 2772 3150 2772 3378 
Q 2772 3750 2511 3984 
Q 2250 4219 1831 4219 
Q 1534 4219 1204 4116 
Q 875 4013 500 3803 
L 500 4441 
Q 881 4594 1212 4672 
Q 1544 4750 1819 4750 
Q 2544 4750 2975 4387 
Q 3406 4025 3406 3419 
Q 3406 3131 3298 2873 
Q 3191 2616 2906 2266 
Q 2828 2175 2409 1742 
Q 1991 1309 1228 531 
z
" transform="scale(0.015625)"/>
        <path id="DejaVuSans-38" d="M 2034 2216 
Q 1584 2216 1326 1975 
Q 1069 1734 1069 1313 
Q 1069 891 1326 650 
Q 1584 409 2034 409 
Q 2484 409 2743 651 
Q 3003 894 3003 1313 
Q 3003 1734 2745 1975 
Q 2488 2216 2034 2216 
z
M 1403 2484 
Q 997 2584 770 2862 
Q 544 3141 544 3541 
Q 544 4100 942 4425 
Q 1341 4750 2034 4750 
Q 2731 4750 3128 4425 
Q 3525 4100 3525 3541 
Q 3525 3141 3298 2862 
Q 3072 2584 2669 2484 
Q 3125 2378 3379 2068 
Q 3634 1759 3634 1313 
Q 3634 634 3220 271 
Q 2806 -91 2034 -91 
Q 1263 -91 848 271 
Q 434 634 434 1313 
Q 434 1759 690 2068 
Q 947 2378 1403 2484 
z
M 1172 3481 
Q 1172 3119 1398 2916 
Q 1625 2713 2034 2713 
Q 2441 2713 2670 2916 
Q 2900 3119 2900 3481 
Q 2900 3844 2670 4047 
Q 2441 4250 2034 4250 
Q 1625 4250 1398 4047 
Q 1172 3844 1172 3481 
z
" transform="scale(0.015625)"/>
       </defs>
       <use xlink:href="#DejaVuSans-31"/>
       <use xlink:href="#DejaVuSans-32" x="63.623047"/>
       <use xlink:href="#DejaVuSans-38" x="127.246094"/>
      </g>
     </g>
    </g>
    <g id="xtick_2">
     <g id="line2d_13">
      <path d="M 155.358462 392.82 
L 155.358462 10.8 
" clip-path="url(#pb5ca255582)" style="fill: none; stroke-dasharray: 1.85,0.8; stroke-dashoffset: 0; stroke: #b2b2b2; stroke-width: 0.5"/>
     </g>
     <g id="line2d_14">
      <g>
       <use xlink:href="#m0c6d13b341" x="155.358462" y="392.82" style="stroke: #000000; stroke-width: 0.8"/>
      </g>
     </g>
     <g id="text_2">
      <!-- 256 -->
      <g transform="translate(145.814712 403.918437) scale(0.1 -0.1)">
       <defs>
        <path id="DejaVuSans-35" d="M 691 4666 
L 3169 4666 
L 3169 4134 
L 1269 4134 
L 1269 2991 
Q 1406 3038 1543 3061 
Q 1681 3084 1819 3084 
Q 2600 3084 3056 2656 
Q 3513 2228 3513 1497 
Q 3513 744 3044 326 
Q 2575 -91 1722 -91 
Q 1428 -91 1123 -41 
Q 819 9 494 109 
L 494 744 
Q 775 591 1075 516 
Q 1375 441 1709 441 
Q 2250 441 2565 725 
Q 2881 1009 2881 1497 
Q 2881 1984 2565 2268 
Q 2250 2553 1709 2553 
Q 1456 2553 1204 2497 
Q 953 2441 691 2322 
L 691 4666 
z
" transform="scale(0.015625)"/>
        <path id="DejaVuSans-36" d="M 2113 2584 
Q 1688 2584 1439 2293 
Q 1191 2003 1191 1497 
Q 1191 994 1439 701 
Q 1688 409 2113 409 
Q 2538 409 2786 701 
Q 3034 994 3034 1497 
Q 3034 2003 2786 2293 
Q 2538 2584 2113 2584 
z
M 3366 4563 
L 3366 3988 
Q 3128 4100 2886 4159 
Q 2644 4219 2406 4219 
Q 1781 4219 1451 3797 
Q 1122 3375 1075 2522 
Q 1259 2794 1537 2939 
Q 1816 3084 2150 3084 
Q 2853 3084 3261 2657 
Q 3669 2231 3669 1497 
Q 3669 778 3244 343 
Q 2819 -91 2113 -91 
Q 1303 -91 875 529 
Q 447 1150 447 2328 
Q 447 3434 972 4092 
Q 1497 4750 2381 4750 
Q 2619 4750 2861 4703 
Q 3103 4656 3366 4563 
z
" transform="scale(0.015625)"/>
       </defs>
       <use xlink:href="#DejaVuSans-32"/>
       <use xlink:href="#DejaVuSans-35" x="63.623047"/>
       <use xlink:href="#DejaVuSans-36" x="127.246094"/>
      </g>
     </g>
    </g>
    <g id="xtick_3">
     <g id="line2d_15">
      <path d="M 205.707692 392.82 
L 205.707692 10.8 
" clip-path="url(#pb5ca255582)" style="fill: none; stroke-dasharray: 1.85,0.8; stroke-dashoffset: 0; stroke: #b2b2b2; stroke-width: 0.5"/>
     </g>
     <g id="line2d_16">
      <g>
       <use xlink:href="#m0c6d13b341" x="205.707692" y="392.82" style="stroke: #000000; stroke-width: 0.8"/>
      </g>
     </g>
     <g id="text_3">
      <!-- 512 -->
      <g transform="translate(196.163942 403.918437) scale(0.1 -0.1)">
       <use xlink:href="#DejaVuSans-35"/>
       <use xlink:href="#DejaVuSans-31" x="63.623047"/>
       <use xlink:href="#DejaVuSans-32" x="127.246094"/>
      </g>
     </g>
    </g>
    <g id="xtick_4">
     <g id="line2d_17">
      <path d="M 256.056923 392.82 
L 256.056923 10.8 
" clip-path="url(#pb5ca255582)" style="fill: none; stroke-dasharray: 1.85,0.8; stroke-dashoffset: 0; stroke: #b2b2b2; stroke-width: 0.5"/>
     </g>
     <g id="line2d_18">
      <g>
       <use xlink:href="#m0c6d13b341" x="256.056923" y="392.82" style="stroke: #000000; stroke-width: 0.8"/>
      </g>
     </g>
     <g id="text_4">
      <!-- 1024 -->
      <g transform="translate(243.331923 403.918437) scale(0.1 -0.1)">
       <defs>
        <path id="DejaVuSans-30" d="M 2034 4250 
Q 1547 4250 1301 3770 
Q 1056 3291 1056 2328 
Q 1056 1369 1301 889 
Q 1547 409 2034 409 
Q 2525 409 2770 889 
Q 3016 1369 3016 2328 
Q 3016 3291 2770 3770 
Q 2525 4250 2034 4250 
z
M 2034 4750 
Q 2819 4750 3233 4129 
Q 3647 3509 3647 2328 
Q 3647 1150 3233 529 
Q 2819 -91 2034 -91 
Q 1250 -91 836 529 
Q 422 1150 422 2328 
Q 422 3509 836 4129 
Q 1250 4750 2034 4750 
z
" transform="scale(0.015625)"/>
        <path id="DejaVuSans-34" d="M 2419 4116 
L 825 1625 
L 2419 1625 
L 2419 4116 
z
M 2253 4666 
L 3047 4666 
L 3047 1625 
L 3713 1625 
L 3713 1100 
L 3047 1100 
L 3047 0 
L 2419 0 
L 2419 1100 
L 313 1100 
L 313 1709 
L 2253 4666 
z
" transform="scale(0.015625)"/>
       </defs>
       <use xlink:href="#DejaVuSans-31"/>
       <use xlink:href="#DejaVuSans-30" x="63.623047"/>
       <use xlink:href="#DejaVuSans-32" x="127.246094"/>
       <use xlink:href="#DejaVuSans-34" x="190.869141"/>
      </g>
     </g>
    </g>
    <g id="xtick_5">
     <g id="line2d_19">
      <path d="M 306.406154 392.82 
L 306.406154 10.8 
" clip-path="url(#pb5ca255582)" style="fill: none; stroke-dasharray: 1.85,0.8; stroke-dashoffset: 0; stroke: #b2b2b2; stroke-width: 0.5"/>
     </g>
     <g id="line2d_20">
      <g>
       <use xlink:href="#m0c6d13b341" x="306.406154" y="392.82" style="stroke: #000000; stroke-width: 0.8"/>
      </g>
     </g>
     <g id="text_5">
      <!-- 2048 -->
      <g transform="translate(293.681154 403.918437) scale(0.1 -0.1)">
       <use xlink:href="#DejaVuSans-32"/>
       <use xlink:href="#DejaVuSans-30" x="63.623047"/>
       <use xlink:href="#DejaVuSans-34" x="127.246094"/>
       <use xlink:href="#DejaVuSans-38" x="190.869141"/>
      </g>
     </g>
    </g>
    <g id="xtick_6">
     <g id="line2d_21">
      <path d="M 407.104615 392.82 
L 407.104615 10.8 
" clip-path="url(#pb5ca255582)" style="fill: none; stroke-dasharray: 1.85,0.8; stroke-dashoffset: 0; stroke: #b2b2b2; stroke-width: 0.5"/>
     </g>
     <g id="line2d_22">
      <g>
       <use xlink:href="#m0c6d13b341" x="407.104615" y="392.82" style="stroke: #000000; stroke-width: 0.8"/>
      </g>
     </g>
     <g id="text_6">
      <!-- 8192 -->
      <g transform="translate(394.379615 403.918437) scale(0.1 -0.1)">
       <defs>
        <path id="DejaVuSans-39" d="M 703 97 
L 703 672 
Q 941 559 1184 500 
Q 1428 441 1663 441 
Q 2288 441 2617 861 
Q 2947 1281 2994 2138 
Q 2813 1869 2534 1725 
Q 2256 1581 1919 1581 
Q 1219 1581 811 2004 
Q 403 2428 403 3163 
Q 403 3881 828 4315 
Q 1253 4750 1959 4750 
Q 2769 4750 3195 4129 
Q 3622 3509 3622 2328 
Q 3622 1225 3098 567 
Q 2575 -91 1691 -91 
Q 1453 -91 1209 -44 
Q 966 3 703 97 
z
M 1959 2075 
Q 2384 2075 2632 2365 
Q 2881 2656 2881 3163 
Q 2881 3666 2632 3958 
Q 2384 4250 1959 4250 
Q 1534 4250 1286 3958 
Q 1038 3666 1038 3163 
Q 1038 2656 1286 2365 
Q 1534 2075 1959 2075 
z
" transform="scale(0.015625)"/>
       </defs>
       <use xlink:href="#DejaVuSans-38"/>
       <use xlink:href="#DejaVuSans-31" x="63.623047"/>
       <use xlink:href="#DejaVuSans-39" x="127.246094"/>
       <use xlink:href="#DejaVuSans-32" x="190.869141"/>
      </g>
     </g>
    </g>
    <g id="xtick_7">
     <g id="line2d_23">
      <path d="M 473.662678 392.82 
L 473.662678 10.8 
" clip-path="url(#pb5ca255582)" style="fill: none; stroke-dasharray: 1.85,0.8; stroke-dashoffset: 0; stroke: #b2b2b2; stroke-width: 0.5"/>
     </g>
     <g id="line2d_24">
      <g>
       <use xlink:href="#m0c6d13b341" x="473.662678" y="392.82" style="stroke: #000000; stroke-width: 0.8"/>
      </g>
     </g>
     <g id="text_7">
      <!-- 20480 -->
      <g transform="translate(457.756428 403.918437) scale(0.1 -0.1)">
       <use xlink:href="#DejaVuSans-32"/>
       <use xlink:href="#DejaVuSans-30" x="63.623047"/>
       <use xlink:href="#DejaVuSans-34" x="127.246094"/>
       <use xlink:href="#DejaVuSans-38" x="190.869141"/>
       <use xlink:href="#DejaVuSans-30" x="254.492188"/>
      </g>
     </g>
    </g>
    <g id="xtick_8">
     <g id="line2d_25">
      <path d="M 558.152308 392.82 
L 558.152308 10.8 
" clip-path="url(#pb5ca255582)" style="fill: none; stroke-dasharray: 1.85,0.8; stroke-dashoffset: 0; stroke: #b2b2b2; stroke-width: 0.5"/>
     </g>
     <g id="line2d_26">
      <g>
       <use xlink:href="#m0c6d13b341" x="558.152308" y="392.82" style="stroke: #000000; stroke-width: 0.8"/>
      </g>
     </g>
     <g id="text_8">
      <!-- 65536 -->
      <g transform="translate(542.246058 403.918437) scale(0.1 -0.1)">
       <defs>
        <path id="DejaVuSans-33" d="M 2597 2516 
Q 3050 2419 3304 2112 
Q 3559 1806 3559 1356 
Q 3559 666 3084 287 
Q 2609 -91 1734 -91 
Q 1441 -91 1130 -33 
Q 819 25 488 141 
L 488 750 
Q 750 597 1062 519 
Q 1375 441 1716 441 
Q 2309 441 2620 675 
Q 2931 909 2931 1356 
Q 2931 1769 2642 2001 
Q 2353 2234 1838 2234 
L 1294 2234 
L 1294 2753 
L 1863 2753 
Q 2328 2753 2575 2939 
Q 2822 3125 2822 3475 
Q 2822 3834 2567 4026 
Q 2313 4219 1838 4219 
Q 1578 4219 1281 4162 
Q 984 4106 628 3988 
L 628 4550 
Q 988 4650 1302 4700 
Q 1616 4750 1894 4750 
Q 2613 4750 3031 4423 
Q 3450 4097 3450 3541 
Q 3450 3153 3228 2886 
Q 3006 2619 2597 2516 
z
" transform="scale(0.015625)"/>
       </defs>
       <use xlink:href="#DejaVuSans-36"/>
       <use xlink:href="#DejaVuSans-35" x="63.623047"/>
       <use xlink:href="#DejaVuSans-35" x="127.246094"/>
       <use xlink:href="#DejaVuSans-33" x="190.869141"/>
       <use xlink:href="#DejaVuSans-36" x="254.492188"/>
      </g>
     </g>
    </g>
    <g id="xtick_9">
     <g id="line2d_27">
      <defs>
       <path id="mbdbdc5659b" d="M 0 0 
L 0 -2 
" style="stroke: #000000; stroke-width: 0.6"/>
      </defs>
      <g>
       <use xlink:href="#mbdbdc5659b" x="61.1693" y="392.82" style="stroke: #000000; stroke-width: 0.6"/>
      </g>
     </g>
    </g>
    <g id="xtick_10">
     <g id="line2d_28">
      <g>
       <use xlink:href="#mbdbdc5659b" x="70.868832" y="392.82" style="stroke: #000000; stroke-width: 0.6"/>
      </g>
     </g>
    </g>
    <g id="xtick_11">
     <g id="line2d_29">
      <g>
       <use xlink:href="#mbdbdc5659b" x="79.424425" y="392.82" style="stroke: #000000; stroke-width: 0.6"/>
      </g>
     </g>
    </g>
    <g id="xtick_12">
     <g id="line2d_30">
      <g>
       <use xlink:href="#mbdbdc5659b" x="137.426895" y="392.82" style="stroke: #000000; stroke-width: 0.6"/>
      </g>
     </g>
    </g>
    <g id="xtick_13">
     <g id="line2d_31">
      <g>
       <use xlink:href="#mbdbdc5659b" x="166.879307" y="392.82" style="stroke: #000000; stroke-width: 0.6"/>
      </g>
     </g>
    </g>
    <g id="xtick_14">
     <g id="line2d_32">
      <g>
       <use xlink:href="#mbdbdc5659b" x="187.776125" y="392.82" style="stroke: #000000; stroke-width: 0.6"/>
      </g>
     </g>
    </g>
    <g id="xtick_15">
     <g id="line2d_33">
      <g>
       <use xlink:href="#mbdbdc5659b" x="203.984957" y="392.82" style="stroke: #000000; stroke-width: 0.6"/>
      </g>
     </g>
    </g>
    <g id="xtick_16">
     <g id="line2d_34">
      <g>
       <use xlink:href="#mbdbdc5659b" x="217.228537" y="392.82" style="stroke: #000000; stroke-width: 0.6"/>
      </g>
     </g>
    </g>
    <g id="xtick_17">
     <g id="line2d_35">
      <g>
       <use xlink:href="#mbdbdc5659b" x="228.425825" y="392.82" style="stroke: #000000; stroke-width: 0.6"/>
      </g>
     </g>
    </g>
    <g id="xtick_18">
     <g id="line2d_36">
      <g>
       <use xlink:href="#mbdbdc5659b" x="238.125356" y="392.82" style="stroke: #000000; stroke-width: 0.6"/>
      </g>
     </g>
    </g>
    <g id="xtick_19">
     <g id="line2d_37">
      <g>
       <use xlink:href="#mbdbdc5659b" x="246.680949" y="392.82" style="stroke: #000000; stroke-width: 0.6"/>
      </g>
     </g>
    </g>
    <g id="xtick_20">
     <g id="line2d_38">
      <g>
       <use xlink:href="#mbdbdc5659b" x="304.683419" y="392.82" style="stroke: #000000; stroke-width: 0.6"/>
      </g>
     </g>
    </g>
    <g id="xtick_21">
     <g id="line2d_39">
      <g>
       <use xlink:href="#mbdbdc5659b" x="334.135831" y="392.82" style="stroke: #000000; stroke-width: 0.6"/>
      </g>
     </g>
    </g>
    <g id="xtick_22">
     <g id="line2d_40">
      <g>
       <use xlink:href="#mbdbdc5659b" x="355.03265" y="392.82" style="stroke: #000000; stroke-width: 0.6"/>
      </g>
     </g>
    </g>
    <g id="xtick_23">
     <g id="line2d_41">
      <g>
       <use xlink:href="#mbdbdc5659b" x="371.241482" y="392.82" style="stroke: #000000; stroke-width: 0.6"/>
      </g>
     </g>
    </g>
    <g id="xtick_24">
     <g id="line2d_42">
      <g>
       <use xlink:href="#mbdbdc5659b" x="384.485062" y="392.82" style="stroke: #000000; stroke-width: 0.6"/>
      </g>
     </g>
    </g>
    <g id="xtick_25">
     <g id="line2d_43">
      <g>
       <use xlink:href="#mbdbdc5659b" x="395.682349" y="392.82" style="stroke: #000000; stroke-width: 0.6"/>
      </g>
     </g>
    </g>
    <g id="xtick_26">
     <g id="line2d_44">
      <g>
       <use xlink:href="#mbdbdc5659b" x="405.38188" y="392.82" style="stroke: #000000; stroke-width: 0.6"/>
      </g>
     </g>
    </g>
    <g id="xtick_27">
     <g id="line2d_45">
      <g>
       <use xlink:href="#mbdbdc5659b" x="413.937474" y="392.82" style="stroke: #000000; stroke-width: 0.6"/>
      </g>
     </g>
    </g>
    <g id="xtick_28">
     <g id="line2d_46">
      <g>
       <use xlink:href="#mbdbdc5659b" x="471.939943" y="392.82" style="stroke: #000000; stroke-width: 0.6"/>
      </g>
     </g>
    </g>
    <g id="xtick_29">
     <g id="line2d_47">
      <g>
       <use xlink:href="#mbdbdc5659b" x="501.392355" y="392.82" style="stroke: #000000; stroke-width: 0.6"/>
      </g>
     </g>
    </g>
    <g id="xtick_30">
     <g id="line2d_48">
      <g>
       <use xlink:href="#mbdbdc5659b" x="522.289174" y="392.82" style="stroke: #000000; stroke-width: 0.6"/>
      </g>
     </g>
    </g>
    <g id="xtick_31">
     <g id="line2d_49">
      <g>
       <use xlink:href="#mbdbdc5659b" x="538.498006" y="392.82" style="stroke: #000000; stroke-width: 0.6"/>
      </g>
     </g>
    </g>
    <g id="xtick_32">
     <g id="line2d_50">
      <g>
       <use xlink:href="#mbdbdc5659b" x="551.741586" y="392.82" style="stroke: #000000; stroke-width: 0.6"/>
      </g>
     </g>
    </g>
    <g id="xtick_33">
     <g id="line2d_51">
      <g>
       <use xlink:href="#mbdbdc5659b" x="562.938873" y="392.82" style="stroke: #000000; stroke-width: 0.6"/>
      </g>
     </g>
    </g>
    <g id="xtick_34">
     <g id="line2d_52">
      <g>
       <use xlink:href="#mbdbdc5659b" x="572.638405" y="392.82" style="stroke: #000000; stroke-width: 0.6"/>
      </g>
     </g>
    </g>
    <g id="xtick_35">
     <g id="line2d_53">
      <g>
       <use xlink:href="#mbdbdc5659b" x="581.193998" y="392.82" style="stroke: #000000; stroke-width: 0.6"/>
      </g>
     </g>
    </g>
    <g id="xtick_36">
     <g id="line2d_54">
      <g>
       <use xlink:href="#mbdbdc5659b" x="639.196467" y="392.82" style="stroke: #000000; stroke-width: 0.6"/>
      </g>
     </g>
    </g>
    <g id="xtick_37">
     <g id="line2d_55">
      <g>
       <use xlink:href="#mbdbdc5659b" x="668.648879" y="392.82" style="stroke: #000000; stroke-width: 0.6"/>
      </g>
     </g>
    </g>
    <g id="xtick_38">
     <g id="line2d_56">
      <g>
       <use xlink:href="#mbdbdc5659b" x="689.545698" y="392.82" style="stroke: #000000; stroke-width: 0.6"/>
      </g>
     </g>
    </g>
    <g id="xtick_39">
     <g id="line2d_57">
      <g>
       <use xlink:href="#mbdbdc5659b" x="705.75453" y="392.82" style="stroke: #000000; stroke-width: 0.6"/>
      </g>
     </g>
    </g>
    <g id="text_9">
     <!-- grid size, kB -->
     <g transform="translate(345.233438 419.11625) scale(0.12 -0.12)">
      <defs>
       <path id="DejaVuSans-67" d="M 2906 1791 
Q 2906 2416 2648 2759 
Q 2391 3103 1925 3103 
Q 1463 3103 1205 2759 
Q 947 2416 947 1791 
Q 947 1169 1205 825 
Q 1463 481 1925 481 
Q 2391 481 2648 825 
Q 2906 1169 2906 1791 
z
M 3481 434 
Q 3481 -459 3084 -895 
Q 2688 -1331 1869 -1331 
Q 1566 -1331 1297 -1286 
Q 1028 -1241 775 -1147 
L 775 -588 
Q 1028 -725 1275 -790 
Q 1522 -856 1778 -856 
Q 2344 -856 2625 -561 
Q 2906 -266 2906 331 
L 2906 616 
Q 2728 306 2450 153 
Q 2172 0 1784 0 
Q 1141 0 747 490 
Q 353 981 353 1791 
Q 353 2603 747 3093 
Q 1141 3584 1784 3584 
Q 2172 3584 2450 3431 
Q 2728 3278 2906 2969 
L 2906 3500 
L 3481 3500 
L 3481 434 
z
" transform="scale(0.015625)"/>
       <path id="DejaVuSans-72" d="M 2631 2963 
Q 2534 3019 2420 3045 
Q 2306 3072 2169 3072 
Q 1681 3072 1420 2755 
Q 1159 2438 1159 1844 
L 1159 0 
L 581 0 
L 581 3500 
L 1159 3500 
L 1159 2956 
Q 1341 3275 1631 3429 
Q 1922 3584 2338 3584 
Q 2397 3584 2469 3576 
Q 2541 3569 2628 3553 
L 2631 2963 
z
" transform="scale(0.015625)"/>
       <path id="DejaVuSans-69" d="M 603 3500 
L 1178 3500 
L 1178 0 
L 603 0 
L 603 3500 
z
M 603 4863 
L 1178 4863 
L 1178 4134 
L 603 4134 
L 603 4863 
z
" transform="scale(0.015625)"/>
       <path id="DejaVuSans-64" d="M 2906 2969 
L 2906 4863 
L 3481 4863 
L 3481 0 
L 2906 0 
L 2906 525 
Q 2725 213 2448 61 
Q 2172 -91 1784 -91 
Q 1150 -91 751 415 
Q 353 922 353 1747 
Q 353 2572 751 3078 
Q 1150 3584 1784 3584 
Q 2172 3584 2448 3432 
Q 2725 3281 2906 2969 
z
M 947 1747 
Q 947 1113 1208 752 
Q 1469 391 1925 391 
Q 2381 391 2643 752 
Q 2906 1113 2906 1747 
Q 2906 2381 2643 2742 
Q 2381 3103 1925 3103 
Q 1469 3103 1208 2742 
Q 947 2381 947 1747 
z
" transform="scale(0.015625)"/>
       <path id="DejaVuSans-20" transform="scale(0.015625)"/>
       <path id="DejaVuSans-73" d="M 2834 3397 
L 2834 2853 
Q 2591 2978 2328 3040 
Q 2066 3103 1784 3103 
Q 1356 3103 1142 2972 
Q 928 2841 928 2578 
Q 928 2378 1081 2264 
Q 1234 2150 1697 2047 
L 1894 2003 
Q 2506 1872 2764 1633 
Q 3022 1394 3022 966 
Q 3022 478 2636 193 
Q 2250 -91 1575 -91 
Q 1294 -91 989 -36 
Q 684 19 347 128 
L 347 722 
Q 666 556 975 473 
Q 1284 391 1588 391 
Q 1994 391 2212 530 
Q 2431 669 2431 922 
Q 2431 1156 2273 1281 
Q 2116 1406 1581 1522 
L 1381 1569 
Q 847 1681 609 1914 
Q 372 2147 372 2553 
Q 372 3047 722 3315 
Q 1072 3584 1716 3584 
Q 2034 3584 2315 3537 
Q 2597 3491 2834 3397 
z
" transform="scale(0.015625)"/>
       <path id="DejaVuSans-7a" d="M 353 3500 
L 3084 3500 
L 3084 2975 
L 922 459 
L 3084 459 
L 3084 0 
L 275 0 
L 275 525 
L 2438 3041 
L 353 3041 
L 353 3500 
z
" transform="scale(0.015625)"/>
       <path id="DejaVuSans-65" d="M 3597 1894 
L 3597 1613 
L 953 1613 
Q 991 1019 1311 708 
Q 1631 397 2203 397 
Q 2534 397 2845 478 
Q 3156 559 3463 722 
L 3463 178 
Q 3153 47 2828 -22 
Q 2503 -91 2169 -91 
Q 1331 -91 842 396 
Q 353 884 353 1716 
Q 353 2575 817 3079 
Q 1281 3584 2069 3584 
Q 2775 3584 3186 3129 
Q 3597 2675 3597 1894 
z
M 3022 2063 
Q 3016 2534 2758 2815 
Q 2500 3097 2075 3097 
Q 1594 3097 1305 2825 
Q 1016 2553 972 2059 
L 3022 2063 
z
" transform="scale(0.015625)"/>
       <path id="DejaVuSans-2c" d="M 750 794 
L 1409 794 
L 1409 256 
L 897 -744 
L 494 -744 
L 750 256 
L 750 794 
z
" transform="scale(0.015625)"/>
       <path id="DejaVuSans-6b" d="M 581 4863 
L 1159 4863 
L 1159 1991 
L 2875 3500 
L 3609 3500 
L 1753 1863 
L 3688 0 
L 2938 0 
L 1159 1709 
L 1159 0 
L 581 0 
L 581 4863 
z
" transform="scale(0.015625)"/>
       <path id="DejaVuSans-42" d="M 1259 2228 
L 1259 519 
L 2272 519 
Q 2781 519 3026 730 
Q 3272 941 3272 1375 
Q 3272 1813 3026 2020 
Q 2781 2228 2272 2228 
L 1259 2228 
z
M 1259 4147 
L 1259 2741 
L 2194 2741 
Q 2656 2741 2882 2914 
Q 3109 3088 3109 3444 
Q 3109 3797 2882 3972 
Q 2656 4147 2194 4147 
L 1259 4147 
z
M 628 4666 
L 2241 4666 
Q 2963 4666 3353 4366 
Q 3744 4066 3744 3513 
Q 3744 3084 3544 2831 
Q 3344 2578 2956 2516 
Q 3422 2416 3680 2098 
Q 3938 1781 3938 1306 
Q 3938 681 3513 340 
Q 3088 0 2303 0 
L 628 0 
L 628 4666 
z
" transform="scale(0.015625)"/>
      </defs>
      <use xlink:href="#DejaVuSans-67"/>
      <use xlink:href="#DejaVuSans-72" x="63.476562"/>
      <use xlink:href="#DejaVuSans-69" x="104.589844"/>
      <use xlink:href="#DejaVuSans-64" x="132.373047"/>
      <use xlink:href="#DejaVuSans-20" x="195.849609"/>
      <use xlink:href="#DejaVuSans-73" x="227.636719"/>
      <use xlink:href="#DejaVuSans-69" x="279.736328"/>
      <use xlink:href="#DejaVuSans-7a" x="307.519531"/>
      <use xlink:href="#DejaVuSans-65" x="360.009766"/>
      <use xlink:href="#DejaVuSans-2c" x="421.533203"/>
      <use xlink:href="#DejaVuSans-20" x="453.320312"/>
      <use xlink:href="#DejaVuSans-6b" x="485.107422"/>
      <use xlink:href="#DejaVuSans-42" x="543.017578"/>
     </g>
    </g>
   </g>
   <g id="matplotlib.axis_2">
    <g id="ytick_1">
     <g id="line2d_58">
      <path d="M 54.66 392.82 
L 709.2 392.82 
" clip-path="url(#pb5ca255582)" style="fill: none; stroke-dasharray: 1.85,0.8; stroke-dashoffset: 0; stroke: #b2b2b2; stroke-width: 0.5"/>
     </g>
     <g id="line2d_59">
      <defs>
       <path id="m3f060bf900" d="M 0 0 
L 3.5 0 
" style="stroke: #000000; stroke-width: 0.8"/>
      </defs>
      <g>
       <use xlink:href="#m3f060bf900" x="54.66" y="392.82" style="stroke: #000000; stroke-width: 0.8"/>
      </g>
     </g>
     <g id="text_10">
      <!-- 0 -->
      <g transform="translate(44.7975 396.619219) scale(0.1 -0.1)">
       <use xlink:href="#DejaVuSans-30"/>
      </g>
     </g>
    </g>
    <g id="ytick_2">
     <g id="line2d_60">
      <path d="M 54.66 308.601352 
L 709.2 308.601352 
" clip-path="url(#pb5ca255582)" style="fill: none; stroke-dasharray: 1.85,0.8; stroke-dashoffset: 0; stroke: #b2b2b2; stroke-width: 0.5"/>
     </g>
     <g id="line2d_61">
      <g>
       <use xlink:href="#m3f060bf900" x="54.66" y="308.601352" style="stroke: #000000; stroke-width: 0.8"/>
      </g>
     </g>
     <g id="text_11">
      <!-- 1000 -->
      <g transform="translate(25.71 312.40057) scale(0.1 -0.1)">
       <use xlink:href="#DejaVuSans-31"/>
       <use xlink:href="#DejaVuSans-30" x="63.623047"/>
       <use xlink:href="#DejaVuSans-30" x="127.246094"/>
       <use xlink:href="#DejaVuSans-30" x="190.869141"/>
      </g>
     </g>
    </g>
    <g id="ytick_3">
     <g id="line2d_62">
      <path d="M 54.66 224.382703 
L 709.2 224.382703 
" clip-path="url(#pb5ca255582)" style="fill: none; stroke-dasharray: 1.85,0.8; stroke-dashoffset: 0; stroke: #b2b2b2; stroke-width: 0.5"/>
     </g>
     <g id="line2d_63">
      <g>
       <use xlink:href="#m3f060bf900" x="54.66" y="224.382703" style="stroke: #000000; stroke-width: 0.8"/>
      </g>
     </g>
     <g id="text_12">
      <!-- 2000 -->
      <g transform="translate(25.71 228.181922) scale(0.1 -0.1)">
       <use xlink:href="#DejaVuSans-32"/>
       <use xlink:href="#DejaVuSans-30" x="63.623047"/>
       <use xlink:href="#DejaVuSans-30" x="127.246094"/>
       <use xlink:href="#DejaVuSans-30" x="190.869141"/>
      </g>
     </g>
    </g>
    <g id="ytick_4">
     <g id="line2d_64">
      <path d="M 54.66 140.164055 
L 709.2 140.164055 
" clip-path="url(#pb5ca255582)" style="fill: none; stroke-dasharray: 1.85,0.8; stroke-dashoffset: 0; stroke: #b2b2b2; stroke-width: 0.5"/>
     </g>
     <g id="line2d_65">
      <g>
       <use xlink:href="#m3f060bf900" x="54.66" y="140.164055" style="stroke: #000000; stroke-width: 0.8"/>
      </g>
     </g>
     <g id="text_13">
      <!-- 3000 -->
      <g transform="translate(25.71 143.963274) scale(0.1 -0.1)">
       <use xlink:href="#DejaVuSans-33"/>
       <use xlink:href="#DejaVuSans-30" x="63.623047"/>
       <use xlink:href="#DejaVuSans-30" x="127.246094"/>
       <use xlink:href="#DejaVuSans-30" x="190.869141"/>
      </g>
     </g>
    </g>
    <g id="ytick_5">
     <g id="line2d_66">
      <path d="M 54.66 55.945406 
L 709.2 55.945406 
" clip-path="url(#pb5ca255582)" style="fill: none; stroke-dasharray: 1.85,0.8; stroke-dashoffset: 0; stroke: #b2b2b2; stroke-width: 0.5"/>
     </g>
     <g id="line2d_67">
      <g>
       <use xlink:href="#m3f060bf900" x="54.66" y="55.945406" style="stroke: #000000; stroke-width: 0.8"/>
      </g>
     </g>
     <g id="text_14">
      <!-- 4000 -->
      <g transform="translate(25.71 59.744625) scale(0.1 -0.1)">
       <use xlink:href="#DejaVuSans-34"/>
       <use xlink:href="#DejaVuSans-30" x="63.623047"/>
       <use xlink:href="#DejaVuSans-30" x="127.246094"/>
       <use xlink:href="#DejaVuSans-30" x="190.869141"/>
      </g>
     </g>
    </g>
    <g id="text_15">
     <!-- GB/s -->
     <g transform="translate(19.214375 215.7225) rotate(-90) scale(0.12 -0.12)">
      <defs>
       <path id="DejaVuSans-47" d="M 3809 666 
L 3809 1919 
L 2778 1919 
L 2778 2438 
L 4434 2438 
L 4434 434 
Q 4069 175 3628 42 
Q 3188 -91 2688 -91 
Q 1594 -91 976 548 
Q 359 1188 359 2328 
Q 359 3472 976 4111 
Q 1594 4750 2688 4750 
Q 3144 4750 3555 4637 
Q 3966 4525 4313 4306 
L 4313 3634 
Q 3963 3931 3569 4081 
Q 3175 4231 2741 4231 
Q 1884 4231 1454 3753 
Q 1025 3275 1025 2328 
Q 1025 1384 1454 906 
Q 1884 428 2741 428 
Q 3075 428 3337 486 
Q 3600 544 3809 666 
z
" transform="scale(0.015625)"/>
       <path id="DejaVuSans-2f" d="M 1625 4666 
L 2156 4666 
L 531 -594 
L 0 -594 
L 1625 4666 
z
" transform="scale(0.015625)"/>
      </defs>
      <use xlink:href="#DejaVuSans-47"/>
      <use xlink:href="#DejaVuSans-42" x="77.490234"/>
      <use xlink:href="#DejaVuSans-2f" x="146.09375"/>
      <use xlink:href="#DejaVuSans-73" x="179.785156"/>
     </g>
    </g>
   </g>
   <g id="patch_3">
    <path d="M 54.66 392.82 
L 54.66 10.8 
" style="fill: none; stroke: #bcbcbc; stroke-width: 0.8; stroke-linejoin: miter; stroke-linecap: square"/>
   </g>
   <g id="patch_4">
    <path d="M 709.2 392.82 
L 709.2 10.8 
" style="fill: none; stroke: #bcbcbc; stroke-width: 0.8; stroke-linejoin: miter; stroke-linecap: square"/>
   </g>
   <g id="patch_5">
    <path d="M 54.66 392.82 
L 709.2 392.82 
" style="fill: none; stroke: #bcbcbc; stroke-width: 0.8; stroke-linejoin: miter; stroke-linecap: square"/>
   </g>
   <g id="patch_6">
    <path d="M 54.66 10.8 
L 709.2 10.8 
" style="fill: none; stroke: #bcbcbc; stroke-width: 0.8; stroke-linejoin: miter; stroke-linecap: square"/>
   </g>
   <g id="legend_1">
    <g id="patch_7">
     <path d="M 61.66 165.859375 
L 247.542812 165.859375 
Q 249.542812 165.859375 249.542812 163.859375 
L 249.542812 17.8 
Q 249.542812 15.8 247.542812 15.8 
L 61.66 15.8 
Q 59.66 15.8 59.66 17.8 
L 59.66 163.859375 
Q 59.66 165.859375 61.66 165.859375 
z
" style="fill: #eeeeee; opacity: 0.8; stroke: #cccccc; stroke-width: 0.5; stroke-linejoin: miter"/>
    </g>
    <g id="line2d_68">
     <path d="M 63.66 23.898438 
L 73.66 23.898438 
L 83.66 23.898438 
" style="fill: none; stroke: #a60628; stroke-width: 2; stroke-linecap: square"/>
    </g>
    <g id="text_16">
     <!-- L40 -->
     <g transform="translate(91.66 27.398438) scale(0.1 -0.1)">
      <defs>
       <path id="DejaVuSans-4c" d="M 628 4666 
L 1259 4666 
L 1259 531 
L 3531 531 
L 3531 0 
L 628 0 
L 628 4666 
z
" transform="scale(0.015625)"/>
      </defs>
      <use xlink:href="#DejaVuSans-4c"/>
      <use xlink:href="#DejaVuSans-34" x="55.712891"/>
      <use xlink:href="#DejaVuSans-30" x="119.335938"/>
     </g>
    </g>
    <g id="line2d_69">
     <path d="M 63.66 38.576563 
L 73.66 38.576563 
L 83.66 38.576563 
" style="fill: none; stroke: #000000; stroke-width: 2; stroke-linecap: square"/>
    </g>
    <g id="text_17">
     <!-- fit: a= 1600 ns, b= 5098 GB/s, -->
     <g transform="translate(91.66 42.076563) scale(0.1 -0.1)">
      <defs>
       <path id="DejaVuSans-66" d="M 2375 4863 
L 2375 4384 
L 1825 4384 
Q 1516 4384 1395 4259 
Q 1275 4134 1275 3809 
L 1275 3500 
L 2222 3500 
L 2222 3053 
L 1275 3053 
L 1275 0 
L 697 0 
L 697 3053 
L 147 3053 
L 147 3500 
L 697 3500 
L 697 3744 
Q 697 4328 969 4595 
Q 1241 4863 1831 4863 
L 2375 4863 
z
" transform="scale(0.015625)"/>
       <path id="DejaVuSans-74" d="M 1172 4494 
L 1172 3500 
L 2356 3500 
L 2356 3053 
L 1172 3053 
L 1172 1153 
Q 1172 725 1289 603 
Q 1406 481 1766 481 
L 2356 481 
L 2356 0 
L 1766 0 
Q 1100 0 847 248 
Q 594 497 594 1153 
L 594 3053 
L 172 3053 
L 172 3500 
L 594 3500 
L 594 4494 
L 1172 4494 
z
" transform="scale(0.015625)"/>
       <path id="DejaVuSans-3a" d="M 750 794 
L 1409 794 
L 1409 0 
L 750 0 
L 750 794 
z
M 750 3309 
L 1409 3309 
L 1409 2516 
L 750 2516 
L 750 3309 
z
" transform="scale(0.015625)"/>
       <path id="DejaVuSans-61" d="M 2194 1759 
Q 1497 1759 1228 1600 
Q 959 1441 959 1056 
Q 959 750 1161 570 
Q 1363 391 1709 391 
Q 2188 391 2477 730 
Q 2766 1069 2766 1631 
L 2766 1759 
L 2194 1759 
z
M 3341 1997 
L 3341 0 
L 2766 0 
L 2766 531 
Q 2569 213 2275 61 
Q 1981 -91 1556 -91 
Q 1019 -91 701 211 
Q 384 513 384 1019 
Q 384 1609 779 1909 
Q 1175 2209 1959 2209 
L 2766 2209 
L 2766 2266 
Q 2766 2663 2505 2880 
Q 2244 3097 1772 3097 
Q 1472 3097 1187 3025 
Q 903 2953 641 2809 
L 641 3341 
Q 956 3463 1253 3523 
Q 1550 3584 1831 3584 
Q 2591 3584 2966 3190 
Q 3341 2797 3341 1997 
z
" transform="scale(0.015625)"/>
       <path id="DejaVuSans-3d" d="M 678 2906 
L 4684 2906 
L 4684 2381 
L 678 2381 
L 678 2906 
z
M 678 1631 
L 4684 1631 
L 4684 1100 
L 678 1100 
L 678 1631 
z
" transform="scale(0.015625)"/>
       <path id="DejaVuSans-6e" d="M 3513 2113 
L 3513 0 
L 2938 0 
L 2938 2094 
Q 2938 2591 2744 2837 
Q 2550 3084 2163 3084 
Q 1697 3084 1428 2787 
Q 1159 2491 1159 1978 
L 1159 0 
L 581 0 
L 581 3500 
L 1159 3500 
L 1159 2956 
Q 1366 3272 1645 3428 
Q 1925 3584 2291 3584 
Q 2894 3584 3203 3211 
Q 3513 2838 3513 2113 
z
" transform="scale(0.015625)"/>
       <path id="DejaVuSans-62" d="M 3116 1747 
Q 3116 2381 2855 2742 
Q 2594 3103 2138 3103 
Q 1681 3103 1420 2742 
Q 1159 2381 1159 1747 
Q 1159 1113 1420 752 
Q 1681 391 2138 391 
Q 2594 391 2855 752 
Q 3116 1113 3116 1747 
z
M 1159 2969 
Q 1341 3281 1617 3432 
Q 1894 3584 2278 3584 
Q 2916 3584 3314 3078 
Q 3713 2572 3713 1747 
Q 3713 922 3314 415 
Q 2916 -91 2278 -91 
Q 1894 -91 1617 61 
Q 1341 213 1159 525 
L 1159 0 
L 581 0 
L 581 4863 
L 1159 4863 
L 1159 2969 
z
" transform="scale(0.015625)"/>
      </defs>
      <use xlink:href="#DejaVuSans-66"/>
      <use xlink:href="#DejaVuSans-69" x="35.205078"/>
      <use xlink:href="#DejaVuSans-74" x="62.988281"/>
      <use xlink:href="#DejaVuSans-3a" x="102.197266"/>
      <use xlink:href="#DejaVuSans-20" x="135.888672"/>
      <use xlink:href="#DejaVuSans-61" x="167.675781"/>
      <use xlink:href="#DejaVuSans-3d" x="228.955078"/>
      <use xlink:href="#DejaVuSans-20" x="312.744141"/>
      <use xlink:href="#DejaVuSans-31" x="344.53125"/>
      <use xlink:href="#DejaVuSans-36" x="408.154297"/>
      <use xlink:href="#DejaVuSans-30" x="471.777344"/>
      <use xlink:href="#DejaVuSans-30" x="535.400391"/>
      <use xlink:href="#DejaVuSans-20" x="599.023438"/>
      <use xlink:href="#DejaVuSans-6e" x="630.810547"/>
      <use xlink:href="#DejaVuSans-73" x="694.189453"/>
      <use xlink:href="#DejaVuSans-2c" x="746.289062"/>
      <use xlink:href="#DejaVuSans-20" x="778.076172"/>
      <use xlink:href="#DejaVuSans-62" x="809.863281"/>
      <use xlink:href="#DejaVuSans-3d" x="873.339844"/>
      <use xlink:href="#DejaVuSans-20" x="957.128906"/>
      <use xlink:href="#DejaVuSans-35" x="988.916016"/>
      <use xlink:href="#DejaVuSans-30" x="1052.539062"/>
      <use xlink:href="#DejaVuSans-39" x="1116.162109"/>
      <use xlink:href="#DejaVuSans-38" x="1179.785156"/>
      <use xlink:href="#DejaVuSans-20" x="1243.408203"/>
      <use xlink:href="#DejaVuSans-47" x="1275.195312"/>
      <use xlink:href="#DejaVuSans-42" x="1352.685547"/>
      <use xlink:href="#DejaVuSans-2f" x="1421.289062"/>
      <use xlink:href="#DejaVuSans-73" x="1454.980469"/>
      <use xlink:href="#DejaVuSans-2c" x="1507.080078"/>
     </g>
    </g>
    <g id="line2d_70">
     <path d="M 63.66 53.254688 
L 73.66 53.254688 
L 83.66 53.254688 
" style="fill: none; stroke: #d55e00; stroke-width: 2; stroke-linecap: square"/>
    </g>
    <g id="text_18">
     <!-- A100_80 -->
     <g transform="translate(91.66 56.754688) scale(0.1 -0.1)">
      <defs>
       <path id="DejaVuSans-41" d="M 2188 4044 
L 1331 1722 
L 3047 1722 
L 2188 4044 
z
M 1831 4666 
L 2547 4666 
L 4325 0 
L 3669 0 
L 3244 1197 
L 1141 1197 
L 716 0 
L 50 0 
L 1831 4666 
z
" transform="scale(0.015625)"/>
       <path id="DejaVuSans-5f" d="M 3263 -1063 
L 3263 -1509 
L -63 -1509 
L -63 -1063 
L 3263 -1063 
z
" transform="scale(0.015625)"/>
      </defs>
      <use xlink:href="#DejaVuSans-41"/>
      <use xlink:href="#DejaVuSans-31" x="68.408203"/>
      <use xlink:href="#DejaVuSans-30" x="132.03125"/>
      <use xlink:href="#DejaVuSans-30" x="195.654297"/>
      <use xlink:href="#DejaVuSans-5f" x="259.277344"/>
      <use xlink:href="#DejaVuSans-38" x="309.277344"/>
      <use xlink:href="#DejaVuSans-30" x="372.900391"/>
     </g>
    </g>
    <g id="line2d_71">
     <path d="M 63.66 68.210938 
L 73.66 68.210938 
L 83.66 68.210938 
" style="fill: none; stroke: #000000; stroke-width: 2; stroke-linecap: square"/>
    </g>
    <g id="text_19">
     <!-- fit: a= 2555 ns, b= 3817 GB/s, -->
     <g transform="translate(91.66 71.710938) scale(0.1 -0.1)">
      <defs>
       <path id="DejaVuSans-37" d="M 525 4666 
L 3525 4666 
L 3525 4397 
L 1831 0 
L 1172 0 
L 2766 4134 
L 525 4134 
L 525 4666 
z
" transform="scale(0.015625)"/>
      </defs>
      <use xlink:href="#DejaVuSans-66"/>
      <use xlink:href="#DejaVuSans-69" x="35.205078"/>
      <use xlink:href="#DejaVuSans-74" x="62.988281"/>
      <use xlink:href="#DejaVuSans-3a" x="102.197266"/>
      <use xlink:href="#DejaVuSans-20" x="135.888672"/>
      <use xlink:href="#DejaVuSans-61" x="167.675781"/>
      <use xlink:href="#DejaVuSans-3d" x="228.955078"/>
      <use xlink:href="#DejaVuSans-20" x="312.744141"/>
      <use xlink:href="#DejaVuSans-32" x="344.53125"/>
      <use xlink:href="#DejaVuSans-35" x="408.154297"/>
      <use xlink:href="#DejaVuSans-35" x="471.777344"/>
      <use xlink:href="#DejaVuSans-35" x="535.400391"/>
      <use xlink:href="#DejaVuSans-20" x="599.023438"/>
      <use xlink:href="#DejaVuSans-6e" x="630.810547"/>
      <use xlink:href="#DejaVuSans-73" x="694.189453"/>
      <use xlink:href="#DejaVuSans-2c" x="746.289062"/>
      <use xlink:href="#DejaVuSans-20" x="778.076172"/>
      <use xlink:href="#DejaVuSans-62" x="809.863281"/>
      <use xlink:href="#DejaVuSans-3d" x="873.339844"/>
      <use xlink:href="#DejaVuSans-20" x="957.128906"/>
      <use xlink:href="#DejaVuSans-33" x="988.916016"/>
      <use xlink:href="#DejaVuSans-38" x="1052.539062"/>
      <use xlink:href="#DejaVuSans-31" x="1116.162109"/>
      <use xlink:href="#DejaVuSans-37" x="1179.785156"/>
      <use xlink:href="#DejaVuSans-20" x="1243.408203"/>
      <use xlink:href="#DejaVuSans-47" x="1275.195312"/>
      <use xlink:href="#DejaVuSans-42" x="1352.685547"/>
      <use xlink:href="#DejaVuSans-2f" x="1421.289062"/>
      <use xlink:href="#DejaVuSans-73" x="1454.980469"/>
      <use xlink:href="#DejaVuSans-2c" x="1507.080078"/>
     </g>
    </g>
    <g id="line2d_72">
     <path d="M 63.66 82.889063 
L 73.66 82.889063 
L 83.66 82.889063 
" style="fill: none; stroke: #56b4e9; stroke-width: 2; stroke-linecap: square"/>
    </g>
    <g id="text_20">
     <!-- H200 -->
     <g transform="translate(91.66 86.389063) scale(0.1 -0.1)">
      <defs>
       <path id="DejaVuSans-48" d="M 628 4666 
L 1259 4666 
L 1259 2753 
L 3553 2753 
L 3553 4666 
L 4184 4666 
L 4184 0 
L 3553 0 
L 3553 2222 
L 1259 2222 
L 1259 0 
L 628 0 
L 628 4666 
z
" transform="scale(0.015625)"/>
      </defs>
      <use xlink:href="#DejaVuSans-48"/>
      <use xlink:href="#DejaVuSans-32" x="75.195312"/>
      <use xlink:href="#DejaVuSans-30" x="138.818359"/>
      <use xlink:href="#DejaVuSans-30" x="202.441406"/>
     </g>
    </g>
    <g id="line2d_73">
     <path d="M 63.66 97.567188 
L 73.66 97.567188 
L 83.66 97.567188 
" style="fill: none; stroke: #000000; stroke-width: 2; stroke-linecap: square"/>
    </g>
    <g id="text_21">
     <!-- fit: a= 2433 ns, b= 6084 GB/s, -->
     <g transform="translate(91.66 101.067188) scale(0.1 -0.1)">
      <use xlink:href="#DejaVuSans-66"/>
      <use xlink:href="#DejaVuSans-69" x="35.205078"/>
      <use xlink:href="#DejaVuSans-74" x="62.988281"/>
      <use xlink:href="#DejaVuSans-3a" x="102.197266"/>
      <use xlink:href="#DejaVuSans-20" x="135.888672"/>
      <use xlink:href="#DejaVuSans-61" x="167.675781"/>
      <use xlink:href="#DejaVuSans-3d" x="228.955078"/>
      <use xlink:href="#DejaVuSans-20" x="312.744141"/>
      <use xlink:href="#DejaVuSans-32" x="344.53125"/>
      <use xlink:href="#DejaVuSans-34" x="408.154297"/>
      <use xlink:href="#DejaVuSans-33" x="471.777344"/>
      <use xlink:href="#DejaVuSans-33" x="535.400391"/>
      <use xlink:href="#DejaVuSans-20" x="599.023438"/>
      <use xlink:href="#DejaVuSans-6e" x="630.810547"/>
      <use xlink:href="#DejaVuSans-73" x="694.189453"/>
      <use xlink:href="#DejaVuSans-2c" x="746.289062"/>
      <use xlink:href="#DejaVuSans-20" x="778.076172"/>
      <use xlink:href="#DejaVuSans-62" x="809.863281"/>
      <use xlink:href="#DejaVuSans-3d" x="873.339844"/>
      <use xlink:href="#DejaVuSans-20" x="957.128906"/>
      <use xlink:href="#DejaVuSans-36" x="988.916016"/>
      <use xlink:href="#DejaVuSans-30" x="1052.539062"/>
      <use xlink:href="#DejaVuSans-38" x="1116.162109"/>
      <use xlink:href="#DejaVuSans-34" x="1179.785156"/>
      <use xlink:href="#DejaVuSans-20" x="1243.408203"/>
      <use xlink:href="#DejaVuSans-47" x="1275.195312"/>
      <use xlink:href="#DejaVuSans-42" x="1352.685547"/>
      <use xlink:href="#DejaVuSans-2f" x="1421.289062"/>
      <use xlink:href="#DejaVuSans-73" x="1454.980469"/>
      <use xlink:href="#DejaVuSans-2c" x="1507.080078"/>
     </g>
    </g>
    <g id="line2d_74">
     <path d="M 63.66 112.245313 
L 73.66 112.245313 
L 83.66 112.245313 
" style="fill: none; stroke: #f0e442; stroke-width: 2; stroke-linecap: square"/>
    </g>
    <g id="text_22">
     <!-- MI210 -->
     <g transform="translate(91.66 115.745313) scale(0.1 -0.1)">
      <defs>
       <path id="DejaVuSans-4d" d="M 628 4666 
L 1569 4666 
L 2759 1491 
L 3956 4666 
L 4897 4666 
L 4897 0 
L 4281 0 
L 4281 4097 
L 3078 897 
L 2444 897 
L 1241 4097 
L 1241 0 
L 628 0 
L 628 4666 
z
" transform="scale(0.015625)"/>
       <path id="DejaVuSans-49" d="M 628 4666 
L 1259 4666 
L 1259 0 
L 628 0 
L 628 4666 
z
" transform="scale(0.015625)"/>
      </defs>
      <use xlink:href="#DejaVuSans-4d"/>
      <use xlink:href="#DejaVuSans-49" x="86.279297"/>
      <use xlink:href="#DejaVuSans-32" x="115.771484"/>
      <use xlink:href="#DejaVuSans-31" x="179.394531"/>
      <use xlink:href="#DejaVuSans-30" x="243.017578"/>
     </g>
    </g>
    <g id="line2d_75">
     <path d="M 63.66 126.923438 
L 73.66 126.923438 
L 83.66 126.923438 
" style="fill: none; stroke: #000000; stroke-width: 2; stroke-linecap: square"/>
    </g>
    <g id="text_23">
     <!-- fit: a= 1956 ns, b= 3041 GB/s, -->
     <g transform="translate(91.66 130.423438) scale(0.1 -0.1)">
      <use xlink:href="#DejaVuSans-66"/>
      <use xlink:href="#DejaVuSans-69" x="35.205078"/>
      <use xlink:href="#DejaVuSans-74" x="62.988281"/>
      <use xlink:href="#DejaVuSans-3a" x="102.197266"/>
      <use xlink:href="#DejaVuSans-20" x="135.888672"/>
      <use xlink:href="#DejaVuSans-61" x="167.675781"/>
      <use xlink:href="#DejaVuSans-3d" x="228.955078"/>
      <use xlink:href="#DejaVuSans-20" x="312.744141"/>
      <use xlink:href="#DejaVuSans-31" x="344.53125"/>
      <use xlink:href="#DejaVuSans-39" x="408.154297"/>
      <use xlink:href="#DejaVuSans-35" x="471.777344"/>
      <use xlink:href="#DejaVuSans-36" x="535.400391"/>
      <use xlink:href="#DejaVuSans-20" x="599.023438"/>
      <use xlink:href="#DejaVuSans-6e" x="630.810547"/>
      <use xlink:href="#DejaVuSans-73" x="694.189453"/>
      <use xlink:href="#DejaVuSans-2c" x="746.289062"/>
      <use xlink:href="#DejaVuSans-20" x="778.076172"/>
      <use xlink:href="#DejaVuSans-62" x="809.863281"/>
      <use xlink:href="#DejaVuSans-3d" x="873.339844"/>
      <use xlink:href="#DejaVuSans-20" x="957.128906"/>
      <use xlink:href="#DejaVuSans-33" x="988.916016"/>
      <use xlink:href="#DejaVuSans-30" x="1052.539062"/>
      <use xlink:href="#DejaVuSans-34" x="1116.162109"/>
      <use xlink:href="#DejaVuSans-31" x="1179.785156"/>
      <use xlink:href="#DejaVuSans-20" x="1243.408203"/>
      <use xlink:href="#DejaVuSans-47" x="1275.195312"/>
      <use xlink:href="#DejaVuSans-42" x="1352.685547"/>
      <use xlink:href="#DejaVuSans-2f" x="1421.289062"/>
      <use xlink:href="#DejaVuSans-73" x="1454.980469"/>
      <use xlink:href="#DejaVuSans-2c" x="1507.080078"/>
     </g>
    </g>
    <g id="line2d_76">
     <path d="M 63.66 141.601562 
L 73.66 141.601562 
L 83.66 141.601562 
" style="fill: none; stroke: #0072b2; stroke-width: 2; stroke-linecap: square"/>
    </g>
    <g id="text_24">
     <!-- RX6900XT -->
     <g transform="translate(91.66 145.101562) scale(0.1 -0.1)">
      <defs>
       <path id="DejaVuSans-52" d="M 2841 2188 
Q 3044 2119 3236 1894 
Q 3428 1669 3622 1275 
L 4263 0 
L 3584 0 
L 2988 1197 
Q 2756 1666 2539 1819 
Q 2322 1972 1947 1972 
L 1259 1972 
L 1259 0 
L 628 0 
L 628 4666 
L 2053 4666 
Q 2853 4666 3247 4331 
Q 3641 3997 3641 3322 
Q 3641 2881 3436 2590 
Q 3231 2300 2841 2188 
z
M 1259 4147 
L 1259 2491 
L 2053 2491 
Q 2509 2491 2742 2702 
Q 2975 2913 2975 3322 
Q 2975 3731 2742 3939 
Q 2509 4147 2053 4147 
L 1259 4147 
z
" transform="scale(0.015625)"/>
       <path id="DejaVuSans-58" d="M 403 4666 
L 1081 4666 
L 2241 2931 
L 3406 4666 
L 4084 4666 
L 2584 2425 
L 4184 0 
L 3506 0 
L 2194 1984 
L 872 0 
L 191 0 
L 1856 2491 
L 403 4666 
z
" transform="scale(0.015625)"/>
       <path id="DejaVuSans-54" d="M -19 4666 
L 3928 4666 
L 3928 4134 
L 2272 4134 
L 2272 0 
L 1638 0 
L 1638 4134 
L -19 4134 
L -19 4666 
z
" transform="scale(0.015625)"/>
      </defs>
      <use xlink:href="#DejaVuSans-52"/>
      <use xlink:href="#DejaVuSans-58" x="69.482422"/>
      <use xlink:href="#DejaVuSans-36" x="137.988281"/>
      <use xlink:href="#DejaVuSans-39" x="201.611328"/>
      <use xlink:href="#DejaVuSans-30" x="265.234375"/>
      <use xlink:href="#DejaVuSans-30" x="328.857422"/>
      <use xlink:href="#DejaVuSans-58" x="392.480469"/>
      <use xlink:href="#DejaVuSans-54" x="459.236328"/>
     </g>
    </g>
    <g id="line2d_77">
     <path d="M 63.66 156.279688 
L 73.66 156.279688 
L 83.66 156.279688 
" style="fill: none; stroke: #000000; stroke-width: 2; stroke-linecap: square"/>
    </g>
    <g id="text_25">
     <!-- fit: a= 2618 ns, b= 1618 GB/s, -->
     <g transform="translate(91.66 159.779688) scale(0.1 -0.1)">
      <use xlink:href="#DejaVuSans-66"/>
      <use xlink:href="#DejaVuSans-69" x="35.205078"/>
      <use xlink:href="#DejaVuSans-74" x="62.988281"/>
      <use xlink:href="#DejaVuSans-3a" x="102.197266"/>
      <use xlink:href="#DejaVuSans-20" x="135.888672"/>
      <use xlink:href="#DejaVuSans-61" x="167.675781"/>
      <use xlink:href="#DejaVuSans-3d" x="228.955078"/>
      <use xlink:href="#DejaVuSans-20" x="312.744141"/>
      <use xlink:href="#DejaVuSans-32" x="344.53125"/>
      <use xlink:href="#DejaVuSans-36" x="408.154297"/>
      <use xlink:href="#DejaVuSans-31" x="471.777344"/>
      <use xlink:href="#DejaVuSans-38" x="535.400391"/>
      <use xlink:href="#DejaVuSans-20" x="599.023438"/>
      <use xlink:href="#DejaVuSans-6e" x="630.810547"/>
      <use xlink:href="#DejaVuSans-73" x="694.189453"/>
      <use xlink:href="#DejaVuSans-2c" x="746.289062"/>
      <use xlink:href="#DejaVuSans-20" x="778.076172"/>
      <use xlink:href="#DejaVuSans-62" x="809.863281"/>
      <use xlink:href="#DejaVuSans-3d" x="873.339844"/>
      <use xlink:href="#DejaVuSans-20" x="957.128906"/>
      <use xlink:href="#DejaVuSans-31" x="988.916016"/>
      <use xlink:href="#DejaVuSans-36" x="1052.539062"/>
      <use xlink:href="#DejaVuSans-31" x="1116.162109"/>
      <use xlink:href="#DejaVuSans-38" x="1179.785156"/>
      <use xlink:href="#DejaVuSans-20" x="1243.408203"/>
      <use xlink:href="#DejaVuSans-47" x="1275.195312"/>
      <use xlink:href="#DejaVuSans-42" x="1352.685547"/>
      <use xlink:href="#DejaVuSans-2f" x="1421.289062"/>
      <use xlink:href="#DejaVuSans-73" x="1454.980469"/>
      <use xlink:href="#DejaVuSans-2c" x="1507.080078"/>
     </g>
    </g>
   </g>
  </g>
 </g>
 <defs>
  <clipPath id="pb5ca255582">
   <rect x="54.66" y="10.8" width="654.54" height="382.02"/>
  </clipPath>
 </defs>
</svg>
